SplineFontDB: 3.0
FontName: PowerGreenSmall
FullName: Power Green Small
FamilyName: Power Green Small
Weight: Book
Copyright: (c) 2008 Peter O. http://www.upokecenter.com/
Version: 1.1
ItalicAngle: 0
UnderlinePosition: -11.6875
UnderlineWidth: 23.375
Ascent: 576
Descent: 128
InvalidEm: 0
sfntRevision: 0x00010000
LayerCount: 2
Layer: 0 1 "Back" 1
Layer: 1 1 "Fore" 0
XUID: [1021 609 -450105314 3886]
StyleMap: 0x0000
FSType: 0
OS2Version: 1
OS2_WeightWidthSlopeOnly: 0
OS2_UseTypoMetrics: 0
CreationTime: 879794810
ModificationTime: 1599425786
PfmFamily: 81
TTFWeight: 400
TTFWidth: 5
LineGap: 88
VLineGap: 0
Panose: 1 0 0 0 0 0 0 0 0 0
OS2TypoAscent: 528
OS2TypoAOffset: 0
OS2TypoDescent: 176
OS2TypoDOffset: 0
OS2TypoLinegap: 88
OS2WinAscent: 703
OS2WinAOffset: 0
OS2WinDescent: 88
OS2WinDOffset: 0
HheadAscent: 528
HheadAOffset: 0
HheadDescent: 176
HheadDOffset: 0
OS2SubXSize: 70
OS2SubYSize: 70
OS2SubXOff: 0
OS2SubYOff: 0
OS2SupXSize: 70
OS2SupYSize: 70
OS2SupXOff: 0
OS2SupYOff: 0
OS2StrikeYSize: 35
OS2StrikeYPos: 317
OS2Vendor: 'PfEd'
OS2CodePages: 00000003.00000000
OS2UnicodeRanges: 00000003.00060000.00000010.00000000
MarkAttachClasses: 1
DEI: 91125
ShortTable: maxp 16
  1
  0
  194
  57
  10
  0
  0
  1
  0
  0
  0
  0
  0
  0
  0
  0
EndShort
LangName: 1033 "" "" "Regular" "Power Green Small-Regular-Peter-O-2007" "" "Version 1.1" "" "" "Peter O." "Peter O." "" "" "http://www.upokecenter.com/"
GaspTable: 1 65535 2 0
Encoding: UnicodeBmp
UnicodeInterp: none
NameList: AGL For New Fonts
DisplaySize: -48
AntiAlias: 1
FitToEm: 0
WinInfo: 38 38 16
BeginPrivate: 0
EndPrivate
BeginChars: 65537 194

StartChar: .notdef
Encoding: 65536 -1 0
Width: 319
Flags: W
LayerCount: 2
Fore
SplineSet
0 512 m 1,0,-1
 256 512 l 1,1,-1
 256 64 l 1,2,-1
 0 64 l 1,3,-1
 0 512 l 1,4,-1
 0 512 l 1,0,-1
64 448 m 1,5,-1
 64 128 l 1,6,-1
 192 128 l 1,7,-1
 192 448 l 1,8,-1
 64 448 l 1,9,-1
 64 448 l 1,5,-1
EndSplineSet
EndChar

StartChar: exclam
Encoding: 33 33 2
Width: 191
Flags: W
LayerCount: 2
Fore
SplineSet
64 512 m 1,0,-1
 128 512 l 1,1,-1
 128 192 l 1,2,-1
 64 192 l 1,3,-1
 64 512 l 1,4,-1
 64 512 l 1,0,-1
64 128 m 1,5,-1
 128 128 l 1,6,-1
 128 64 l 1,7,-1
 64 64 l 1,8,-1
 64 128 l 1,9,-1
 64 128 l 1,5,-1
EndSplineSet
EndChar

StartChar: quotedbl
Encoding: 34 34 3
Width: 255
Flags: W
LayerCount: 2
Fore
SplineSet
0 512 m 1,0,-1
 64 512 l 1,1,-1
 64 320 l 1,2,-1
 0 320 l 1,3,-1
 0 512 l 1,4,-1
 0 512 l 1,0,-1
128 512 m 1,5,-1
 192 512 l 1,6,-1
 192 320 l 1,7,-1
 128 320 l 1,8,-1
 128 512 l 1,9,-1
 128 512 l 1,5,-1
EndSplineSet
EndChar

StartChar: numbersign
Encoding: 35 35 4
Width: 447
Flags: W
LayerCount: 2
Fore
SplineSet
128 512 m 1,0,-1
 192 512 l 1,1,-1
 192 384 l 1,2,-1
 256 384 l 1,3,-1
 256 512 l 1,4,-1
 320 512 l 1,5,-1
 320 384 l 1,6,-1
 384 384 l 1,7,-1
 384 320 l 1,8,-1
 256 320 l 1,9,-1
 256 256 l 1,10,-1
 320 256 l 1,11,-1
 320 192 l 1,12,-1
 256 192 l 1,13,-1
 256 64 l 1,14,-1
 192 64 l 1,15,-1
 192 192 l 1,16,-1
 128 192 l 1,17,-1
 128 64 l 1,18,-1
 64 64 l 1,19,-1
 64 192 l 1,20,-1
 0 192 l 1,21,-1
 0 256 l 1,22,-1
 128 256 l 1,23,-1
 128 320 l 1,24,-1
 64 320 l 1,25,-1
 64 384 l 1,26,-1
 128 384 l 1,27,-1
 128 512 l 1,28,-1
 128 512 l 1,0,-1
EndSplineSet
EndChar

StartChar: dollar
Encoding: 36 36 5
Width: 383
Flags: W
LayerCount: 2
Fore
SplineSet
128 512 m 1,0,-1
 256 512 l 1,1,-1
 256 448 l 1,2,-1
 192 448 l 1,3,-1
 192 320 l 1,4,-1
 256 320 l 1,5,-1
 256 448 l 1,6,-1
 320 448 l 1,7,-1
 320 256 l 1,8,-1
 192 256 l 1,9,-1
 192 192 l 1,10,-1
 320 192 l 1,11,-1
 320 128 l 1,12,-1
 192 128 l 1,13,-1
 192 64 l 1,14,-1
 128 64 l 1,15,-1
 128 128 l 1,16,-1
 64 128 l 1,17,-1
 64 192 l 1,18,-1
 128 192 l 1,19,-1
 128 256 l 1,20,-1
 64 256 l 1,21,-1
 64 320 l 1,22,-1
 128 320 l 1,23,-1
 128 512 l 1,24,-1
 128 512 l 1,0,-1
EndSplineSet
EndChar

StartChar: percent
Encoding: 37 37 6
Width: 383
Flags: W
LayerCount: 2
Fore
SplineSet
64 512 m 1,0,-1
 192 512 l 1,1,-1
 192 384 l 1,2,-1
 64 384 l 1,3,-1
 64 512 l 1,4,-1
 64 512 l 1,0,-1
256 512 m 1,5,-1
 320 512 l 1,6,-1
 320 384 l 1,7,-1
 256 384 l 1,8,-1
 256 512 l 1,9,-1
 256 512 l 1,5,-1
192 384 m 1,10,-1
 256 384 l 1,11,-1
 256 320 l 1,12,-1
 192 320 l 1,13,-1
 192 384 l 1,14,-1
 192 384 l 1,10,-1
128 320 m 1,15,-1
 192 320 l 1,16,-1
 192 192 l 1,17,-1
 128 192 l 1,18,-1
 128 320 l 1,19,-1
 128 320 l 1,15,-1
64 192 m 1,20,-1
 128 192 l 1,21,-1
 128 64 l 1,22,-1
 64 64 l 1,23,-1
 64 192 l 1,24,-1
 64 192 l 1,20,-1
192 192 m 1,25,-1
 320 192 l 1,26,-1
 320 64 l 1,27,-1
 192 64 l 1,28,-1
 192 192 l 1,29,-1
 192 192 l 1,25,-1
EndSplineSet
EndChar

StartChar: ampersand
Encoding: 38 38 7
Width: 319
Flags: W
LayerCount: 2
Fore
SplineSet
64 512 m 1,0,-1
 128 512 l 1,1,-1
 128 448 l 1,2,-1
 64 448 l 1,3,-1
 64 512 l 1,4,-1
 64 512 l 1,0,-1
0 448 m 1,5,-1
 64 448 l 1,6,-1
 64 320 l 1,7,-1
 0 320 l 1,8,-1
 0 448 l 1,9,-1
 0 448 l 1,5,-1
128 448 m 1,10,-1
 192 448 l 1,11,-1
 192 320 l 1,12,-1
 128 320 l 1,13,-1
 128 448 l 1,14,-1
 128 448 l 1,10,-1
64 320 m 1,15,-1
 128 320 l 1,16,-1
 128 256 l 1,17,-1
 64 256 l 1,18,-1
 64 320 l 1,19,-1
 64 320 l 1,15,-1
0 256 m 1,20,-1
 64 256 l 1,21,-1
 64 128 l 1,22,-1
 0 128 l 1,23,-1
 0 256 l 1,24,-1
 0 256 l 1,20,-1
128 256 m 1,25,-1
 256 256 l 1,26,-1
 256 192 l 1,27,-1
 192 192 l 1,28,-1
 192 128 l 1,29,-1
 128 128 l 1,30,-1
 128 256 l 1,31,-1
 128 256 l 1,25,-1
64 128 m 1,32,-1
 128 128 l 1,33,-1
 128 64 l 1,34,-1
 64 64 l 1,35,-1
 64 128 l 1,36,-1
 64 128 l 1,32,-1
192 128 m 1,37,-1
 256 128 l 1,38,-1
 256 64 l 1,39,-1
 192 64 l 1,40,-1
 192 128 l 1,41,-1
 192 128 l 1,37,-1
EndSplineSet
EndChar

StartChar: quotesingle
Encoding: 39 39 8
Width: 191
Flags: W
LayerCount: 2
Fore
SplineSet
0 575 m 1,0,-1
 128 575 l 1,1,-1
 128 448 l 1,2,-1
 64 448 l 1,3,-1
 64 512 l 1,4,-1
 0 512 l 1,5,-1
 0 575 l 1,6,-1
 0 575 l 1,0,-1
0 448 m 1,7,-1
 64 448 l 1,8,-1
 64 384 l 1,9,-1
 0 384 l 1,10,-1
 0 448 l 1,11,-1
 0 448 l 1,7,-1
EndSplineSet
EndChar

StartChar: parenleft
Encoding: 40 40 9
Width: 191
Flags: W
LayerCount: 2
Fore
SplineSet
64 512 m 1,0,-1
 128 512 l 1,1,-1
 128 448 l 1,2,-1
 64 448 l 1,3,-1
 64 512 l 1,4,-1
 64 512 l 1,0,-1
0 448 m 1,5,-1
 64 448 l 1,6,-1
 64 128 l 1,7,-1
 0 128 l 1,8,-1
 0 448 l 1,9,-1
 0 448 l 1,5,-1
64 128 m 1,10,-1
 128 128 l 1,11,-1
 128 64 l 1,12,-1
 64 64 l 1,13,-1
 64 128 l 1,14,-1
 64 128 l 1,10,-1
EndSplineSet
EndChar

StartChar: parenright
Encoding: 41 41 10
Width: 191
Flags: W
LayerCount: 2
Fore
SplineSet
0 512 m 1,0,-1
 64 512 l 1,1,-1
 64 448 l 1,2,-1
 0 448 l 1,3,-1
 0 512 l 1,4,-1
 0 512 l 1,0,-1
64 448 m 1,5,-1
 128 448 l 1,6,-1
 128 128 l 1,7,-1
 64 128 l 1,8,-1
 64 448 l 1,9,-1
 64 448 l 1,5,-1
0 128 m 1,10,-1
 64 128 l 1,11,-1
 64 64 l 1,12,-1
 0 64 l 1,13,-1
 0 128 l 1,14,-1
 0 128 l 1,10,-1
EndSplineSet
EndChar

StartChar: asterisk
Encoding: 42 42 11
Width: 383
Flags: W
LayerCount: 2
Fore
SplineSet
0 448 m 1,0,-1
 64 448 l 1,1,-1
 64 384 l 1,2,-1
 0 384 l 1,3,-1
 0 448 l 1,4,-1
 0 448 l 1,0,-1
128 448 m 1,5,-1
 192 448 l 1,6,-1
 192 384 l 1,7,-1
 256 384 l 1,8,-1
 256 320 l 1,9,-1
 320 320 l 1,10,-1
 320 256 l 1,11,-1
 256 256 l 1,12,-1
 256 192 l 1,13,-1
 192 192 l 1,14,-1
 192 128 l 1,15,-1
 128 128 l 1,16,-1
 128 192 l 1,17,-1
 64 192 l 1,18,-1
 64 256 l 1,19,-1
 0 256 l 1,20,-1
 0 320 l 1,21,-1
 64 320 l 1,22,-1
 64 384 l 1,23,-1
 128 384 l 1,24,-1
 128 448 l 1,25,-1
 128 448 l 1,5,-1
256 448 m 1,26,-1
 320 448 l 1,27,-1
 320 384 l 1,28,-1
 256 384 l 1,29,-1
 256 448 l 1,30,-1
 256 448 l 1,26,-1
0 192 m 1,31,-1
 64 192 l 1,32,-1
 64 128 l 1,33,-1
 0 128 l 1,34,-1
 0 192 l 1,35,-1
 0 192 l 1,31,-1
256 192 m 1,36,-1
 320 192 l 1,37,-1
 320 128 l 1,38,-1
 256 128 l 1,39,-1
 256 192 l 1,40,-1
 256 192 l 1,36,-1
EndSplineSet
EndChar

StartChar: plus
Encoding: 43 43 12
Width: 383
Flags: W
LayerCount: 2
Fore
SplineSet
128 448 m 1,0,-1
 192 448 l 1,1,-1
 192 320 l 1,2,-1
 320 320 l 1,3,-1
 320 256 l 1,4,-1
 192 256 l 1,5,-1
 192 128 l 1,6,-1
 128 128 l 1,7,-1
 128 256 l 1,8,-1
 0 256 l 1,9,-1
 0 320 l 1,10,-1
 128 320 l 1,11,-1
 128 448 l 1,12,-1
 128 448 l 1,0,-1
EndSplineSet
EndChar

StartChar: comma
Encoding: 44 44 13
Width: 191
Flags: W
LayerCount: 2
Fore
SplineSet
0 192 m 1,0,-1
 128 192 l 1,1,-1
 128 0 l 1,2,-1
 64 0 l 1,3,-1
 64 64 l 1,4,-1
 0 64 l 1,5,-1
 0 192 l 1,6,-1
 0 192 l 1,0,-1
EndSplineSet
EndChar

StartChar: glyph14
Encoding: 45 45 14
Width: 319
Flags: W
LayerCount: 2
Fore
SplineSet
0 320 m 1,0,-1
 256 320 l 1,1,-1
 256 256 l 1,2,-1
 0 256 l 1,3,-1
 0 320 l 1,4,-1
 0 320 l 1,0,-1
EndSplineSet
EndChar

StartChar: period
Encoding: 46 46 15
Width: 191
Flags: W
LayerCount: 2
Fore
SplineSet
0 192 m 1,0,-1
 128 192 l 1,1,-1
 128 64 l 1,2,-1
 0 64 l 1,3,-1
 0 192 l 1,4,-1
 0 192 l 1,0,-1
EndSplineSet
EndChar

StartChar: slash
Encoding: 47 47 16
Width: 319
Flags: W
LayerCount: 2
Fore
SplineSet
192 575 m 1,0,-1
 256 575 l 1,1,-1
 256 448 l 1,2,-1
 192 448 l 1,3,-1
 192 575 l 1,4,-1
 192 575 l 1,0,-1
128 448 m 1,5,-1
 192 448 l 1,6,-1
 192 320 l 1,7,-1
 128 320 l 1,8,-1
 128 448 l 1,9,-1
 128 448 l 1,5,-1
64 320 m 1,10,-1
 128 320 l 1,11,-1
 128 192 l 1,12,-1
 64 192 l 1,13,-1
 64 320 l 1,14,-1
 64 320 l 1,10,-1
0 192 m 1,15,-1
 64 192 l 1,16,-1
 64 64 l 1,17,-1
 0 64 l 1,18,-1
 0 192 l 1,19,-1
 0 192 l 1,15,-1
EndSplineSet
EndChar

StartChar: zero
Encoding: 48 48 17
Width: 319
Flags: W
LayerCount: 2
Fore
SplineSet
64 512 m 1,0,-1
 192 512 l 1,1,-1
 192 448 l 1,2,-1
 64 448 l 1,3,-1
 64 512 l 1,4,-1
 64 512 l 1,0,-1
0 448 m 1,5,-1
 64 448 l 1,6,-1
 64 128 l 1,7,-1
 0 128 l 1,8,-1
 0 448 l 1,9,-1
 0 448 l 1,5,-1
192 448 m 1,10,-1
 256 448 l 1,11,-1
 256 128 l 1,12,-1
 192 128 l 1,13,-1
 192 448 l 1,14,-1
 192 448 l 1,10,-1
64 128 m 1,15,-1
 192 128 l 1,16,-1
 192 64 l 1,17,-1
 64 64 l 1,18,-1
 64 128 l 1,19,-1
 64 128 l 1,15,-1
EndSplineSet
EndChar

StartChar: one
Encoding: 49 49 18
Width: 319
Flags: W
LayerCount: 2
Fore
SplineSet
128 512 m 1,0,-1
 192 512 l 1,1,-1
 192 128 l 1,2,-1
 256 128 l 1,3,-1
 256 64 l 1,4,-1
 64 64 l 1,5,-1
 64 128 l 1,6,-1
 128 128 l 1,7,-1
 128 384 l 1,8,-1
 64 384 l 1,9,-1
 64 448 l 1,10,-1
 128 448 l 1,11,-1
 128 512 l 1,12,-1
 128 512 l 1,0,-1
EndSplineSet
EndChar

StartChar: two
Encoding: 50 50 19
Width: 319
Flags: W
LayerCount: 2
Fore
SplineSet
64 512 m 1,0,-1
 192 512 l 1,1,-1
 192 448 l 1,2,-1
 64 448 l 1,3,-1
 64 512 l 1,4,-1
 64 512 l 1,0,-1
0 448 m 1,5,-1
 64 448 l 1,6,-1
 64 384 l 1,7,-1
 0 384 l 1,8,-1
 0 448 l 1,9,-1
 0 448 l 1,5,-1
192 448 m 1,10,-1
 256 448 l 1,11,-1
 256 320 l 1,12,-1
 192 320 l 1,13,-1
 192 448 l 1,14,-1
 192 448 l 1,10,-1
128 320 m 1,15,-1
 192 320 l 1,16,-1
 192 256 l 1,17,-1
 128 256 l 1,18,-1
 128 320 l 1,19,-1
 128 320 l 1,15,-1
64 256 m 1,20,-1
 128 256 l 1,21,-1
 128 192 l 1,22,-1
 64 192 l 1,23,-1
 64 256 l 1,24,-1
 64 256 l 1,20,-1
0 192 m 1,25,-1
 64 192 l 1,26,-1
 64 128 l 1,27,-1
 256 128 l 1,28,-1
 256 64 l 1,29,-1
 0 64 l 1,30,-1
 0 192 l 1,31,-1
 0 192 l 1,25,-1
EndSplineSet
EndChar

StartChar: three
Encoding: 51 51 20
Width: 319
Flags: W
LayerCount: 2
Fore
SplineSet
64 512 m 1,0,-1
 192 512 l 1,1,-1
 192 448 l 1,2,-1
 64 448 l 1,3,-1
 64 512 l 1,4,-1
 64 512 l 1,0,-1
0 448 m 1,5,-1
 64 448 l 1,6,-1
 64 384 l 1,7,-1
 0 384 l 1,8,-1
 0 448 l 1,9,-1
 0 448 l 1,5,-1
192 448 m 1,10,-1
 256 448 l 1,11,-1
 256 320 l 1,12,-1
 192 320 l 1,13,-1
 192 448 l 1,14,-1
 192 448 l 1,10,-1
64 320 m 1,15,-1
 192 320 l 1,16,-1
 192 256 l 1,17,-1
 64 256 l 1,18,-1
 64 320 l 1,19,-1
 64 320 l 1,15,-1
192 256 m 1,20,-1
 256 256 l 1,21,-1
 256 128 l 1,22,-1
 192 128 l 1,23,-1
 192 256 l 1,24,-1
 192 256 l 1,20,-1
0 192 m 1,25,-1
 64 192 l 1,26,-1
 64 128 l 1,27,-1
 0 128 l 1,28,-1
 0 192 l 1,29,-1
 0 192 l 1,25,-1
64 128 m 1,30,-1
 192 128 l 1,31,-1
 192 64 l 1,32,-1
 64 64 l 1,33,-1
 64 128 l 1,34,-1
 64 128 l 1,30,-1
EndSplineSet
EndChar

StartChar: four
Encoding: 52 52 21
Width: 319
Flags: W
LayerCount: 2
Fore
SplineSet
64 512 m 1,0,-1
 192 512 l 1,1,-1
 192 192 l 1,2,-1
 256 192 l 1,3,-1
 256 128 l 1,4,-1
 192 128 l 1,5,-1
 192 64 l 1,6,-1
 128 64 l 1,7,-1
 128 128 l 1,8,-1
 0 128 l 1,9,-1
 0 448 l 1,10,-1
 64 448 l 1,11,-1
 64 192 l 1,12,-1
 128 192 l 1,13,-1
 128 448 l 1,14,-1
 64 448 l 1,15,-1
 64 512 l 1,16,-1
 64 512 l 1,0,-1
EndSplineSet
EndChar

StartChar: five
Encoding: 53 53 22
Width: 319
Flags: W
LayerCount: 2
Fore
SplineSet
0 512 m 1,0,-1
 256 512 l 1,1,-1
 256 448 l 1,2,-1
 64 448 l 1,3,-1
 64 320 l 1,4,-1
 192 320 l 1,5,-1
 192 256 l 1,6,-1
 0 256 l 1,7,-1
 0 512 l 1,8,-1
 0 512 l 1,0,-1
192 256 m 1,9,-1
 256 256 l 1,10,-1
 256 128 l 1,11,-1
 192 128 l 1,12,-1
 192 256 l 1,13,-1
 192 256 l 1,9,-1
0 192 m 1,14,-1
 64 192 l 1,15,-1
 64 128 l 1,16,-1
 0 128 l 1,17,-1
 0 192 l 1,18,-1
 0 192 l 1,14,-1
64 128 m 1,19,-1
 192 128 l 1,20,-1
 192 64 l 1,21,-1
 64 64 l 1,22,-1
 64 128 l 1,23,-1
 64 128 l 1,19,-1
EndSplineSet
EndChar

StartChar: six
Encoding: 54 54 23
Width: 319
Flags: W
LayerCount: 2
Fore
SplineSet
64 512 m 1,0,-1
 192 512 l 1,1,-1
 192 448 l 1,2,-1
 64 448 l 1,3,-1
 64 512 l 1,4,-1
 64 512 l 1,0,-1
0 448 m 1,5,-1
 64 448 l 1,6,-1
 64 320 l 1,7,-1
 192 320 l 1,8,-1
 192 256 l 1,9,-1
 64 256 l 1,10,-1
 64 128 l 1,11,-1
 0 128 l 1,12,-1
 0 448 l 1,13,-1
 0 448 l 1,5,-1
192 448 m 1,14,-1
 256 448 l 1,15,-1
 256 384 l 1,16,-1
 192 384 l 1,17,-1
 192 448 l 1,18,-1
 192 448 l 1,14,-1
192 256 m 1,19,-1
 256 256 l 1,20,-1
 256 128 l 1,21,-1
 192 128 l 1,22,-1
 192 256 l 1,23,-1
 192 256 l 1,19,-1
64 128 m 1,24,-1
 192 128 l 1,25,-1
 192 64 l 1,26,-1
 64 64 l 1,27,-1
 64 128 l 1,28,-1
 64 128 l 1,24,-1
EndSplineSet
EndChar

StartChar: seven
Encoding: 55 55 24
Width: 319
Flags: W
LayerCount: 2
Fore
SplineSet
0 512 m 1,0,-1
 256 512 l 1,1,-1
 256 320 l 1,2,-1
 192 320 l 1,3,-1
 192 448 l 1,4,-1
 0 448 l 1,5,-1
 0 512 l 1,6,-1
 0 512 l 1,0,-1
128 320 m 1,7,-1
 192 320 l 1,8,-1
 192 192 l 1,9,-1
 128 192 l 1,10,-1
 128 320 l 1,11,-1
 128 320 l 1,7,-1
64 192 m 1,12,-1
 128 192 l 1,13,-1
 128 64 l 1,14,-1
 64 64 l 1,15,-1
 64 192 l 1,16,-1
 64 192 l 1,12,-1
EndSplineSet
EndChar

StartChar: eight
Encoding: 56 56 25
Width: 319
Flags: W
LayerCount: 2
Fore
SplineSet
64 512 m 1,0,-1
 192 512 l 1,1,-1
 192 448 l 1,2,-1
 64 448 l 1,3,-1
 64 512 l 1,4,-1
 64 512 l 1,0,-1
0 448 m 1,5,-1
 64 448 l 1,6,-1
 64 320 l 1,7,-1
 0 320 l 1,8,-1
 0 448 l 1,9,-1
 0 448 l 1,5,-1
192 448 m 1,10,-1
 256 448 l 1,11,-1
 256 320 l 1,12,-1
 192 320 l 1,13,-1
 192 448 l 1,14,-1
 192 448 l 1,10,-1
64 320 m 1,15,-1
 192 320 l 1,16,-1
 192 256 l 1,17,-1
 64 256 l 1,18,-1
 64 320 l 1,19,-1
 64 320 l 1,15,-1
0 256 m 1,20,-1
 64 256 l 1,21,-1
 64 128 l 1,22,-1
 0 128 l 1,23,-1
 0 256 l 1,24,-1
 0 256 l 1,20,-1
192 256 m 1,25,-1
 256 256 l 1,26,-1
 256 128 l 1,27,-1
 192 128 l 1,28,-1
 192 256 l 1,29,-1
 192 256 l 1,25,-1
64 128 m 1,30,-1
 192 128 l 1,31,-1
 192 64 l 1,32,-1
 64 64 l 1,33,-1
 64 128 l 1,34,-1
 64 128 l 1,30,-1
EndSplineSet
EndChar

StartChar: nine
Encoding: 57 57 26
Width: 319
Flags: W
LayerCount: 2
Fore
SplineSet
64 512 m 1,0,-1
 192 512 l 1,1,-1
 192 448 l 1,2,-1
 64 448 l 1,3,-1
 64 512 l 1,4,-1
 64 512 l 1,0,-1
0 448 m 1,5,-1
 64 448 l 1,6,-1
 64 320 l 1,7,-1
 0 320 l 1,8,-1
 0 448 l 1,9,-1
 0 448 l 1,5,-1
192 448 m 1,10,-1
 256 448 l 1,11,-1
 256 128 l 1,12,-1
 192 128 l 1,13,-1
 192 256 l 1,14,-1
 64 256 l 1,15,-1
 64 320 l 1,16,-1
 192 320 l 1,17,-1
 192 448 l 1,18,-1
 192 448 l 1,10,-1
0 192 m 1,19,-1
 64 192 l 1,20,-1
 64 128 l 1,21,-1
 0 128 l 1,22,-1
 0 192 l 1,23,-1
 0 192 l 1,19,-1
64 128 m 1,24,-1
 192 128 l 1,25,-1
 192 64 l 1,26,-1
 64 64 l 1,27,-1
 64 128 l 1,28,-1
 64 128 l 1,24,-1
EndSplineSet
EndChar

StartChar: colon
Encoding: 58 58 27
Width: 191
Flags: W
LayerCount: 2
Fore
SplineSet
0 448 m 1,0,-1
 128 448 l 1,1,-1
 128 320 l 1,2,-1
 0 320 l 1,3,-1
 0 448 l 1,4,-1
 0 448 l 1,0,-1
0 192 m 1,5,-1
 128 192 l 1,6,-1
 128 64 l 1,7,-1
 0 64 l 1,8,-1
 0 192 l 1,9,-1
 0 192 l 1,5,-1
EndSplineSet
EndChar

StartChar: semicolon
Encoding: 59 59 28
Width: 191
Flags: W
LayerCount: 2
Fore
SplineSet
0 448 m 1,0,-1
 128 448 l 1,1,-1
 128 320 l 1,2,-1
 0 320 l 1,3,-1
 0 448 l 1,4,-1
 0 448 l 1,0,-1
0 192 m 1,5,-1
 128 192 l 1,6,-1
 128 0 l 1,7,-1
 64 0 l 1,8,-1
 64 64 l 1,9,-1
 0 64 l 1,10,-1
 0 192 l 1,11,-1
 0 192 l 1,5,-1
EndSplineSet
EndChar

StartChar: less
Encoding: 60 60 29
Width: 319
Flags: W
LayerCount: 2
Fore
SplineSet
192 512 m 1,0,-1
 256 512 l 1,1,-1
 256 448 l 1,2,-1
 192 448 l 1,3,-1
 192 512 l 1,4,-1
 192 512 l 1,0,-1
128 448 m 1,5,-1
 192 448 l 1,6,-1
 192 384 l 1,7,-1
 128 384 l 1,8,-1
 128 448 l 1,9,-1
 128 448 l 1,5,-1
64 384 m 1,10,-1
 128 384 l 1,11,-1
 128 320 l 1,12,-1
 64 320 l 1,13,-1
 64 384 l 1,14,-1
 64 384 l 1,10,-1
0 320 m 1,15,-1
 64 320 l 1,16,-1
 64 256 l 1,17,-1
 0 256 l 1,18,-1
 0 320 l 1,19,-1
 0 320 l 1,15,-1
64 256 m 1,20,-1
 128 256 l 1,21,-1
 128 192 l 1,22,-1
 64 192 l 1,23,-1
 64 256 l 1,24,-1
 64 256 l 1,20,-1
128 192 m 1,25,-1
 192 192 l 1,26,-1
 192 128 l 1,27,-1
 128 128 l 1,28,-1
 128 192 l 1,29,-1
 128 192 l 1,25,-1
192 128 m 1,30,-1
 256 128 l 1,31,-1
 256 64 l 1,32,-1
 192 64 l 1,33,-1
 192 128 l 1,34,-1
 192 128 l 1,30,-1
EndSplineSet
EndChar

StartChar: equal
Encoding: 61 61 30
Width: 383
Flags: W
LayerCount: 2
Fore
SplineSet
0 384 m 1,0,-1
 320 384 l 1,1,-1
 320 320 l 1,2,-1
 0 320 l 1,3,-1
 0 384 l 1,4,-1
 0 384 l 1,0,-1
0 256 m 1,5,-1
 320 256 l 1,6,-1
 320 192 l 1,7,-1
 0 192 l 1,8,-1
 0 256 l 1,9,-1
 0 256 l 1,5,-1
EndSplineSet
EndChar

StartChar: greater
Encoding: 62 62 31
Width: 319
Flags: W
LayerCount: 2
Fore
SplineSet
0 512 m 1,0,-1
 64 512 l 1,1,-1
 64 448 l 1,2,-1
 0 448 l 1,3,-1
 0 512 l 1,4,-1
 0 512 l 1,0,-1
64 448 m 1,5,-1
 128 448 l 1,6,-1
 128 384 l 1,7,-1
 64 384 l 1,8,-1
 64 448 l 1,9,-1
 64 448 l 1,5,-1
128 384 m 1,10,-1
 192 384 l 1,11,-1
 192 320 l 1,12,-1
 128 320 l 1,13,-1
 128 384 l 1,14,-1
 128 384 l 1,10,-1
192 320 m 1,15,-1
 256 320 l 1,16,-1
 256 256 l 1,17,-1
 192 256 l 1,18,-1
 192 320 l 1,19,-1
 192 320 l 1,15,-1
128 256 m 1,20,-1
 192 256 l 1,21,-1
 192 192 l 1,22,-1
 128 192 l 1,23,-1
 128 256 l 1,24,-1
 128 256 l 1,20,-1
64 192 m 1,25,-1
 128 192 l 1,26,-1
 128 128 l 1,27,-1
 64 128 l 1,28,-1
 64 192 l 1,29,-1
 64 192 l 1,25,-1
0 128 m 1,30,-1
 64 128 l 1,31,-1
 64 64 l 1,32,-1
 0 64 l 1,33,-1
 0 128 l 1,34,-1
 0 128 l 1,30,-1
EndSplineSet
EndChar

StartChar: question
Encoding: 63 63 32
Width: 319
Flags: W
LayerCount: 2
Fore
SplineSet
64 512 m 1,0,-1
 192 512 l 1,1,-1
 192 448 l 1,2,-1
 64 448 l 1,3,-1
 64 512 l 1,4,-1
 64 512 l 1,0,-1
0 448 m 1,5,-1
 64 448 l 1,6,-1
 64 384 l 1,7,-1
 0 384 l 1,8,-1
 0 448 l 1,9,-1
 0 448 l 1,5,-1
192 448 m 1,10,-1
 256 448 l 1,11,-1
 256 320 l 1,12,-1
 192 320 l 1,13,-1
 192 448 l 1,14,-1
 192 448 l 1,10,-1
128 320 m 1,15,-1
 192 320 l 1,16,-1
 192 192 l 1,17,-1
 128 192 l 1,18,-1
 128 320 l 1,19,-1
 128 320 l 1,15,-1
128 128 m 1,20,-1
 192 128 l 1,21,-1
 192 64 l 1,22,-1
 128 64 l 1,23,-1
 128 128 l 1,24,-1
 128 128 l 1,20,-1
EndSplineSet
EndChar

StartChar: at
Encoding: 64 64 33
Width: 447
Flags: W
LayerCount: 2
Fore
SplineSet
64 512 m 1,0,-1
 320 512 l 1,1,-1
 320 448 l 1,2,-1
 64 448 l 1,3,-1
 64 512 l 1,4,-1
 64 512 l 1,0,-1
0 448 m 1,5,-1
 64 448 l 1,6,-1
 64 320 l 1,7,-1
 128 320 l 1,8,-1
 128 256 l 1,9,-1
 192 256 l 1,10,-1
 192 192 l 1,11,-1
 64 192 l 1,12,-1
 64 128 l 1,13,-1
 0 128 l 1,14,-1
 0 448 l 1,15,-1
 0 448 l 1,5,-1
320 448 m 1,16,-1
 384 448 l 1,17,-1
 384 256 l 1,18,-1
 320 256 l 1,19,-1
 320 448 l 1,20,-1
 320 448 l 1,16,-1
128 384 m 1,21,-1
 256 384 l 1,22,-1
 256 256 l 1,23,-1
 192 256 l 1,24,-1
 192 320 l 1,25,-1
 128 320 l 1,26,-1
 128 384 l 1,27,-1
 128 384 l 1,21,-1
256 256 m 1,28,-1
 320 256 l 1,29,-1
 320 192 l 1,30,-1
 256 192 l 1,31,-1
 256 256 l 1,32,-1
 256 256 l 1,28,-1
64 128 m 1,33,-1
 384 128 l 1,34,-1
 384 64 l 1,35,-1
 64 64 l 1,36,-1
 64 128 l 1,37,-1
 64 128 l 1,33,-1
EndSplineSet
EndChar

StartChar: A
Encoding: 65 65 34
Width: 319
Flags: W
LayerCount: 2
Fore
SplineSet
64 512 m 1,0,-1
 192 512 l 1,1,-1
 192 448 l 1,2,-1
 64 448 l 1,3,-1
 64 512 l 1,4,-1
 64 512 l 1,0,-1
0 448 m 1,5,-1
 64 448 l 1,6,-1
 64 320 l 1,7,-1
 192 320 l 1,8,-1
 192 448 l 1,9,-1
 256 448 l 1,10,-1
 256 64 l 1,11,-1
 192 64 l 1,12,-1
 192 256 l 1,13,-1
 64 256 l 1,14,-1
 64 64 l 1,15,-1
 0 64 l 1,16,-1
 0 448 l 1,17,-1
 0 448 l 1,5,-1
EndSplineSet
EndChar

StartChar: B
Encoding: 66 66 35
Width: 319
Flags: W
LayerCount: 2
Fore
SplineSet
0 512 m 1,0,-1
 192 512 l 1,1,-1
 192 448 l 1,2,-1
 64 448 l 1,3,-1
 64 320 l 1,4,-1
 192 320 l 1,5,-1
 192 256 l 1,6,-1
 64 256 l 1,7,-1
 64 128 l 1,8,-1
 192 128 l 1,9,-1
 192 64 l 1,10,-1
 0 64 l 1,11,-1
 0 512 l 1,12,-1
 0 512 l 1,0,-1
192 448 m 1,13,-1
 256 448 l 1,14,-1
 256 320 l 1,15,-1
 192 320 l 1,16,-1
 192 448 l 1,17,-1
 192 448 l 1,13,-1
192 256 m 1,18,-1
 256 256 l 1,19,-1
 256 128 l 1,20,-1
 192 128 l 1,21,-1
 192 256 l 1,22,-1
 192 256 l 1,18,-1
EndSplineSet
EndChar

StartChar: C
Encoding: 67 67 36
Width: 319
Flags: W
LayerCount: 2
Fore
SplineSet
64 512 m 1,0,-1
 192 512 l 1,1,-1
 192 448 l 1,2,-1
 64 448 l 1,3,-1
 64 512 l 1,4,-1
 64 512 l 1,0,-1
0 448 m 1,5,-1
 64 448 l 1,6,-1
 64 128 l 1,7,-1
 0 128 l 1,8,-1
 0 448 l 1,9,-1
 0 448 l 1,5,-1
192 448 m 1,10,-1
 256 448 l 1,11,-1
 256 384 l 1,12,-1
 192 384 l 1,13,-1
 192 448 l 1,14,-1
 192 448 l 1,10,-1
192 192 m 1,15,-1
 256 192 l 1,16,-1
 256 128 l 1,17,-1
 192 128 l 1,18,-1
 192 192 l 1,19,-1
 192 192 l 1,15,-1
64 128 m 1,20,-1
 192 128 l 1,21,-1
 192 64 l 1,22,-1
 64 64 l 1,23,-1
 64 128 l 1,24,-1
 64 128 l 1,20,-1
EndSplineSet
EndChar

StartChar: D
Encoding: 68 68 37
Width: 319
Flags: W
LayerCount: 2
Fore
SplineSet
0 512 m 1,0,-1
 192 512 l 1,1,-1
 192 448 l 1,2,-1
 64 448 l 1,3,-1
 64 128 l 1,4,-1
 192 128 l 1,5,-1
 192 64 l 1,6,-1
 0 64 l 1,7,-1
 0 512 l 1,8,-1
 0 512 l 1,0,-1
192 448 m 1,9,-1
 256 448 l 1,10,-1
 256 128 l 1,11,-1
 192 128 l 1,12,-1
 192 448 l 1,13,-1
 192 448 l 1,9,-1
EndSplineSet
EndChar

StartChar: E
Encoding: 69 69 38
Width: 319
Flags: W
LayerCount: 2
Fore
SplineSet
0 512 m 1,0,-1
 256 512 l 1,1,-1
 256 448 l 1,2,-1
 64 448 l 1,3,-1
 64 320 l 1,4,-1
 192 320 l 1,5,-1
 192 256 l 1,6,-1
 64 256 l 1,7,-1
 64 128 l 1,8,-1
 256 128 l 1,9,-1
 256 64 l 1,10,-1
 0 64 l 1,11,-1
 0 512 l 1,12,-1
 0 512 l 1,0,-1
EndSplineSet
EndChar

StartChar: F
Encoding: 70 70 39
Width: 319
Flags: W
LayerCount: 2
Fore
SplineSet
0 512 m 1,0,-1
 256 512 l 1,1,-1
 256 448 l 1,2,-1
 64 448 l 1,3,-1
 64 320 l 1,4,-1
 192 320 l 1,5,-1
 192 256 l 1,6,-1
 64 256 l 1,7,-1
 64 64 l 1,8,-1
 0 64 l 1,9,-1
 0 512 l 1,10,-1
 0 512 l 1,0,-1
EndSplineSet
EndChar

StartChar: G
Encoding: 71 71 40
Width: 319
Flags: W
LayerCount: 2
Fore
SplineSet
64 512 m 1,0,-1
 192 512 l 1,1,-1
 192 448 l 1,2,-1
 64 448 l 1,3,-1
 64 512 l 1,4,-1
 64 512 l 1,0,-1
0 448 m 1,5,-1
 64 448 l 1,6,-1
 64 128 l 1,7,-1
 0 128 l 1,8,-1
 0 448 l 1,9,-1
 0 448 l 1,5,-1
192 448 m 1,10,-1
 256 448 l 1,11,-1
 256 384 l 1,12,-1
 192 384 l 1,13,-1
 192 448 l 1,14,-1
 192 448 l 1,10,-1
128 320 m 1,15,-1
 256 320 l 1,16,-1
 256 128 l 1,17,-1
 192 128 l 1,18,-1
 192 256 l 1,19,-1
 128 256 l 1,20,-1
 128 320 l 1,21,-1
 128 320 l 1,15,-1
64 128 m 1,22,-1
 192 128 l 1,23,-1
 192 64 l 1,24,-1
 64 64 l 1,25,-1
 64 128 l 1,26,-1
 64 128 l 1,22,-1
EndSplineSet
EndChar

StartChar: H
Encoding: 72 72 41
Width: 319
Flags: W
LayerCount: 2
Fore
SplineSet
0 512 m 1,0,-1
 64 512 l 1,1,-1
 64 320 l 1,2,-1
 192 320 l 1,3,-1
 192 512 l 1,4,-1
 256 512 l 1,5,-1
 256 64 l 1,6,-1
 192 64 l 1,7,-1
 192 256 l 1,8,-1
 64 256 l 1,9,-1
 64 64 l 1,10,-1
 0 64 l 1,11,-1
 0 512 l 1,12,-1
 0 512 l 1,0,-1
EndSplineSet
EndChar

StartChar: I
Encoding: 73 73 42
Width: 255
Flags: W
LayerCount: 2
Fore
SplineSet
0 512 m 1,0,-1
 192 512 l 1,1,-1
 192 448 l 1,2,-1
 128 448 l 1,3,-1
 128 128 l 1,4,-1
 192 128 l 1,5,-1
 192 64 l 1,6,-1
 0 64 l 1,7,-1
 0 128 l 1,8,-1
 64 128 l 1,9,-1
 64 448 l 1,10,-1
 0 448 l 1,11,-1
 0 512 l 1,12,-1
 0 512 l 1,0,-1
EndSplineSet
EndChar

StartChar: J
Encoding: 74 74 43
Width: 319
Flags: W
LayerCount: 2
Fore
SplineSet
192 512 m 1,0,-1
 256 512 l 1,1,-1
 256 128 l 1,2,-1
 192 128 l 1,3,-1
 192 512 l 1,4,-1
 192 512 l 1,0,-1
0 256 m 1,5,-1
 64 256 l 1,6,-1
 64 128 l 1,7,-1
 0 128 l 1,8,-1
 0 256 l 1,9,-1
 0 256 l 1,5,-1
64 128 m 1,10,-1
 192 128 l 1,11,-1
 192 64 l 1,12,-1
 64 64 l 1,13,-1
 64 128 l 1,14,-1
 64 128 l 1,10,-1
EndSplineSet
EndChar

StartChar: K
Encoding: 75 75 44
Width: 319
Flags: W
LayerCount: 2
Fore
SplineSet
0 512 m 1,0,-1
 64 512 l 1,1,-1
 64 320 l 1,2,-1
 128 320 l 1,3,-1
 128 256 l 1,4,-1
 64 256 l 1,5,-1
 64 64 l 1,6,-1
 0 64 l 1,7,-1
 0 512 l 1,8,-1
 0 512 l 1,0,-1
192 512 m 1,9,-1
 256 512 l 1,10,-1
 256 384 l 1,11,-1
 192 384 l 1,12,-1
 192 512 l 1,13,-1
 192 512 l 1,9,-1
128 384 m 1,14,-1
 192 384 l 1,15,-1
 192 320 l 1,16,-1
 128 320 l 1,17,-1
 128 384 l 1,18,-1
 128 384 l 1,14,-1
128 256 m 1,19,-1
 192 256 l 1,20,-1
 192 192 l 1,21,-1
 128 192 l 1,22,-1
 128 256 l 1,23,-1
 128 256 l 1,19,-1
192 192 m 1,24,-1
 256 192 l 1,25,-1
 256 64 l 1,26,-1
 192 64 l 1,27,-1
 192 192 l 1,28,-1
 192 192 l 1,24,-1
EndSplineSet
EndChar

StartChar: L
Encoding: 76 76 45
Width: 319
Flags: W
LayerCount: 2
Fore
SplineSet
0 512 m 1,0,-1
 64 512 l 1,1,-1
 64 128 l 1,2,-1
 256 128 l 1,3,-1
 256 64 l 1,4,-1
 0 64 l 1,5,-1
 0 512 l 1,6,-1
 0 512 l 1,0,-1
EndSplineSet
EndChar

StartChar: M
Encoding: 77 77 46
Width: 319
Flags: W
LayerCount: 2
Fore
SplineSet
0 512 m 1,0,-1
 64 512 l 1,1,-1
 64 448 l 1,2,-1
 192 448 l 1,3,-1
 192 512 l 1,4,-1
 256 512 l 1,5,-1
 256 64 l 1,6,-1
 192 64 l 1,7,-1
 192 384 l 1,8,-1
 64 384 l 1,9,-1
 64 64 l 1,10,-1
 0 64 l 1,11,-1
 0 512 l 1,12,-1
 0 512 l 1,0,-1
EndSplineSet
EndChar

StartChar: N
Encoding: 78 78 47
Width: 319
Flags: W
LayerCount: 2
Fore
SplineSet
0 512 m 1,0,-1
 64 512 l 1,1,-1
 64 448 l 1,2,-1
 128 448 l 1,3,-1
 128 320 l 1,4,-1
 64 320 l 1,5,-1
 64 64 l 1,6,-1
 0 64 l 1,7,-1
 0 512 l 1,8,-1
 0 512 l 1,0,-1
192 512 m 1,9,-1
 256 512 l 1,10,-1
 256 64 l 1,11,-1
 192 64 l 1,12,-1
 192 192 l 1,13,-1
 128 192 l 1,14,-1
 128 320 l 1,15,-1
 192 320 l 1,16,-1
 192 512 l 1,17,-1
 192 512 l 1,9,-1
EndSplineSet
EndChar

StartChar: O
Encoding: 79 79 48
Width: 319
Flags: W
LayerCount: 2
Fore
SplineSet
64 512 m 1,0,-1
 192 512 l 1,1,-1
 192 448 l 1,2,-1
 64 448 l 1,3,-1
 64 512 l 1,4,-1
 64 512 l 1,0,-1
0 448 m 1,5,-1
 64 448 l 1,6,-1
 64 128 l 1,7,-1
 0 128 l 1,8,-1
 0 448 l 1,9,-1
 0 448 l 1,5,-1
192 448 m 1,10,-1
 256 448 l 1,11,-1
 256 128 l 1,12,-1
 192 128 l 1,13,-1
 192 448 l 1,14,-1
 192 448 l 1,10,-1
64 128 m 1,15,-1
 192 128 l 1,16,-1
 192 64 l 1,17,-1
 64 64 l 1,18,-1
 64 128 l 1,19,-1
 64 128 l 1,15,-1
EndSplineSet
EndChar

StartChar: P
Encoding: 80 80 49
Width: 319
Flags: W
LayerCount: 2
Fore
SplineSet
0 512 m 1,0,-1
 192 512 l 1,1,-1
 192 448 l 1,2,-1
 64 448 l 1,3,-1
 64 320 l 1,4,-1
 192 320 l 1,5,-1
 192 256 l 1,6,-1
 64 256 l 1,7,-1
 64 64 l 1,8,-1
 0 64 l 1,9,-1
 0 512 l 1,10,-1
 0 512 l 1,0,-1
192 448 m 1,11,-1
 256 448 l 1,12,-1
 256 320 l 1,13,-1
 192 320 l 1,14,-1
 192 448 l 1,15,-1
 192 448 l 1,11,-1
EndSplineSet
EndChar

StartChar: Q
Encoding: 81 81 50
Width: 319
Flags: W
LayerCount: 2
Fore
SplineSet
64 512 m 1,0,-1
 192 512 l 1,1,-1
 192 448 l 1,2,-1
 64 448 l 1,3,-1
 64 512 l 1,4,-1
 64 512 l 1,0,-1
0 448 m 1,5,-1
 64 448 l 1,6,-1
 64 128 l 1,7,-1
 0 128 l 1,8,-1
 0 448 l 1,9,-1
 0 448 l 1,5,-1
192 448 m 1,10,-1
 256 448 l 1,11,-1
 256 128 l 1,12,-1
 192 128 l 1,13,-1
 192 64 l 1,14,-1
 64 64 l 1,15,-1
 64 128 l 1,16,-1
 128 128 l 1,17,-1
 128 192 l 1,18,-1
 192 192 l 1,19,-1
 192 448 l 1,20,-1
 192 448 l 1,10,-1
192 64 m 1,21,-1
 256 64 l 1,22,-1
 256 0 l 1,23,-1
 192 0 l 1,24,-1
 192 64 l 1,25,-1
 192 64 l 1,21,-1
EndSplineSet
EndChar

StartChar: R
Encoding: 82 82 51
Width: 319
Flags: W
LayerCount: 2
Fore
SplineSet
0 512 m 1,0,-1
 192 512 l 1,1,-1
 192 448 l 1,2,-1
 64 448 l 1,3,-1
 64 320 l 1,4,-1
 192 320 l 1,5,-1
 192 256 l 1,6,-1
 64 256 l 1,7,-1
 64 64 l 1,8,-1
 0 64 l 1,9,-1
 0 512 l 1,10,-1
 0 512 l 1,0,-1
192 448 m 1,11,-1
 256 448 l 1,12,-1
 256 320 l 1,13,-1
 192 320 l 1,14,-1
 192 448 l 1,15,-1
 192 448 l 1,11,-1
192 256 m 1,16,-1
 256 256 l 1,17,-1
 256 64 l 1,18,-1
 192 64 l 1,19,-1
 192 256 l 1,20,-1
 192 256 l 1,16,-1
EndSplineSet
EndChar

StartChar: S
Encoding: 83 83 52
Width: 319
Flags: W
LayerCount: 2
Fore
SplineSet
64 512 m 1,0,-1
 192 512 l 1,1,-1
 192 448 l 1,2,-1
 64 448 l 1,3,-1
 64 512 l 1,4,-1
 64 512 l 1,0,-1
0 448 m 1,5,-1
 64 448 l 1,6,-1
 64 320 l 1,7,-1
 0 320 l 1,8,-1
 0 448 l 1,9,-1
 0 448 l 1,5,-1
192 448 m 1,10,-1
 256 448 l 1,11,-1
 256 384 l 1,12,-1
 192 384 l 1,13,-1
 192 448 l 1,14,-1
 192 448 l 1,10,-1
64 320 m 1,15,-1
 192 320 l 1,16,-1
 192 256 l 1,17,-1
 64 256 l 1,18,-1
 64 320 l 1,19,-1
 64 320 l 1,15,-1
192 256 m 1,20,-1
 256 256 l 1,21,-1
 256 128 l 1,22,-1
 192 128 l 1,23,-1
 192 256 l 1,24,-1
 192 256 l 1,20,-1
0 192 m 1,25,-1
 64 192 l 1,26,-1
 64 128 l 1,27,-1
 0 128 l 1,28,-1
 0 192 l 1,29,-1
 0 192 l 1,25,-1
64 128 m 1,30,-1
 192 128 l 1,31,-1
 192 64 l 1,32,-1
 64 64 l 1,33,-1
 64 128 l 1,34,-1
 64 128 l 1,30,-1
EndSplineSet
EndChar

StartChar: T
Encoding: 84 84 53
Width: 255
Flags: W
LayerCount: 2
Fore
SplineSet
0 512 m 1,0,-1
 192 512 l 1,1,-1
 192 448 l 1,2,-1
 128 448 l 1,3,-1
 128 64 l 1,4,-1
 64 64 l 1,5,-1
 64 448 l 1,6,-1
 0 448 l 1,7,-1
 0 512 l 1,8,-1
 0 512 l 1,0,-1
EndSplineSet
EndChar

StartChar: U
Encoding: 85 85 54
Width: 319
Flags: W
LayerCount: 2
Fore
SplineSet
0 512 m 1,0,-1
 64 512 l 1,1,-1
 64 128 l 1,2,-1
 0 128 l 1,3,-1
 0 512 l 1,4,-1
 0 512 l 1,0,-1
192 512 m 1,5,-1
 256 512 l 1,6,-1
 256 128 l 1,7,-1
 192 128 l 1,8,-1
 192 512 l 1,9,-1
 192 512 l 1,5,-1
64 128 m 1,10,-1
 192 128 l 1,11,-1
 192 64 l 1,12,-1
 64 64 l 1,13,-1
 64 128 l 1,14,-1
 64 128 l 1,10,-1
EndSplineSet
EndChar

StartChar: V
Encoding: 86 86 55
Width: 319
Flags: W
LayerCount: 2
Fore
SplineSet
0 512 m 1,0,-1
 64 512 l 1,1,-1
 64 128 l 1,2,-1
 0 128 l 1,3,-1
 0 512 l 1,4,-1
 0 512 l 1,0,-1
192 512 m 1,5,-1
 256 512 l 1,6,-1
 256 192 l 1,7,-1
 192 192 l 1,8,-1
 192 512 l 1,9,-1
 192 512 l 1,5,-1
128 192 m 1,10,-1
 192 192 l 1,11,-1
 192 128 l 1,12,-1
 128 128 l 1,13,-1
 128 192 l 1,14,-1
 128 192 l 1,10,-1
64 128 m 1,15,-1
 128 128 l 1,16,-1
 128 64 l 1,17,-1
 64 64 l 1,18,-1
 64 128 l 1,19,-1
 64 128 l 1,15,-1
EndSplineSet
EndChar

StartChar: W
Encoding: 87 87 56
Width: 319
Flags: W
LayerCount: 2
Fore
SplineSet
0 512 m 1,0,-1
 64 512 l 1,1,-1
 64 192 l 1,2,-1
 192 192 l 1,3,-1
 192 512 l 1,4,-1
 256 512 l 1,5,-1
 256 64 l 1,6,-1
 192 64 l 1,7,-1
 192 128 l 1,8,-1
 64 128 l 1,9,-1
 64 64 l 1,10,-1
 0 64 l 1,11,-1
 0 512 l 1,12,-1
 0 512 l 1,0,-1
EndSplineSet
EndChar

StartChar: X
Encoding: 88 88 57
Width: 319
Flags: W
LayerCount: 2
Fore
SplineSet
0 512 m 1,0,-1
 64 512 l 1,1,-1
 64 320 l 1,2,-1
 0 320 l 1,3,-1
 0 512 l 1,4,-1
 0 512 l 1,0,-1
192 512 m 1,5,-1
 256 512 l 1,6,-1
 256 320 l 1,7,-1
 192 320 l 1,8,-1
 192 512 l 1,9,-1
 192 512 l 1,5,-1
64 320 m 1,10,-1
 192 320 l 1,11,-1
 192 256 l 1,12,-1
 64 256 l 1,13,-1
 64 320 l 1,14,-1
 64 320 l 1,10,-1
0 256 m 1,15,-1
 64 256 l 1,16,-1
 64 64 l 1,17,-1
 0 64 l 1,18,-1
 0 256 l 1,19,-1
 0 256 l 1,15,-1
192 256 m 1,20,-1
 256 256 l 1,21,-1
 256 64 l 1,22,-1
 192 64 l 1,23,-1
 192 256 l 1,24,-1
 192 256 l 1,20,-1
EndSplineSet
EndChar

StartChar: Y
Encoding: 89 89 58
Width: 255
Flags: W
LayerCount: 2
Fore
SplineSet
0 512 m 1,0,-1
 64 512 l 1,1,-1
 64 256 l 1,2,-1
 0 256 l 1,3,-1
 0 512 l 1,4,-1
 0 512 l 1,0,-1
128 512 m 1,5,-1
 192 512 l 1,6,-1
 192 256 l 1,7,-1
 128 256 l 1,8,-1
 128 512 l 1,9,-1
 128 512 l 1,5,-1
64 256 m 1,10,-1
 128 256 l 1,11,-1
 128 64 l 1,12,-1
 64 64 l 1,13,-1
 64 256 l 1,14,-1
 64 256 l 1,10,-1
EndSplineSet
EndChar

StartChar: Z
Encoding: 90 90 59
Width: 319
Flags: W
LayerCount: 2
Fore
SplineSet
0 512 m 1,0,-1
 256 512 l 1,1,-1
 256 384 l 1,2,-1
 192 384 l 1,3,-1
 192 448 l 1,4,-1
 0 448 l 1,5,-1
 0 512 l 1,6,-1
 0 512 l 1,0,-1
128 384 m 1,7,-1
 192 384 l 1,8,-1
 192 256 l 1,9,-1
 128 256 l 1,10,-1
 128 384 l 1,11,-1
 128 384 l 1,7,-1
64 256 m 1,12,-1
 128 256 l 1,13,-1
 128 128 l 1,14,-1
 256 128 l 1,15,-1
 256 64 l 1,16,-1
 0 64 l 1,17,-1
 0 128 l 1,18,-1
 64 128 l 1,19,-1
 64 256 l 1,20,-1
 64 256 l 1,12,-1
EndSplineSet
EndChar

StartChar: bracketleft
Encoding: 91 91 60
Width: 191
Flags: W
LayerCount: 2
Fore
SplineSet
0 512 m 1,0,-1
 128 512 l 1,1,-1
 128 448 l 1,2,-1
 64 448 l 1,3,-1
 64 128 l 1,4,-1
 128 128 l 1,5,-1
 128 64 l 1,6,-1
 0 64 l 1,7,-1
 0 512 l 1,8,-1
 0 512 l 1,0,-1
EndSplineSet
EndChar

StartChar: backslash
Encoding: 92 92 61
Width: 319
Flags: W
LayerCount: 2
Fore
SplineSet
0 575 m 1,0,-1
 64 575 l 1,1,-1
 64 448 l 1,2,-1
 0 448 l 1,3,-1
 0 575 l 1,4,-1
 0 575 l 1,0,-1
64 448 m 1,5,-1
 128 448 l 1,6,-1
 128 320 l 1,7,-1
 64 320 l 1,8,-1
 64 448 l 1,9,-1
 64 448 l 1,5,-1
128 320 m 1,10,-1
 192 320 l 1,11,-1
 192 192 l 1,12,-1
 128 192 l 1,13,-1
 128 320 l 1,14,-1
 128 320 l 1,10,-1
192 192 m 1,15,-1
 256 192 l 1,16,-1
 256 64 l 1,17,-1
 192 64 l 1,18,-1
 192 192 l 1,19,-1
 192 192 l 1,15,-1
EndSplineSet
EndChar

StartChar: bracketright
Encoding: 93 93 62
Width: 191
Flags: W
LayerCount: 2
Fore
SplineSet
0 512 m 1,0,-1
 128 512 l 1,1,-1
 128 64 l 1,2,-1
 0 64 l 1,3,-1
 0 128 l 1,4,-1
 64 128 l 1,5,-1
 64 448 l 1,6,-1
 0 448 l 1,7,-1
 0 512 l 1,8,-1
 0 512 l 1,0,-1
EndSplineSet
EndChar

StartChar: asciicircum
Encoding: 94 94 63
Width: 255
Flags: W
LayerCount: 2
Fore
SplineSet
64 512 m 1,0,-1
 128 512 l 1,1,-1
 128 448 l 1,2,-1
 64 448 l 1,3,-1
 64 512 l 1,4,-1
 64 512 l 1,0,-1
0 448 m 1,5,-1
 64 448 l 1,6,-1
 64 384 l 1,7,-1
 0 384 l 1,8,-1
 0 448 l 1,9,-1
 0 448 l 1,5,-1
128 448 m 1,10,-1
 192 448 l 1,11,-1
 192 384 l 1,12,-1
 128 384 l 1,13,-1
 128 448 l 1,14,-1
 128 448 l 1,10,-1
EndSplineSet
EndChar

StartChar: underscore
Encoding: 95 95 64
Width: 319
Flags: W
LayerCount: 2
Fore
SplineSet
0 128 m 1,0,-1
 256 128 l 1,1,-1
 256 64 l 1,2,-1
 0 64 l 1,3,-1
 0 128 l 1,4,-1
 0 128 l 1,0,-1
EndSplineSet
EndChar

StartChar: grave
Encoding: 96 96 65
Width: 191
Flags: W
LayerCount: 2
Fore
SplineSet
0 512 m 1,0,-1
 64 512 l 1,1,-1
 64 448 l 1,2,-1
 0 448 l 1,3,-1
 0 512 l 1,4,-1
 0 512 l 1,0,-1
64 448 m 1,5,-1
 128 448 l 1,6,-1
 128 384 l 1,7,-1
 64 384 l 1,8,-1
 64 448 l 1,9,-1
 64 448 l 1,5,-1
EndSplineSet
EndChar

StartChar: a
Encoding: 97 97 66
Width: 319
Flags: W
LayerCount: 2
Fore
SplineSet
64 384 m 1,0,-1
 256 384 l 1,1,-1
 256 64 l 1,2,-1
 192 64 l 1,3,-1
 192 128 l 1,4,-1
 128 128 l 1,5,-1
 128 192 l 1,6,-1
 192 192 l 1,7,-1
 192 320 l 1,8,-1
 64 320 l 1,9,-1
 64 384 l 1,10,-1
 64 384 l 1,0,-1
0 320 m 1,11,-1
 64 320 l 1,12,-1
 64 128 l 1,13,-1
 0 128 l 1,14,-1
 0 320 l 1,15,-1
 0 320 l 1,11,-1
64 128 m 1,16,-1
 128 128 l 1,17,-1
 128 64 l 1,18,-1
 64 64 l 1,19,-1
 64 128 l 1,20,-1
 64 128 l 1,16,-1
EndSplineSet
EndChar

StartChar: b
Encoding: 98 98 67
Width: 319
Flags: W
LayerCount: 2
Fore
SplineSet
0 512 m 1,0,-1
 64 512 l 1,1,-1
 64 384 l 1,2,-1
 192 384 l 1,3,-1
 192 320 l 1,4,-1
 64 320 l 1,5,-1
 64 128 l 1,6,-1
 192 128 l 1,7,-1
 192 64 l 1,8,-1
 0 64 l 1,9,-1
 0 512 l 1,10,-1
 0 512 l 1,0,-1
192 320 m 1,11,-1
 256 320 l 1,12,-1
 256 128 l 1,13,-1
 192 128 l 1,14,-1
 192 320 l 1,15,-1
 192 320 l 1,11,-1
EndSplineSet
EndChar

StartChar: c
Encoding: 99 99 68
Width: 319
Flags: W
LayerCount: 2
Fore
SplineSet
64 384 m 1,0,-1
 192 384 l 1,1,-1
 192 320 l 1,2,-1
 64 320 l 1,3,-1
 64 384 l 1,4,-1
 64 384 l 1,0,-1
0 320 m 1,5,-1
 64 320 l 1,6,-1
 64 128 l 1,7,-1
 0 128 l 1,8,-1
 0 320 l 1,9,-1
 0 320 l 1,5,-1
192 320 m 1,10,-1
 256 320 l 1,11,-1
 256 256 l 1,12,-1
 192 256 l 1,13,-1
 192 320 l 1,14,-1
 192 320 l 1,10,-1
192 192 m 1,15,-1
 256 192 l 1,16,-1
 256 128 l 1,17,-1
 192 128 l 1,18,-1
 192 192 l 1,19,-1
 192 192 l 1,15,-1
64 128 m 1,20,-1
 192 128 l 1,21,-1
 192 64 l 1,22,-1
 64 64 l 1,23,-1
 64 128 l 1,24,-1
 64 128 l 1,20,-1
EndSplineSet
EndChar

StartChar: d
Encoding: 100 100 69
Width: 319
Flags: W
LayerCount: 2
Fore
SplineSet
192 512 m 1,0,-1
 256 512 l 1,1,-1
 256 64 l 1,2,-1
 64 64 l 1,3,-1
 64 128 l 1,4,-1
 192 128 l 1,5,-1
 192 320 l 1,6,-1
 64 320 l 1,7,-1
 64 384 l 1,8,-1
 192 384 l 1,9,-1
 192 512 l 1,10,-1
 192 512 l 1,0,-1
0 320 m 1,11,-1
 64 320 l 1,12,-1
 64 128 l 1,13,-1
 0 128 l 1,14,-1
 0 320 l 1,15,-1
 0 320 l 1,11,-1
EndSplineSet
EndChar

StartChar: e
Encoding: 101 101 70
Width: 319
Flags: W
LayerCount: 2
Fore
SplineSet
64 384 m 1,0,-1
 192 384 l 1,1,-1
 192 320 l 1,2,-1
 64 320 l 1,3,-1
 64 384 l 1,4,-1
 64 384 l 1,0,-1
0 320 m 1,5,-1
 64 320 l 1,6,-1
 64 256 l 1,7,-1
 192 256 l 1,8,-1
 192 320 l 1,9,-1
 256 320 l 1,10,-1
 256 192 l 1,11,-1
 64 192 l 1,12,-1
 64 128 l 1,13,-1
 0 128 l 1,14,-1
 0 320 l 1,15,-1
 0 320 l 1,5,-1
64 128 m 1,16,-1
 256 128 l 1,17,-1
 256 64 l 1,18,-1
 64 64 l 1,19,-1
 64 128 l 1,20,-1
 64 128 l 1,16,-1
EndSplineSet
EndChar

StartChar: f
Encoding: 102 102 71
Width: 319
Flags: W
LayerCount: 2
Fore
SplineSet
128 512 m 1,0,-1
 256 512 l 1,1,-1
 256 448 l 1,2,-1
 128 448 l 1,3,-1
 128 512 l 1,4,-1
 128 512 l 1,0,-1
64 448 m 1,5,-1
 128 448 l 1,6,-1
 128 384 l 1,7,-1
 192 384 l 1,8,-1
 192 320 l 1,9,-1
 128 320 l 1,10,-1
 128 64 l 1,11,-1
 64 64 l 1,12,-1
 64 320 l 1,13,-1
 0 320 l 1,14,-1
 0 384 l 1,15,-1
 64 384 l 1,16,-1
 64 448 l 1,17,-1
 64 448 l 1,5,-1
EndSplineSet
EndChar

StartChar: g
Encoding: 103 103 72
Width: 319
Flags: W
LayerCount: 2
Fore
SplineSet
64 384 m 1,0,-1
 256 384 l 1,1,-1
 256 64 l 1,2,-1
 192 64 l 1,3,-1
 192 128 l 1,4,-1
 64 128 l 1,5,-1
 64 192 l 1,6,-1
 192 192 l 1,7,-1
 192 320 l 1,8,-1
 64 320 l 1,9,-1
 64 384 l 1,10,-1
 64 384 l 1,0,-1
0 320 m 1,11,-1
 64 320 l 1,12,-1
 64 192 l 1,13,-1
 0 192 l 1,14,-1
 0 320 l 1,15,-1
 0 320 l 1,11,-1
64 64 m 1,16,-1
 192 64 l 1,17,-1
 192 0 l 1,18,-1
 64 0 l 1,19,-1
 64 64 l 1,20,-1
 64 64 l 1,16,-1
EndSplineSet
EndChar

StartChar: h
Encoding: 104 104 73
Width: 319
Flags: W
LayerCount: 2
Fore
SplineSet
0 512 m 1,0,-1
 64 512 l 1,1,-1
 64 384 l 1,2,-1
 192 384 l 1,3,-1
 192 320 l 1,4,-1
 64 320 l 1,5,-1
 64 64 l 1,6,-1
 0 64 l 1,7,-1
 0 512 l 1,8,-1
 0 512 l 1,0,-1
192 320 m 1,9,-1
 256 320 l 1,10,-1
 256 64 l 1,11,-1
 192 64 l 1,12,-1
 192 320 l 1,13,-1
 192 320 l 1,9,-1
EndSplineSet
EndChar

StartChar: i
Encoding: 105 105 74
Width: 191
Flags: W
LayerCount: 2
Fore
SplineSet
64 512 m 1,0,-1
 128 512 l 1,1,-1
 128 448 l 1,2,-1
 64 448 l 1,3,-1
 64 512 l 1,4,-1
 64 512 l 1,0,-1
64 384 m 1,5,-1
 128 384 l 1,6,-1
 128 64 l 1,7,-1
 64 64 l 1,8,-1
 64 384 l 1,9,-1
 64 384 l 1,5,-1
EndSplineSet
EndChar

StartChar: j
Encoding: 106 106 75
Width: 255
Flags: W
LayerCount: 2
Fore
SplineSet
128 512 m 1,0,-1
 192 512 l 1,1,-1
 192 448 l 1,2,-1
 128 448 l 1,3,-1
 128 512 l 1,4,-1
 128 512 l 1,0,-1
128 384 m 1,5,-1
 192 384 l 1,6,-1
 192 128 l 1,7,-1
 128 128 l 1,8,-1
 128 384 l 1,9,-1
 128 384 l 1,5,-1
0 128 m 1,10,-1
 128 128 l 1,11,-1
 128 64 l 1,12,-1
 0 64 l 1,13,-1
 0 128 l 1,14,-1
 0 128 l 1,10,-1
EndSplineSet
EndChar

StartChar: k
Encoding: 107 107 76
Width: 319
Flags: W
LayerCount: 2
Fore
SplineSet
0 512 m 1,0,-1
 64 512 l 1,1,-1
 64 256 l 1,2,-1
 128 256 l 1,3,-1
 128 192 l 1,4,-1
 64 192 l 1,5,-1
 64 64 l 1,6,-1
 0 64 l 1,7,-1
 0 512 l 1,8,-1
 0 512 l 1,0,-1
192 384 m 1,9,-1
 256 384 l 1,10,-1
 256 320 l 1,11,-1
 192 320 l 1,12,-1
 192 384 l 1,13,-1
 192 384 l 1,9,-1
128 320 m 1,14,-1
 192 320 l 1,15,-1
 192 256 l 1,16,-1
 128 256 l 1,17,-1
 128 320 l 1,18,-1
 128 320 l 1,14,-1
128 192 m 1,19,-1
 192 192 l 1,20,-1
 192 128 l 1,21,-1
 128 128 l 1,22,-1
 128 192 l 1,23,-1
 128 192 l 1,19,-1
192 128 m 1,24,-1
 256 128 l 1,25,-1
 256 64 l 1,26,-1
 192 64 l 1,27,-1
 192 128 l 1,28,-1
 192 128 l 1,24,-1
EndSplineSet
EndChar

StartChar: l
Encoding: 108 108 77
Width: 255
Flags: W
LayerCount: 2
Fore
SplineSet
64 512 m 1,0,-1
 192 512 l 1,1,-1
 192 64 l 1,2,-1
 128 64 l 1,3,-1
 128 448 l 1,4,-1
 64 448 l 1,5,-1
 64 512 l 1,6,-1
 64 512 l 1,0,-1
EndSplineSet
EndChar

StartChar: m
Encoding: 109 109 78
Width: 319
Flags: W
LayerCount: 2
Fore
SplineSet
0 384 m 1,0,-1
 64 384 l 1,1,-1
 64 320 l 1,2,-1
 128 320 l 1,3,-1
 128 64 l 1,4,-1
 0 64 l 1,5,-1
 0 384 l 1,6,-1
 0 384 l 1,0,-1
128 384 m 1,7,-1
 192 384 l 1,8,-1
 192 320 l 1,9,-1
 128 320 l 1,10,-1
 128 384 l 1,11,-1
 128 384 l 1,7,-1
192 320 m 1,12,-1
 256 320 l 1,13,-1
 256 64 l 1,14,-1
 192 64 l 1,15,-1
 192 320 l 1,16,-1
 192 320 l 1,12,-1
EndSplineSet
EndChar

StartChar: n
Encoding: 110 110 79
Width: 319
Flags: W
LayerCount: 2
Fore
SplineSet
0 384 m 1,0,-1
 192 384 l 1,1,-1
 192 320 l 1,2,-1
 64 320 l 1,3,-1
 64 64 l 1,4,-1
 0 64 l 1,5,-1
 0 384 l 1,6,-1
 0 384 l 1,0,-1
192 320 m 1,7,-1
 256 320 l 1,8,-1
 256 64 l 1,9,-1
 192 64 l 1,10,-1
 192 320 l 1,11,-1
 192 320 l 1,7,-1
EndSplineSet
EndChar

StartChar: o
Encoding: 111 111 80
Width: 319
Flags: W
LayerCount: 2
Fore
SplineSet
64 384 m 1,0,-1
 192 384 l 1,1,-1
 192 320 l 1,2,-1
 64 320 l 1,3,-1
 64 384 l 1,4,-1
 64 384 l 1,0,-1
0 320 m 1,5,-1
 64 320 l 1,6,-1
 64 128 l 1,7,-1
 0 128 l 1,8,-1
 0 320 l 1,9,-1
 0 320 l 1,5,-1
192 320 m 1,10,-1
 256 320 l 1,11,-1
 256 128 l 1,12,-1
 192 128 l 1,13,-1
 192 320 l 1,14,-1
 192 320 l 1,10,-1
64 128 m 1,15,-1
 192 128 l 1,16,-1
 192 64 l 1,17,-1
 64 64 l 1,18,-1
 64 128 l 1,19,-1
 64 128 l 1,15,-1
EndSplineSet
EndChar

StartChar: p
Encoding: 112 112 81
Width: 319
Flags: W
LayerCount: 2
Fore
SplineSet
0 384 m 1,0,-1
 192 384 l 1,1,-1
 192 320 l 1,2,-1
 64 320 l 1,3,-1
 64 192 l 1,4,-1
 192 192 l 1,5,-1
 192 128 l 1,6,-1
 64 128 l 1,7,-1
 64 0 l 1,8,-1
 0 0 l 1,9,-1
 0 384 l 1,10,-1
 0 384 l 1,0,-1
192 320 m 1,11,-1
 256 320 l 1,12,-1
 256 192 l 1,13,-1
 192 192 l 1,14,-1
 192 320 l 1,15,-1
 192 320 l 1,11,-1
EndSplineSet
EndChar

StartChar: q
Encoding: 113 113 82
Width: 319
Flags: W
LayerCount: 2
Fore
SplineSet
64 384 m 1,0,-1
 256 384 l 1,1,-1
 256 0 l 1,2,-1
 192 0 l 1,3,-1
 192 128 l 1,4,-1
 64 128 l 1,5,-1
 64 192 l 1,6,-1
 192 192 l 1,7,-1
 192 320 l 1,8,-1
 64 320 l 1,9,-1
 64 384 l 1,10,-1
 64 384 l 1,0,-1
0 320 m 1,11,-1
 64 320 l 1,12,-1
 64 192 l 1,13,-1
 0 192 l 1,14,-1
 0 320 l 1,15,-1
 0 320 l 1,11,-1
EndSplineSet
EndChar

StartChar: r
Encoding: 114 114 83
Width: 319
Flags: W
LayerCount: 2
Fore
SplineSet
0 384 m 1,0,-1
 64 384 l 1,1,-1
 64 320 l 1,2,-1
 128 320 l 1,3,-1
 128 256 l 1,4,-1
 64 256 l 1,5,-1
 64 64 l 1,6,-1
 0 64 l 1,7,-1
 0 384 l 1,8,-1
 0 384 l 1,0,-1
128 384 m 1,9,-1
 256 384 l 1,10,-1
 256 320 l 1,11,-1
 128 320 l 1,12,-1
 128 384 l 1,13,-1
 128 384 l 1,9,-1
EndSplineSet
EndChar

StartChar: s
Encoding: 115 115 84
Width: 319
Flags: W
LayerCount: 2
Fore
SplineSet
64 384 m 1,0,-1
 256 384 l 1,1,-1
 256 320 l 1,2,-1
 64 320 l 1,3,-1
 64 384 l 1,4,-1
 64 384 l 1,0,-1
0 320 m 1,5,-1
 64 320 l 1,6,-1
 64 256 l 1,7,-1
 0 256 l 1,8,-1
 0 320 l 1,9,-1
 0 320 l 1,5,-1
64 256 m 1,10,-1
 192 256 l 1,11,-1
 192 192 l 1,12,-1
 64 192 l 1,13,-1
 64 256 l 1,14,-1
 64 256 l 1,10,-1
192 192 m 1,15,-1
 256 192 l 1,16,-1
 256 128 l 1,17,-1
 192 128 l 1,18,-1
 192 192 l 1,19,-1
 192 192 l 1,15,-1
0 128 m 1,20,-1
 192 128 l 1,21,-1
 192 64 l 1,22,-1
 0 64 l 1,23,-1
 0 128 l 1,24,-1
 0 128 l 1,20,-1
EndSplineSet
EndChar

StartChar: t
Encoding: 116 116 85
Width: 319
Flags: W
LayerCount: 2
Fore
SplineSet
64 448 m 1,0,-1
 128 448 l 1,1,-1
 128 384 l 1,2,-1
 256 384 l 1,3,-1
 256 320 l 1,4,-1
 128 320 l 1,5,-1
 128 128 l 1,6,-1
 64 128 l 1,7,-1
 64 320 l 1,8,-1
 0 320 l 1,9,-1
 0 384 l 1,10,-1
 64 384 l 1,11,-1
 64 448 l 1,12,-1
 64 448 l 1,0,-1
128 128 m 1,13,-1
 256 128 l 1,14,-1
 256 64 l 1,15,-1
 128 64 l 1,16,-1
 128 128 l 1,17,-1
 128 128 l 1,13,-1
EndSplineSet
EndChar

StartChar: u
Encoding: 117 117 86
Width: 319
Flags: W
LayerCount: 2
Fore
SplineSet
0 384 m 1,0,-1
 64 384 l 1,1,-1
 64 128 l 1,2,-1
 0 128 l 1,3,-1
 0 384 l 1,4,-1
 0 384 l 1,0,-1
192 384 m 1,5,-1
 256 384 l 1,6,-1
 256 64 l 1,7,-1
 192 64 l 1,8,-1
 192 128 l 1,9,-1
 128 128 l 1,10,-1
 128 192 l 1,11,-1
 192 192 l 1,12,-1
 192 384 l 1,13,-1
 192 384 l 1,5,-1
64 128 m 1,14,-1
 128 128 l 1,15,-1
 128 64 l 1,16,-1
 64 64 l 1,17,-1
 64 128 l 1,18,-1
 64 128 l 1,14,-1
EndSplineSet
EndChar

StartChar: v
Encoding: 118 118 87
Width: 319
Flags: W
LayerCount: 2
Fore
SplineSet
0 384 m 1,0,-1
 64 384 l 1,1,-1
 64 128 l 1,2,-1
 0 128 l 1,3,-1
 0 384 l 1,4,-1
 0 384 l 1,0,-1
192 384 m 1,5,-1
 256 384 l 1,6,-1
 256 192 l 1,7,-1
 192 192 l 1,8,-1
 192 384 l 1,9,-1
 192 384 l 1,5,-1
128 192 m 1,10,-1
 192 192 l 1,11,-1
 192 128 l 1,12,-1
 128 128 l 1,13,-1
 128 192 l 1,14,-1
 128 192 l 1,10,-1
64 128 m 1,15,-1
 128 128 l 1,16,-1
 128 64 l 1,17,-1
 64 64 l 1,18,-1
 64 128 l 1,19,-1
 64 128 l 1,15,-1
EndSplineSet
EndChar

StartChar: w
Encoding: 119 119 88
Width: 319
Flags: W
LayerCount: 2
Fore
SplineSet
0 384 m 1,0,-1
 64 384 l 1,1,-1
 64 192 l 1,2,-1
 192 192 l 1,3,-1
 192 384 l 1,4,-1
 256 384 l 1,5,-1
 256 64 l 1,6,-1
 192 64 l 1,7,-1
 192 128 l 1,8,-1
 64 128 l 1,9,-1
 64 64 l 1,10,-1
 0 64 l 1,11,-1
 0 384 l 1,12,-1
 0 384 l 1,0,-1
EndSplineSet
EndChar

StartChar: x
Encoding: 120 120 89
Width: 319
Flags: W
LayerCount: 2
Fore
SplineSet
0 384 m 1,0,-1
 64 384 l 1,1,-1
 64 256 l 1,2,-1
 0 256 l 1,3,-1
 0 384 l 1,4,-1
 0 384 l 1,0,-1
192 384 m 1,5,-1
 256 384 l 1,6,-1
 256 256 l 1,7,-1
 192 256 l 1,8,-1
 192 384 l 1,9,-1
 192 384 l 1,5,-1
64 256 m 1,10,-1
 192 256 l 1,11,-1
 192 192 l 1,12,-1
 64 192 l 1,13,-1
 64 256 l 1,14,-1
 64 256 l 1,10,-1
0 192 m 1,15,-1
 64 192 l 1,16,-1
 64 64 l 1,17,-1
 0 64 l 1,18,-1
 0 192 l 1,19,-1
 0 192 l 1,15,-1
192 192 m 1,20,-1
 256 192 l 1,21,-1
 256 64 l 1,22,-1
 192 64 l 1,23,-1
 192 192 l 1,24,-1
 192 192 l 1,20,-1
EndSplineSet
EndChar

StartChar: y
Encoding: 121 121 90
Width: 319
Flags: W
LayerCount: 2
Fore
SplineSet
0 384 m 1,0,-1
 64 384 l 1,1,-1
 64 192 l 1,2,-1
 0 192 l 1,3,-1
 0 384 l 1,4,-1
 0 384 l 1,0,-1
192 384 m 1,5,-1
 256 384 l 1,6,-1
 256 64 l 1,7,-1
 192 64 l 1,8,-1
 192 128 l 1,9,-1
 64 128 l 1,10,-1
 64 192 l 1,11,-1
 192 192 l 1,12,-1
 192 384 l 1,13,-1
 192 384 l 1,5,-1
64 64 m 1,14,-1
 192 64 l 1,15,-1
 192 0 l 1,16,-1
 64 0 l 1,17,-1
 64 64 l 1,18,-1
 64 64 l 1,14,-1
EndSplineSet
EndChar

StartChar: z
Encoding: 122 122 91
Width: 319
Flags: W
LayerCount: 2
Fore
SplineSet
0 384 m 1,0,-1
 256 384 l 1,1,-1
 256 256 l 1,2,-1
 192 256 l 1,3,-1
 192 320 l 1,4,-1
 0 320 l 1,5,-1
 0 384 l 1,6,-1
 0 384 l 1,0,-1
128 256 m 1,7,-1
 192 256 l 1,8,-1
 192 192 l 1,9,-1
 128 192 l 1,10,-1
 128 256 l 1,11,-1
 128 256 l 1,7,-1
64 192 m 1,12,-1
 128 192 l 1,13,-1
 128 128 l 1,14,-1
 256 128 l 1,15,-1
 256 64 l 1,16,-1
 0 64 l 1,17,-1
 0 128 l 1,18,-1
 64 128 l 1,19,-1
 64 192 l 1,20,-1
 64 192 l 1,12,-1
EndSplineSet
EndChar

StartChar: braceleft
Encoding: 123 123 92
Width: 255
Flags: W
LayerCount: 2
Fore
SplineSet
128 512 m 1,0,-1
 192 512 l 1,1,-1
 192 448 l 1,2,-1
 128 448 l 1,3,-1
 128 512 l 1,4,-1
 128 512 l 1,0,-1
64 448 m 1,5,-1
 128 448 l 1,6,-1
 128 320 l 1,7,-1
 64 320 l 1,8,-1
 64 448 l 1,9,-1
 64 448 l 1,5,-1
0 320 m 1,10,-1
 64 320 l 1,11,-1
 64 256 l 1,12,-1
 0 256 l 1,13,-1
 0 320 l 1,14,-1
 0 320 l 1,10,-1
64 256 m 1,15,-1
 128 256 l 1,16,-1
 128 128 l 1,17,-1
 64 128 l 1,18,-1
 64 256 l 1,19,-1
 64 256 l 1,15,-1
128 128 m 1,20,-1
 192 128 l 1,21,-1
 192 64 l 1,22,-1
 128 64 l 1,23,-1
 128 128 l 1,24,-1
 128 128 l 1,20,-1
EndSplineSet
EndChar

StartChar: bar
Encoding: 124 124 93
Width: 255
Flags: W
LayerCount: 2
Fore
SplineSet
128 512 m 1,0,-1
 192 512 l 1,1,-1
 192 0 l 1,2,-1
 128 0 l 1,3,-1
 128 512 l 1,4,-1
 128 512 l 1,0,-1
EndSplineSet
EndChar

StartChar: braceright
Encoding: 125 125 94
Width: 255
Flags: W
LayerCount: 2
Fore
SplineSet
0 512 m 1,0,-1
 64 512 l 1,1,-1
 64 448 l 1,2,-1
 0 448 l 1,3,-1
 0 512 l 1,4,-1
 0 512 l 1,0,-1
64 448 m 1,5,-1
 128 448 l 1,6,-1
 128 320 l 1,7,-1
 64 320 l 1,8,-1
 64 448 l 1,9,-1
 64 448 l 1,5,-1
128 320 m 1,10,-1
 192 320 l 1,11,-1
 192 256 l 1,12,-1
 128 256 l 1,13,-1
 128 320 l 1,14,-1
 128 320 l 1,10,-1
64 256 m 1,15,-1
 128 256 l 1,16,-1
 128 128 l 1,17,-1
 64 128 l 1,18,-1
 64 256 l 1,19,-1
 64 256 l 1,15,-1
0 128 m 1,20,-1
 64 128 l 1,21,-1
 64 64 l 1,22,-1
 0 64 l 1,23,-1
 0 128 l 1,24,-1
 0 128 l 1,20,-1
EndSplineSet
EndChar

StartChar: asciitilde
Encoding: 126 126 95
Width: 383
Flags: W
LayerCount: 2
Fore
SplineSet
64 384 m 1,0,-1
 192 384 l 1,1,-1
 192 320 l 1,2,-1
 256 320 l 1,3,-1
 256 256 l 1,4,-1
 128 256 l 1,5,-1
 128 320 l 1,6,-1
 64 320 l 1,7,-1
 64 384 l 1,8,-1
 64 384 l 1,0,-1
256 384 m 1,9,-1
 320 384 l 1,10,-1
 320 320 l 1,11,-1
 256 320 l 1,12,-1
 256 384 l 1,13,-1
 256 384 l 1,9,-1
0 320 m 1,14,-1
 64 320 l 1,15,-1
 64 256 l 1,16,-1
 0 256 l 1,17,-1
 0 320 l 1,18,-1
 0 320 l 1,14,-1
EndSplineSet
EndChar

StartChar: exclamdown
Encoding: 161 161 97
Width: 191
Flags: W
LayerCount: 2
Fore
SplineSet
64 448 m 1,0,-1
 128 448 l 1,1,-1
 128 384 l 1,2,-1
 64 384 l 1,3,-1
 64 448 l 1,4,-1
 64 448 l 1,0,-1
64 320 m 1,5,-1
 128 320 l 1,6,-1
 128 0 l 1,7,-1
 64 0 l 1,8,-1
 64 320 l 1,9,-1
 64 320 l 1,5,-1
EndSplineSet
EndChar

StartChar: cent
Encoding: 162 162 98
Width: 319
Flags: W
LayerCount: 2
Fore
SplineSet
192 448 m 1,0,-1
 256 448 l 1,1,-1
 256 384 l 1,2,-1
 192 384 l 1,3,-1
 192 448 l 1,4,-1
 192 448 l 1,0,-1
64 384 m 1,5,-1
 192 384 l 1,6,-1
 192 320 l 1,7,-1
 256 320 l 1,8,-1
 256 256 l 1,9,-1
 128 256 l 1,10,-1
 128 320 l 1,11,-1
 64 320 l 1,12,-1
 64 384 l 1,13,-1
 64 384 l 1,5,-1
0 320 m 1,14,-1
 64 320 l 1,15,-1
 64 256 l 1,16,-1
 128 256 l 1,17,-1
 128 128 l 1,18,-1
 192 128 l 1,19,-1
 192 64 l 1,20,-1
 64 64 l 1,21,-1
 64 128 l 1,22,-1
 0 128 l 1,23,-1
 0 320 l 1,24,-1
 0 320 l 1,14,-1
192 192 m 1,25,-1
 256 192 l 1,26,-1
 256 128 l 1,27,-1
 192 128 l 1,28,-1
 192 192 l 1,29,-1
 192 192 l 1,25,-1
0 64 m 1,30,-1
 64 64 l 1,31,-1
 64 0 l 1,32,-1
 0 0 l 1,33,-1
 0 64 l 1,34,-1
 0 64 l 1,30,-1
EndSplineSet
EndChar

StartChar: sterling
Encoding: 163 163 99
Width: 319
Flags: W
LayerCount: 2
Fore
SplineSet
128 512 m 1,0,-1
 192 512 l 1,1,-1
 192 448 l 1,2,-1
 128 448 l 1,3,-1
 128 512 l 1,4,-1
 128 512 l 1,0,-1
64 448 m 1,5,-1
 128 448 l 1,6,-1
 128 320 l 1,7,-1
 192 320 l 1,8,-1
 192 256 l 1,9,-1
 128 256 l 1,10,-1
 128 192 l 1,11,-1
 64 192 l 1,12,-1
 64 256 l 1,13,-1
 0 256 l 1,14,-1
 0 320 l 1,15,-1
 64 320 l 1,16,-1
 64 448 l 1,17,-1
 64 448 l 1,5,-1
192 448 m 1,18,-1
 256 448 l 1,19,-1
 256 384 l 1,20,-1
 192 384 l 1,21,-1
 192 448 l 1,22,-1
 192 448 l 1,18,-1
0 192 m 1,23,-1
 64 192 l 1,24,-1
 64 128 l 1,25,-1
 256 128 l 1,26,-1
 256 64 l 1,27,-1
 0 64 l 1,28,-1
 0 192 l 1,29,-1
 0 192 l 1,23,-1
EndSplineSet
EndChar

StartChar: currency
Encoding: 164 164 100
Width: 319
Flags: W
LayerCount: 2
Fore
SplineSet
0 448 m 1,0,-1
 64 448 l 1,1,-1
 64 384 l 1,2,-1
 0 384 l 1,3,-1
 0 448 l 1,4,-1
 0 448 l 1,0,-1
192 448 m 1,5,-1
 256 448 l 1,6,-1
 256 384 l 1,7,-1
 192 384 l 1,8,-1
 192 448 l 1,9,-1
 192 448 l 1,5,-1
64 384 m 1,10,-1
 192 384 l 1,11,-1
 192 320 l 1,12,-1
 64 320 l 1,13,-1
 64 384 l 1,14,-1
 64 384 l 1,10,-1
0 320 m 1,15,-1
 64 320 l 1,16,-1
 64 192 l 1,17,-1
 0 192 l 1,18,-1
 0 320 l 1,19,-1
 0 320 l 1,15,-1
192 320 m 1,20,-1
 256 320 l 1,21,-1
 256 192 l 1,22,-1
 192 192 l 1,23,-1
 192 320 l 1,24,-1
 192 320 l 1,20,-1
64 192 m 1,25,-1
 192 192 l 1,26,-1
 192 128 l 1,27,-1
 64 128 l 1,28,-1
 64 192 l 1,29,-1
 64 192 l 1,25,-1
0 128 m 1,30,-1
 64 128 l 1,31,-1
 64 64 l 1,32,-1
 0 64 l 1,33,-1
 0 128 l 1,34,-1
 0 128 l 1,30,-1
192 128 m 1,35,-1
 256 128 l 1,36,-1
 256 64 l 1,37,-1
 192 64 l 1,38,-1
 192 128 l 1,39,-1
 192 128 l 1,35,-1
EndSplineSet
EndChar

StartChar: yen
Encoding: 165 165 101
Width: 255
Flags: W
LayerCount: 2
Fore
SplineSet
0 512 m 1,0,-1
 64 512 l 1,1,-1
 64 256 l 1,2,-1
 0 256 l 1,3,-1
 0 512 l 1,4,-1
 0 512 l 1,0,-1
128 512 m 1,5,-1
 192 512 l 1,6,-1
 192 256 l 1,7,-1
 128 256 l 1,8,-1
 128 512 l 1,9,-1
 128 512 l 1,5,-1
64 256 m 1,10,-1
 128 256 l 1,11,-1
 128 192 l 1,12,-1
 192 192 l 1,13,-1
 192 128 l 1,14,-1
 128 128 l 1,15,-1
 128 64 l 1,16,-1
 64 64 l 1,17,-1
 64 128 l 1,18,-1
 0 128 l 1,19,-1
 0 192 l 1,20,-1
 64 192 l 1,21,-1
 64 256 l 1,22,-1
 64 256 l 1,10,-1
EndSplineSet
EndChar

StartChar: brokenbar
Encoding: 166 166 102
Width: 127
Flags: W
LayerCount: 2
Fore
SplineSet
0 575 m 1,0,-1
 64 575 l 1,1,-1
 64 320 l 1,2,-1
 0 320 l 1,3,-1
 0 575 l 1,4,-1
 0 575 l 1,0,-1
0 256 m 1,5,-1
 64 256 l 1,6,-1
 64 0 l 1,7,-1
 0 0 l 1,8,-1
 0 256 l 1,9,-1
 0 256 l 1,5,-1
EndSplineSet
EndChar

StartChar: section
Encoding: 167 167 103
Width: 319
Flags: W
LayerCount: 2
Fore
SplineSet
64 512 m 1,0,-1
 256 512 l 1,1,-1
 256 448 l 1,2,-1
 64 448 l 1,3,-1
 64 512 l 1,4,-1
 64 512 l 1,0,-1
0 448 m 1,5,-1
 64 448 l 1,6,-1
 64 384 l 1,7,-1
 192 384 l 1,8,-1
 192 320 l 1,9,-1
 64 320 l 1,10,-1
 64 256 l 1,11,-1
 0 256 l 1,12,-1
 0 448 l 1,13,-1
 0 448 l 1,5,-1
192 320 m 1,14,-1
 256 320 l 1,15,-1
 256 128 l 1,16,-1
 192 128 l 1,17,-1
 192 192 l 1,18,-1
 64 192 l 1,19,-1
 64 256 l 1,20,-1
 192 256 l 1,21,-1
 192 320 l 1,22,-1
 192 320 l 1,14,-1
0 128 m 1,23,-1
 192 128 l 1,24,-1
 192 64 l 1,25,-1
 0 64 l 1,26,-1
 0 128 l 1,27,-1
 0 128 l 1,23,-1
EndSplineSet
EndChar

StartChar: dieresis
Encoding: 168 168 104
Width: 319
Flags: W
LayerCount: 2
Fore
SplineSet
0 639 m 1,0,-1
 64 639 l 1,1,-1
 64 575 l 1,2,-1
 0 575 l 1,3,-1
 0 639 l 1,4,-1
 0 639 l 1,0,-1
192 639 m 1,5,-1
 256 639 l 1,6,-1
 256 575 l 1,7,-1
 192 575 l 1,8,-1
 192 639 l 1,9,-1
 192 639 l 1,5,-1
EndSplineSet
EndChar

StartChar: copyright
Encoding: 169 169 105
Width: 383
Flags: W
LayerCount: 2
Fore
SplineSet
64 512 m 1,0,-1
 256 512 l 1,1,-1
 256 448 l 1,2,-1
 64 448 l 1,3,-1
 64 512 l 1,4,-1
 64 512 l 1,0,-1
0 448 m 1,5,-1
 64 448 l 1,6,-1
 64 320 l 1,7,-1
 128 320 l 1,8,-1
 128 192 l 1,9,-1
 64 192 l 1,10,-1
 64 128 l 1,11,-1
 0 128 l 1,12,-1
 0 448 l 1,13,-1
 0 448 l 1,5,-1
256 448 m 1,14,-1
 320 448 l 1,15,-1
 320 128 l 1,16,-1
 256 128 l 1,17,-1
 256 448 l 1,18,-1
 256 448 l 1,14,-1
128 384 m 1,19,-1
 192 384 l 1,20,-1
 192 320 l 1,21,-1
 128 320 l 1,22,-1
 128 384 l 1,23,-1
 128 384 l 1,19,-1
128 192 m 1,24,-1
 192 192 l 1,25,-1
 192 128 l 1,26,-1
 256 128 l 1,27,-1
 256 64 l 1,28,-1
 64 64 l 1,29,-1
 64 128 l 1,30,-1
 128 128 l 1,31,-1
 128 192 l 1,32,-1
 128 192 l 1,24,-1
EndSplineSet
EndChar

StartChar: ordfeminine
Encoding: 170 170 106
Width: 319
Flags: W
LayerCount: 2
Fore
SplineSet
64 639 m 1,0,-1
 256 639 l 1,1,-1
 256 320 l 1,2,-1
 192 320 l 1,3,-1
 192 384 l 1,4,-1
 128 384 l 1,5,-1
 128 448 l 1,6,-1
 192 448 l 1,7,-1
 192 575 l 1,8,-1
 64 575 l 1,9,-1
 64 639 l 1,10,-1
 64 639 l 1,0,-1
0 575 m 1,11,-1
 64 575 l 1,12,-1
 64 384 l 1,13,-1
 0 384 l 1,14,-1
 0 575 l 1,15,-1
 0 575 l 1,11,-1
64 384 m 1,16,-1
 128 384 l 1,17,-1
 128 320 l 1,18,-1
 64 320 l 1,19,-1
 64 384 l 1,20,-1
 64 384 l 1,16,-1
EndSplineSet
EndChar

StartChar: guillemotleft
Encoding: 171 171 107
Width: 447
Flags: W
LayerCount: 2
Fore
SplineSet
128 448 m 1,0,-1
 192 448 l 1,1,-1
 192 384 l 1,2,-1
 128 384 l 1,3,-1
 128 448 l 1,4,-1
 128 448 l 1,0,-1
320 448 m 1,5,-1
 384 448 l 1,6,-1
 384 384 l 1,7,-1
 320 384 l 1,8,-1
 320 448 l 1,9,-1
 320 448 l 1,5,-1
64 384 m 1,10,-1
 128 384 l 1,11,-1
 128 320 l 1,12,-1
 64 320 l 1,13,-1
 64 384 l 1,14,-1
 64 384 l 1,10,-1
256 384 m 1,15,-1
 320 384 l 1,16,-1
 320 320 l 1,17,-1
 256 320 l 1,18,-1
 256 384 l 1,19,-1
 256 384 l 1,15,-1
0 320 m 1,20,-1
 64 320 l 1,21,-1
 64 256 l 1,22,-1
 0 256 l 1,23,-1
 0 320 l 1,24,-1
 0 320 l 1,20,-1
192 320 m 1,25,-1
 256 320 l 1,26,-1
 256 256 l 1,27,-1
 192 256 l 1,28,-1
 192 320 l 1,29,-1
 192 320 l 1,25,-1
64 256 m 1,30,-1
 128 256 l 1,31,-1
 128 192 l 1,32,-1
 64 192 l 1,33,-1
 64 256 l 1,34,-1
 64 256 l 1,30,-1
256 256 m 1,35,-1
 320 256 l 1,36,-1
 320 192 l 1,37,-1
 256 192 l 1,38,-1
 256 256 l 1,39,-1
 256 256 l 1,35,-1
128 192 m 1,40,-1
 192 192 l 1,41,-1
 192 128 l 1,42,-1
 128 128 l 1,43,-1
 128 192 l 1,44,-1
 128 192 l 1,40,-1
320 192 m 1,45,-1
 384 192 l 1,46,-1
 384 128 l 1,47,-1
 320 128 l 1,48,-1
 320 192 l 1,49,-1
 320 192 l 1,45,-1
EndSplineSet
EndChar

StartChar: logicalnot
Encoding: 172 172 108
Width: 319
Flags: W
LayerCount: 2
Fore
SplineSet
0 320 m 1,0,-1
 256 320 l 1,1,-1
 256 192 l 1,2,-1
 192 192 l 1,3,-1
 192 256 l 1,4,-1
 0 256 l 1,5,-1
 0 320 l 1,6,-1
 0 320 l 1,0,-1
EndSplineSet
EndChar

StartChar: hyphen
Encoding: 173 173 109
Width: 319
Flags: W
LayerCount: 2
Fore
SplineSet
0 320 m 1,0,-1
 256 320 l 1,1,-1
 256 256 l 1,2,-1
 0 256 l 1,3,-1
 0 320 l 1,4,-1
 0 320 l 1,0,-1
EndSplineSet
EndChar

StartChar: registered
Encoding: 174 174 110
Width: 383
Flags: W
LayerCount: 2
Fore
SplineSet
64 512 m 1,0,-1
 256 512 l 1,1,-1
 256 448 l 1,2,-1
 64 448 l 1,3,-1
 64 512 l 1,4,-1
 64 512 l 1,0,-1
0 448 m 1,5,-1
 64 448 l 1,6,-1
 64 384 l 1,7,-1
 192 384 l 1,8,-1
 192 320 l 1,9,-1
 128 320 l 1,10,-1
 128 256 l 1,11,-1
 192 256 l 1,12,-1
 192 192 l 1,13,-1
 128 192 l 1,14,-1
 128 128 l 1,15,-1
 192 128 l 1,16,-1
 192 192 l 1,17,-1
 256 192 l 1,18,-1
 256 256 l 1,19,-1
 192 256 l 1,20,-1
 192 320 l 1,21,-1
 256 320 l 1,22,-1
 256 448 l 1,23,-1
 320 448 l 1,24,-1
 320 128 l 1,25,-1
 256 128 l 1,26,-1
 256 64 l 1,27,-1
 64 64 l 1,28,-1
 64 128 l 1,29,-1
 0 128 l 1,30,-1
 0 448 l 1,31,-1
 0 448 l 1,5,-1
EndSplineSet
EndChar

StartChar: macron
Encoding: 175 175 111
Width: 319
Flags: W
LayerCount: 2
Fore
SplineSet
0 703 m 1,0,-1
 256 703 l 1,1,-1
 256 639 l 1,2,-1
 0 639 l 1,3,-1
 0 703 l 1,4,-1
 0 703 l 1,0,-1
EndSplineSet
EndChar

StartChar: degree
Encoding: 176 176 112
Width: 319
Flags: W
LayerCount: 2
Fore
SplineSet
64 639 m 1,0,-1
 192 639 l 1,1,-1
 192 575 l 1,2,-1
 64 575 l 1,3,-1
 64 639 l 1,4,-1
 64 639 l 1,0,-1
0 575 m 1,5,-1
 64 575 l 1,6,-1
 64 448 l 1,7,-1
 0 448 l 1,8,-1
 0 575 l 1,9,-1
 0 575 l 1,5,-1
192 575 m 1,10,-1
 256 575 l 1,11,-1
 256 448 l 1,12,-1
 192 448 l 1,13,-1
 192 575 l 1,14,-1
 192 575 l 1,10,-1
64 448 m 1,15,-1
 192 448 l 1,16,-1
 192 384 l 1,17,-1
 64 384 l 1,18,-1
 64 448 l 1,19,-1
 64 448 l 1,15,-1
EndSplineSet
EndChar

StartChar: plusminus
Encoding: 177 177 113
Width: 383
Flags: W
LayerCount: 2
Fore
SplineSet
128 512 m 1,0,-1
 192 512 l 1,1,-1
 192 384 l 1,2,-1
 320 384 l 1,3,-1
 320 320 l 1,4,-1
 192 320 l 1,5,-1
 192 192 l 1,6,-1
 128 192 l 1,7,-1
 128 320 l 1,8,-1
 0 320 l 1,9,-1
 0 384 l 1,10,-1
 128 384 l 1,11,-1
 128 512 l 1,12,-1
 128 512 l 1,0,-1
0 128 m 1,13,-1
 320 128 l 1,14,-1
 320 64 l 1,15,-1
 0 64 l 1,16,-1
 0 128 l 1,17,-1
 0 128 l 1,13,-1
EndSplineSet
EndChar

StartChar: twosuperior
Encoding: 178 178 114
Width: 255
Flags: W
LayerCount: 2
Fore
SplineSet
64 639 m 1,0,-1
 128 639 l 1,1,-1
 128 575 l 1,2,-1
 64 575 l 1,3,-1
 64 639 l 1,4,-1
 64 639 l 1,0,-1
0 575 m 1,5,-1
 64 575 l 1,6,-1
 64 512 l 1,7,-1
 0 512 l 1,8,-1
 0 575 l 1,9,-1
 0 575 l 1,5,-1
128 575 m 1,10,-1
 192 575 l 1,11,-1
 192 448 l 1,12,-1
 128 448 l 1,13,-1
 128 575 l 1,14,-1
 128 575 l 1,10,-1
64 448 m 1,15,-1
 128 448 l 1,16,-1
 128 384 l 1,17,-1
 192 384 l 1,18,-1
 192 320 l 1,19,-1
 0 320 l 1,20,-1
 0 384 l 1,21,-1
 64 384 l 1,22,-1
 64 448 l 1,23,-1
 64 448 l 1,15,-1
EndSplineSet
EndChar

StartChar: threesuperior
Encoding: 179 179 115
Width: 255
Flags: W
LayerCount: 2
Fore
SplineSet
0 639 m 1,0,-1
 128 639 l 1,1,-1
 128 575 l 1,2,-1
 0 575 l 1,3,-1
 0 639 l 1,4,-1
 0 639 l 1,0,-1
128 575 m 1,5,-1
 192 575 l 1,6,-1
 192 512 l 1,7,-1
 128 512 l 1,8,-1
 128 575 l 1,9,-1
 128 575 l 1,5,-1
64 512 m 1,10,-1
 128 512 l 1,11,-1
 128 448 l 1,12,-1
 64 448 l 1,13,-1
 64 512 l 1,14,-1
 64 512 l 1,10,-1
128 448 m 1,15,-1
 192 448 l 1,16,-1
 192 384 l 1,17,-1
 128 384 l 1,18,-1
 128 448 l 1,19,-1
 128 448 l 1,15,-1
0 384 m 1,20,-1
 128 384 l 1,21,-1
 128 320 l 1,22,-1
 0 320 l 1,23,-1
 0 384 l 1,24,-1
 0 384 l 1,20,-1
EndSplineSet
EndChar

StartChar: acute
Encoding: 180 180 116
Width: 191
Flags: W
LayerCount: 2
Fore
SplineSet
64 512 m 1,0,-1
 128 512 l 1,1,-1
 128 448 l 1,2,-1
 64 448 l 1,3,-1
 64 512 l 1,4,-1
 64 512 l 1,0,-1
0 448 m 1,5,-1
 64 448 l 1,6,-1
 64 384 l 1,7,-1
 0 384 l 1,8,-1
 0 448 l 1,9,-1
 0 448 l 1,5,-1
EndSplineSet
EndChar

StartChar: mu
Encoding: 181 181 117
Width: 319
Flags: W
LayerCount: 2
Fore
SplineSet
0 384 m 1,0,-1
 64 384 l 1,1,-1
 64 128 l 1,2,-1
 128 128 l 1,3,-1
 128 64 l 1,4,-1
 64 64 l 1,5,-1
 64 0 l 1,6,-1
 0 0 l 1,7,-1
 0 384 l 1,8,-1
 0 384 l 1,0,-1
192 384 m 1,9,-1
 256 384 l 1,10,-1
 256 64 l 1,11,-1
 192 64 l 1,12,-1
 192 128 l 1,13,-1
 128 128 l 1,14,-1
 128 192 l 1,15,-1
 192 192 l 1,16,-1
 192 384 l 1,17,-1
 192 384 l 1,9,-1
EndSplineSet
EndChar

StartChar: paragraph
Encoding: 182 182 118
Width: 319
Flags: W
LayerCount: 2
Fore
SplineSet
0 512 m 1,0,-1
 256 512 l 1,1,-1
 256 64 l 1,2,-1
 192 64 l 1,3,-1
 192 448 l 1,4,-1
 128 448 l 1,5,-1
 128 64 l 1,6,-1
 64 64 l 1,7,-1
 64 320 l 1,8,-1
 0 320 l 1,9,-1
 0 512 l 1,10,-1
 0 512 l 1,0,-1
EndSplineSet
EndChar

StartChar: periodcentered
Encoding: 183 183 119
Width: 127
Flags: W
LayerCount: 2
Fore
SplineSet
0 320 m 1,0,-1
 64 320 l 1,1,-1
 64 256 l 1,2,-1
 0 256 l 1,3,-1
 0 320 l 1,4,-1
 0 320 l 1,0,-1
EndSplineSet
EndChar

StartChar: cedilla
Encoding: 184 184 120
Width: 255
Flags: W
LayerCount: 2
Fore
SplineSet
128 128 m 1,0,-1
 192 128 l 1,1,-1
 192 64 l 1,2,-1
 128 64 l 1,3,-1
 128 128 l 1,4,-1
 128 128 l 1,0,-1
64 64 m 1,5,-1
 128 64 l 1,6,-1
 128 0 l 1,7,-1
 64 0 l 1,8,-1
 64 64 l 1,9,-1
 64 64 l 1,5,-1
EndSplineSet
EndChar

StartChar: onesuperior
Encoding: 185 185 121
Width: 255
Flags: W
LayerCount: 2
Fore
SplineSet
64 639 m 1,0,-1
 128 639 l 1,1,-1
 128 384 l 1,2,-1
 192 384 l 1,3,-1
 192 320 l 1,4,-1
 0 320 l 1,5,-1
 0 384 l 1,6,-1
 64 384 l 1,7,-1
 64 512 l 1,8,-1
 0 512 l 1,9,-1
 0 575 l 1,10,-1
 64 575 l 1,11,-1
 64 639 l 1,12,-1
 64 639 l 1,0,-1
EndSplineSet
EndChar

StartChar: ordmasculine
Encoding: 186 186 122
Width: 319
Flags: W
LayerCount: 2
Fore
SplineSet
64 639 m 1,0,-1
 192 639 l 1,1,-1
 192 575 l 1,2,-1
 64 575 l 1,3,-1
 64 639 l 1,4,-1
 64 639 l 1,0,-1
0 575 m 1,5,-1
 64 575 l 1,6,-1
 64 384 l 1,7,-1
 0 384 l 1,8,-1
 0 575 l 1,9,-1
 0 575 l 1,5,-1
192 575 m 1,10,-1
 256 575 l 1,11,-1
 256 384 l 1,12,-1
 192 384 l 1,13,-1
 192 575 l 1,14,-1
 192 575 l 1,10,-1
64 384 m 1,15,-1
 192 384 l 1,16,-1
 192 320 l 1,17,-1
 64 320 l 1,18,-1
 64 384 l 1,19,-1
 64 384 l 1,15,-1
EndSplineSet
EndChar

StartChar: guillemotright
Encoding: 187 187 123
Width: 447
Flags: W
LayerCount: 2
Fore
SplineSet
0 448 m 1,0,-1
 64 448 l 1,1,-1
 64 384 l 1,2,-1
 0 384 l 1,3,-1
 0 448 l 1,4,-1
 0 448 l 1,0,-1
192 448 m 1,5,-1
 256 448 l 1,6,-1
 256 384 l 1,7,-1
 192 384 l 1,8,-1
 192 448 l 1,9,-1
 192 448 l 1,5,-1
64 384 m 1,10,-1
 128 384 l 1,11,-1
 128 320 l 1,12,-1
 64 320 l 1,13,-1
 64 384 l 1,14,-1
 64 384 l 1,10,-1
256 384 m 1,15,-1
 320 384 l 1,16,-1
 320 320 l 1,17,-1
 256 320 l 1,18,-1
 256 384 l 1,19,-1
 256 384 l 1,15,-1
128 320 m 1,20,-1
 192 320 l 1,21,-1
 192 256 l 1,22,-1
 128 256 l 1,23,-1
 128 320 l 1,24,-1
 128 320 l 1,20,-1
320 320 m 1,25,-1
 384 320 l 1,26,-1
 384 256 l 1,27,-1
 320 256 l 1,28,-1
 320 320 l 1,29,-1
 320 320 l 1,25,-1
64 256 m 1,30,-1
 128 256 l 1,31,-1
 128 192 l 1,32,-1
 64 192 l 1,33,-1
 64 256 l 1,34,-1
 64 256 l 1,30,-1
256 256 m 1,35,-1
 320 256 l 1,36,-1
 320 192 l 1,37,-1
 256 192 l 1,38,-1
 256 256 l 1,39,-1
 256 256 l 1,35,-1
0 192 m 1,40,-1
 64 192 l 1,41,-1
 64 128 l 1,42,-1
 0 128 l 1,43,-1
 0 192 l 1,44,-1
 0 192 l 1,40,-1
192 192 m 1,45,-1
 256 192 l 1,46,-1
 256 128 l 1,47,-1
 192 128 l 1,48,-1
 192 192 l 1,49,-1
 192 192 l 1,45,-1
EndSplineSet
EndChar

StartChar: onequarter
Encoding: 188 188 124
Width: 447
Flags: W
LayerCount: 2
Fore
SplineSet
0 575 m 1,0,-1
 64 575 l 1,1,-1
 64 384 l 1,2,-1
 0 384 l 1,3,-1
 0 575 l 1,4,-1
 0 575 l 1,0,-1
256 575 m 1,5,-1
 320 575 l 1,6,-1
 320 448 l 1,7,-1
 256 448 l 1,8,-1
 256 575 l 1,9,-1
 256 575 l 1,5,-1
192 448 m 1,10,-1
 256 448 l 1,11,-1
 256 384 l 1,12,-1
 192 384 l 1,13,-1
 192 448 l 1,14,-1
 192 448 l 1,10,-1
128 384 m 1,15,-1
 192 384 l 1,16,-1
 192 256 l 1,17,-1
 128 256 l 1,18,-1
 128 384 l 1,19,-1
 128 384 l 1,15,-1
256 320 m 1,20,-1
 320 320 l 1,21,-1
 320 192 l 1,22,-1
 384 192 l 1,23,-1
 384 128 l 1,24,-1
 320 128 l 1,25,-1
 320 64 l 1,26,-1
 256 64 l 1,27,-1
 256 128 l 1,28,-1
 192 128 l 1,29,-1
 192 256 l 1,30,-1
 256 256 l 1,31,-1
 256 320 l 1,32,-1
 256 320 l 1,20,-1
64 256 m 1,33,-1
 128 256 l 1,34,-1
 128 128 l 1,35,-1
 64 128 l 1,36,-1
 64 256 l 1,37,-1
 64 256 l 1,33,-1
0 128 m 1,38,-1
 64 128 l 1,39,-1
 64 64 l 1,40,-1
 0 64 l 1,41,-1
 0 128 l 1,42,-1
 0 128 l 1,38,-1
EndSplineSet
EndChar

StartChar: onehalf
Encoding: 189 189 125
Width: 447
Flags: W
LayerCount: 2
Fore
SplineSet
0 575 m 1,0,-1
 64 575 l 1,1,-1
 64 384 l 1,2,-1
 0 384 l 1,3,-1
 0 575 l 1,4,-1
 0 575 l 1,0,-1
256 575 m 1,5,-1
 320 575 l 1,6,-1
 320 448 l 1,7,-1
 256 448 l 1,8,-1
 256 575 l 1,9,-1
 256 575 l 1,5,-1
192 448 m 1,10,-1
 256 448 l 1,11,-1
 256 384 l 1,12,-1
 192 384 l 1,13,-1
 192 448 l 1,14,-1
 192 448 l 1,10,-1
128 384 m 1,15,-1
 192 384 l 1,16,-1
 192 256 l 1,17,-1
 128 256 l 1,18,-1
 128 384 l 1,19,-1
 128 384 l 1,15,-1
256 320 m 1,20,-1
 320 320 l 1,21,-1
 320 256 l 1,22,-1
 256 256 l 1,23,-1
 256 320 l 1,24,-1
 256 320 l 1,20,-1
64 256 m 1,25,-1
 128 256 l 1,26,-1
 128 128 l 1,27,-1
 64 128 l 1,28,-1
 64 256 l 1,29,-1
 64 256 l 1,25,-1
320 256 m 1,30,-1
 384 256 l 1,31,-1
 384 192 l 1,32,-1
 320 192 l 1,33,-1
 320 256 l 1,34,-1
 320 256 l 1,30,-1
256 192 m 1,35,-1
 320 192 l 1,36,-1
 320 128 l 1,37,-1
 384 128 l 1,38,-1
 384 64 l 1,39,-1
 192 64 l 1,40,-1
 192 128 l 1,41,-1
 256 128 l 1,42,-1
 256 192 l 1,43,-1
 256 192 l 1,35,-1
0 128 m 1,44,-1
 64 128 l 1,45,-1
 64 64 l 1,46,-1
 0 64 l 1,47,-1
 0 128 l 1,48,-1
 0 128 l 1,44,-1
EndSplineSet
EndChar

StartChar: threequarters
Encoding: 190 190 126
Width: 447
Flags: W
LayerCount: 2
Fore
SplineSet
0 575 m 1,0,-1
 128 575 l 1,1,-1
 128 448 l 1,2,-1
 64 448 l 1,3,-1
 64 512 l 1,4,-1
 0 512 l 1,5,-1
 0 575 l 1,6,-1
 0 575 l 1,0,-1
256 575 m 1,7,-1
 320 575 l 1,8,-1
 320 448 l 1,9,-1
 256 448 l 1,10,-1
 256 575 l 1,11,-1
 256 575 l 1,7,-1
0 448 m 1,12,-1
 64 448 l 1,13,-1
 64 384 l 1,14,-1
 0 384 l 1,15,-1
 0 448 l 1,16,-1
 0 448 l 1,12,-1
192 448 m 1,17,-1
 256 448 l 1,18,-1
 256 384 l 1,19,-1
 192 384 l 1,20,-1
 192 448 l 1,21,-1
 192 448 l 1,17,-1
64 384 m 1,22,-1
 192 384 l 1,23,-1
 192 256 l 1,24,-1
 128 256 l 1,25,-1
 128 320 l 1,26,-1
 64 320 l 1,27,-1
 64 384 l 1,28,-1
 64 384 l 1,22,-1
0 320 m 1,29,-1
 64 320 l 1,30,-1
 64 256 l 1,31,-1
 0 256 l 1,32,-1
 0 320 l 1,33,-1
 0 320 l 1,29,-1
256 320 m 1,34,-1
 320 320 l 1,35,-1
 320 192 l 1,36,-1
 384 192 l 1,37,-1
 384 128 l 1,38,-1
 320 128 l 1,39,-1
 320 64 l 1,40,-1
 256 64 l 1,41,-1
 256 128 l 1,42,-1
 192 128 l 1,43,-1
 192 256 l 1,44,-1
 256 256 l 1,45,-1
 256 320 l 1,46,-1
 256 320 l 1,34,-1
64 256 m 1,47,-1
 128 256 l 1,48,-1
 128 128 l 1,49,-1
 64 128 l 1,50,-1
 64 256 l 1,51,-1
 64 256 l 1,47,-1
0 128 m 1,52,-1
 64 128 l 1,53,-1
 64 64 l 1,54,-1
 0 64 l 1,55,-1
 0 128 l 1,56,-1
 0 128 l 1,52,-1
EndSplineSet
EndChar

StartChar: questiondown
Encoding: 191 191 127
Width: 319
Flags: W
LayerCount: 2
Fore
SplineSet
64 448 m 1,0,-1
 128 448 l 1,1,-1
 128 384 l 1,2,-1
 64 384 l 1,3,-1
 64 448 l 1,4,-1
 64 448 l 1,0,-1
64 320 m 1,5,-1
 128 320 l 1,6,-1
 128 192 l 1,7,-1
 64 192 l 1,8,-1
 64 320 l 1,9,-1
 64 320 l 1,5,-1
0 192 m 1,10,-1
 64 192 l 1,11,-1
 64 64 l 1,12,-1
 0 64 l 1,13,-1
 0 192 l 1,14,-1
 0 192 l 1,10,-1
192 128 m 1,15,-1
 256 128 l 1,16,-1
 256 64 l 1,17,-1
 192 64 l 1,18,-1
 192 128 l 1,19,-1
 192 128 l 1,15,-1
64 64 m 1,20,-1
 192 64 l 1,21,-1
 192 0 l 1,22,-1
 64 0 l 1,23,-1
 64 64 l 1,24,-1
 64 64 l 1,20,-1
EndSplineSet
EndChar

StartChar: Agrave
Encoding: 192 192 128
Width: 319
Flags: W
LayerCount: 2
Fore
SplineSet
64 703 m 1,0,-1
 128 703 l 1,1,-1
 128 639 l 1,2,-1
 64 639 l 1,3,-1
 64 703 l 1,4,-1
 64 703 l 1,0,-1
128 639 m 1,5,-1
 192 639 l 1,6,-1
 192 575 l 1,7,-1
 128 575 l 1,8,-1
 128 639 l 1,9,-1
 128 639 l 1,5,-1
64 512 m 1,10,-1
 192 512 l 1,11,-1
 192 448 l 1,12,-1
 64 448 l 1,13,-1
 64 512 l 1,14,-1
 64 512 l 1,10,-1
0 448 m 1,15,-1
 64 448 l 1,16,-1
 64 320 l 1,17,-1
 192 320 l 1,18,-1
 192 448 l 1,19,-1
 256 448 l 1,20,-1
 256 64 l 1,21,-1
 192 64 l 1,22,-1
 192 256 l 1,23,-1
 64 256 l 1,24,-1
 64 64 l 1,25,-1
 0 64 l 1,26,-1
 0 448 l 1,27,-1
 0 448 l 1,15,-1
EndSplineSet
EndChar

StartChar: Aacute
Encoding: 193 193 129
Width: 319
Flags: W
LayerCount: 2
Fore
SplineSet
128 703 m 1,0,-1
 192 703 l 1,1,-1
 192 639 l 1,2,-1
 128 639 l 1,3,-1
 128 703 l 1,4,-1
 128 703 l 1,0,-1
64 639 m 1,5,-1
 128 639 l 1,6,-1
 128 575 l 1,7,-1
 64 575 l 1,8,-1
 64 639 l 1,9,-1
 64 639 l 1,5,-1
64 512 m 1,10,-1
 192 512 l 1,11,-1
 192 448 l 1,12,-1
 64 448 l 1,13,-1
 64 512 l 1,14,-1
 64 512 l 1,10,-1
0 448 m 1,15,-1
 64 448 l 1,16,-1
 64 320 l 1,17,-1
 192 320 l 1,18,-1
 192 448 l 1,19,-1
 256 448 l 1,20,-1
 256 64 l 1,21,-1
 192 64 l 1,22,-1
 192 256 l 1,23,-1
 64 256 l 1,24,-1
 64 64 l 1,25,-1
 0 64 l 1,26,-1
 0 448 l 1,27,-1
 0 448 l 1,15,-1
EndSplineSet
EndChar

StartChar: Acircumflex
Encoding: 194 194 130
Width: 319
Flags: W
LayerCount: 2
Fore
SplineSet
64 703 m 1,0,-1
 192 703 l 1,1,-1
 192 639 l 1,2,-1
 64 639 l 1,3,-1
 64 703 l 1,4,-1
 64 703 l 1,0,-1
0 639 m 1,5,-1
 64 639 l 1,6,-1
 64 575 l 1,7,-1
 0 575 l 1,8,-1
 0 639 l 1,9,-1
 0 639 l 1,5,-1
192 639 m 1,10,-1
 256 639 l 1,11,-1
 256 575 l 1,12,-1
 192 575 l 1,13,-1
 192 639 l 1,14,-1
 192 639 l 1,10,-1
64 512 m 1,15,-1
 192 512 l 1,16,-1
 192 448 l 1,17,-1
 64 448 l 1,18,-1
 64 512 l 1,19,-1
 64 512 l 1,15,-1
0 448 m 1,20,-1
 64 448 l 1,21,-1
 64 320 l 1,22,-1
 192 320 l 1,23,-1
 192 448 l 1,24,-1
 256 448 l 1,25,-1
 256 64 l 1,26,-1
 192 64 l 1,27,-1
 192 256 l 1,28,-1
 64 256 l 1,29,-1
 64 64 l 1,30,-1
 0 64 l 1,31,-1
 0 448 l 1,32,-1
 0 448 l 1,20,-1
EndSplineSet
EndChar

StartChar: Atilde
Encoding: 195 195 131
Width: 319
Flags: W
LayerCount: 2
Fore
SplineSet
64 703 m 1,0,-1
 128 703 l 1,1,-1
 128 639 l 1,2,-1
 64 639 l 1,3,-1
 64 703 l 1,4,-1
 64 703 l 1,0,-1
192 703 m 1,5,-1
 256 703 l 1,6,-1
 256 639 l 1,7,-1
 192 639 l 1,8,-1
 192 703 l 1,9,-1
 192 703 l 1,5,-1
0 639 m 1,10,-1
 64 639 l 1,11,-1
 64 575 l 1,12,-1
 0 575 l 1,13,-1
 0 639 l 1,14,-1
 0 639 l 1,10,-1
128 639 m 1,15,-1
 192 639 l 1,16,-1
 192 575 l 1,17,-1
 128 575 l 1,18,-1
 128 639 l 1,19,-1
 128 639 l 1,15,-1
64 512 m 1,20,-1
 192 512 l 1,21,-1
 192 448 l 1,22,-1
 64 448 l 1,23,-1
 64 512 l 1,24,-1
 64 512 l 1,20,-1
0 448 m 1,25,-1
 64 448 l 1,26,-1
 64 320 l 1,27,-1
 192 320 l 1,28,-1
 192 448 l 1,29,-1
 256 448 l 1,30,-1
 256 64 l 1,31,-1
 192 64 l 1,32,-1
 192 256 l 1,33,-1
 64 256 l 1,34,-1
 64 64 l 1,35,-1
 0 64 l 1,36,-1
 0 448 l 1,37,-1
 0 448 l 1,25,-1
EndSplineSet
EndChar

StartChar: Adieresis
Encoding: 196 196 132
Width: 319
Flags: W
LayerCount: 2
Fore
SplineSet
0 639 m 1,0,-1
 64 639 l 1,1,-1
 64 575 l 1,2,-1
 0 575 l 1,3,-1
 0 639 l 1,4,-1
 0 639 l 1,0,-1
192 639 m 1,5,-1
 256 639 l 1,6,-1
 256 575 l 1,7,-1
 192 575 l 1,8,-1
 192 639 l 1,9,-1
 192 639 l 1,5,-1
64 512 m 1,10,-1
 192 512 l 1,11,-1
 192 448 l 1,12,-1
 64 448 l 1,13,-1
 64 512 l 1,14,-1
 64 512 l 1,10,-1
0 448 m 1,15,-1
 64 448 l 1,16,-1
 64 320 l 1,17,-1
 192 320 l 1,18,-1
 192 448 l 1,19,-1
 256 448 l 1,20,-1
 256 64 l 1,21,-1
 192 64 l 1,22,-1
 192 256 l 1,23,-1
 64 256 l 1,24,-1
 64 64 l 1,25,-1
 0 64 l 1,26,-1
 0 448 l 1,27,-1
 0 448 l 1,15,-1
EndSplineSet
EndChar

StartChar: Aring
Encoding: 197 197 133
Width: 319
Flags: W
LayerCount: 2
Fore
SplineSet
128 703 m 1,0,-1
 192 703 l 1,1,-1
 192 639 l 1,2,-1
 128 639 l 1,3,-1
 128 703 l 1,4,-1
 128 703 l 1,0,-1
64 639 m 1,5,-1
 128 639 l 1,6,-1
 128 575 l 1,7,-1
 64 575 l 1,8,-1
 64 639 l 1,9,-1
 64 639 l 1,5,-1
192 639 m 1,10,-1
 256 639 l 1,11,-1
 256 575 l 1,12,-1
 192 575 l 1,13,-1
 192 639 l 1,14,-1
 192 639 l 1,10,-1
128 575 m 1,15,-1
 192 575 l 1,16,-1
 192 448 l 1,17,-1
 64 448 l 1,18,-1
 64 512 l 1,19,-1
 128 512 l 1,20,-1
 128 575 l 1,21,-1
 128 575 l 1,15,-1
0 448 m 1,22,-1
 64 448 l 1,23,-1
 64 320 l 1,24,-1
 192 320 l 1,25,-1
 192 448 l 1,26,-1
 256 448 l 1,27,-1
 256 64 l 1,28,-1
 192 64 l 1,29,-1
 192 256 l 1,30,-1
 64 256 l 1,31,-1
 64 64 l 1,32,-1
 0 64 l 1,33,-1
 0 448 l 1,34,-1
 0 448 l 1,22,-1
EndSplineSet
EndChar

StartChar: AE
Encoding: 198 198 134
Width: 383
Flags: W
LayerCount: 2
Fore
SplineSet
64 512 m 1,0,-1
 320 512 l 1,1,-1
 320 448 l 1,2,-1
 192 448 l 1,3,-1
 192 320 l 1,4,-1
 256 320 l 1,5,-1
 256 256 l 1,6,-1
 192 256 l 1,7,-1
 192 128 l 1,8,-1
 320 128 l 1,9,-1
 320 64 l 1,10,-1
 128 64 l 1,11,-1
 128 256 l 1,12,-1
 64 256 l 1,13,-1
 64 64 l 1,14,-1
 0 64 l 1,15,-1
 0 448 l 1,16,-1
 64 448 l 1,17,-1
 64 320 l 1,18,-1
 128 320 l 1,19,-1
 128 448 l 1,20,-1
 64 448 l 1,21,-1
 64 512 l 1,22,-1
 64 512 l 1,0,-1
EndSplineSet
EndChar

StartChar: Ccedilla
Encoding: 199 199 135
Width: 319
Flags: W
LayerCount: 2
Fore
SplineSet
64 512 m 1,0,-1
 192 512 l 1,1,-1
 192 448 l 1,2,-1
 64 448 l 1,3,-1
 64 512 l 1,4,-1
 64 512 l 1,0,-1
0 448 m 1,5,-1
 64 448 l 1,6,-1
 64 192 l 1,7,-1
 0 192 l 1,8,-1
 0 448 l 1,9,-1
 0 448 l 1,5,-1
192 448 m 1,10,-1
 256 448 l 1,11,-1
 256 384 l 1,12,-1
 192 384 l 1,13,-1
 192 448 l 1,14,-1
 192 448 l 1,10,-1
192 256 m 1,15,-1
 256 256 l 1,16,-1
 256 192 l 1,17,-1
 192 192 l 1,18,-1
 192 256 l 1,19,-1
 192 256 l 1,15,-1
64 192 m 1,20,-1
 192 192 l 1,21,-1
 192 64 l 1,22,-1
 128 64 l 1,23,-1
 128 128 l 1,24,-1
 64 128 l 1,25,-1
 64 192 l 1,26,-1
 64 192 l 1,20,-1
64 64 m 1,27,-1
 128 64 l 1,28,-1
 128 0 l 1,29,-1
 64 0 l 1,30,-1
 64 64 l 1,31,-1
 64 64 l 1,27,-1
EndSplineSet
EndChar

StartChar: Egrave
Encoding: 200 200 136
Width: 319
Flags: W
LayerCount: 2
Fore
SplineSet
64 703 m 1,0,-1
 128 703 l 1,1,-1
 128 639 l 1,2,-1
 64 639 l 1,3,-1
 64 703 l 1,4,-1
 64 703 l 1,0,-1
128 639 m 1,5,-1
 192 639 l 1,6,-1
 192 575 l 1,7,-1
 128 575 l 1,8,-1
 128 639 l 1,9,-1
 128 639 l 1,5,-1
0 512 m 1,10,-1
 256 512 l 1,11,-1
 256 448 l 1,12,-1
 64 448 l 1,13,-1
 64 320 l 1,14,-1
 192 320 l 1,15,-1
 192 256 l 1,16,-1
 64 256 l 1,17,-1
 64 128 l 1,18,-1
 256 128 l 1,19,-1
 256 64 l 1,20,-1
 0 64 l 1,21,-1
 0 512 l 1,22,-1
 0 512 l 1,10,-1
EndSplineSet
EndChar

StartChar: Eacute
Encoding: 201 201 137
Width: 319
Flags: W
LayerCount: 2
Fore
SplineSet
192 703 m 1,0,-1
 256 703 l 1,1,-1
 256 639 l 1,2,-1
 192 639 l 1,3,-1
 192 703 l 1,4,-1
 192 703 l 1,0,-1
128 639 m 1,5,-1
 192 639 l 1,6,-1
 192 575 l 1,7,-1
 128 575 l 1,8,-1
 128 639 l 1,9,-1
 128 639 l 1,5,-1
0 512 m 1,10,-1
 256 512 l 1,11,-1
 256 448 l 1,12,-1
 64 448 l 1,13,-1
 64 320 l 1,14,-1
 192 320 l 1,15,-1
 192 256 l 1,16,-1
 64 256 l 1,17,-1
 64 128 l 1,18,-1
 256 128 l 1,19,-1
 256 64 l 1,20,-1
 0 64 l 1,21,-1
 0 512 l 1,22,-1
 0 512 l 1,10,-1
EndSplineSet
EndChar

StartChar: Ecircumflex
Encoding: 202 202 138
Width: 319
Flags: W
LayerCount: 2
Fore
SplineSet
64 703 m 1,0,-1
 192 703 l 1,1,-1
 192 639 l 1,2,-1
 64 639 l 1,3,-1
 64 703 l 1,4,-1
 64 703 l 1,0,-1
0 639 m 1,5,-1
 64 639 l 1,6,-1
 64 575 l 1,7,-1
 0 575 l 1,8,-1
 0 639 l 1,9,-1
 0 639 l 1,5,-1
192 639 m 1,10,-1
 256 639 l 1,11,-1
 256 575 l 1,12,-1
 192 575 l 1,13,-1
 192 639 l 1,14,-1
 192 639 l 1,10,-1
0 512 m 1,15,-1
 256 512 l 1,16,-1
 256 448 l 1,17,-1
 64 448 l 1,18,-1
 64 320 l 1,19,-1
 192 320 l 1,20,-1
 192 256 l 1,21,-1
 64 256 l 1,22,-1
 64 128 l 1,23,-1
 256 128 l 1,24,-1
 256 64 l 1,25,-1
 0 64 l 1,26,-1
 0 512 l 1,27,-1
 0 512 l 1,15,-1
EndSplineSet
EndChar

StartChar: Edieresis
Encoding: 203 203 139
Width: 319
Flags: W
LayerCount: 2
Fore
SplineSet
0 639 m 1,0,-1
 64 639 l 1,1,-1
 64 575 l 1,2,-1
 0 575 l 1,3,-1
 0 639 l 1,4,-1
 0 639 l 1,0,-1
192 639 m 1,5,-1
 256 639 l 1,6,-1
 256 575 l 1,7,-1
 192 575 l 1,8,-1
 192 639 l 1,9,-1
 192 639 l 1,5,-1
0 512 m 1,10,-1
 256 512 l 1,11,-1
 256 448 l 1,12,-1
 64 448 l 1,13,-1
 64 320 l 1,14,-1
 192 320 l 1,15,-1
 192 256 l 1,16,-1
 64 256 l 1,17,-1
 64 128 l 1,18,-1
 256 128 l 1,19,-1
 256 64 l 1,20,-1
 0 64 l 1,21,-1
 0 512 l 1,22,-1
 0 512 l 1,10,-1
EndSplineSet
EndChar

StartChar: Igrave
Encoding: 204 204 140
Width: 255
Flags: W
LayerCount: 2
Fore
SplineSet
0 703 m 1,0,-1
 64 703 l 1,1,-1
 64 639 l 1,2,-1
 0 639 l 1,3,-1
 0 703 l 1,4,-1
 0 703 l 1,0,-1
64 639 m 1,5,-1
 128 639 l 1,6,-1
 128 575 l 1,7,-1
 64 575 l 1,8,-1
 64 639 l 1,9,-1
 64 639 l 1,5,-1
0 512 m 1,10,-1
 192 512 l 1,11,-1
 192 448 l 1,12,-1
 128 448 l 1,13,-1
 128 128 l 1,14,-1
 192 128 l 1,15,-1
 192 64 l 1,16,-1
 0 64 l 1,17,-1
 0 128 l 1,18,-1
 64 128 l 1,19,-1
 64 448 l 1,20,-1
 0 448 l 1,21,-1
 0 512 l 1,22,-1
 0 512 l 1,10,-1
EndSplineSet
EndChar

StartChar: Iacute
Encoding: 205 205 141
Width: 255
Flags: W
LayerCount: 2
Fore
SplineSet
128 703 m 1,0,-1
 192 703 l 1,1,-1
 192 639 l 1,2,-1
 128 639 l 1,3,-1
 128 703 l 1,4,-1
 128 703 l 1,0,-1
64 639 m 1,5,-1
 128 639 l 1,6,-1
 128 575 l 1,7,-1
 64 575 l 1,8,-1
 64 639 l 1,9,-1
 64 639 l 1,5,-1
0 512 m 1,10,-1
 192 512 l 1,11,-1
 192 448 l 1,12,-1
 128 448 l 1,13,-1
 128 128 l 1,14,-1
 192 128 l 1,15,-1
 192 64 l 1,16,-1
 0 64 l 1,17,-1
 0 128 l 1,18,-1
 64 128 l 1,19,-1
 64 448 l 1,20,-1
 0 448 l 1,21,-1
 0 512 l 1,22,-1
 0 512 l 1,10,-1
EndSplineSet
EndChar

StartChar: Icircumflex
Encoding: 206 206 142
Width: 255
Flags: W
LayerCount: 2
Fore
SplineSet
64 703 m 1,0,-1
 128 703 l 1,1,-1
 128 639 l 1,2,-1
 64 639 l 1,3,-1
 64 703 l 1,4,-1
 64 703 l 1,0,-1
0 639 m 1,5,-1
 64 639 l 1,6,-1
 64 575 l 1,7,-1
 0 575 l 1,8,-1
 0 639 l 1,9,-1
 0 639 l 1,5,-1
128 639 m 1,10,-1
 192 639 l 1,11,-1
 192 575 l 1,12,-1
 128 575 l 1,13,-1
 128 639 l 1,14,-1
 128 639 l 1,10,-1
0 512 m 1,15,-1
 192 512 l 1,16,-1
 192 448 l 1,17,-1
 128 448 l 1,18,-1
 128 128 l 1,19,-1
 192 128 l 1,20,-1
 192 64 l 1,21,-1
 0 64 l 1,22,-1
 0 128 l 1,23,-1
 64 128 l 1,24,-1
 64 448 l 1,25,-1
 0 448 l 1,26,-1
 0 512 l 1,27,-1
 0 512 l 1,15,-1
EndSplineSet
EndChar

StartChar: Idieresis
Encoding: 207 207 143
Width: 255
Flags: W
LayerCount: 2
Fore
SplineSet
0 639 m 1,0,-1
 64 639 l 1,1,-1
 64 575 l 1,2,-1
 0 575 l 1,3,-1
 0 639 l 1,4,-1
 0 639 l 1,0,-1
128 639 m 1,5,-1
 192 639 l 1,6,-1
 192 575 l 1,7,-1
 128 575 l 1,8,-1
 128 639 l 1,9,-1
 128 639 l 1,5,-1
0 512 m 1,10,-1
 192 512 l 1,11,-1
 192 448 l 1,12,-1
 128 448 l 1,13,-1
 128 128 l 1,14,-1
 192 128 l 1,15,-1
 192 64 l 1,16,-1
 0 64 l 1,17,-1
 0 128 l 1,18,-1
 64 128 l 1,19,-1
 64 448 l 1,20,-1
 0 448 l 1,21,-1
 0 512 l 1,22,-1
 0 512 l 1,10,-1
EndSplineSet
EndChar

StartChar: Eth
Encoding: 208 208 144
Width: 319
Flags: W
LayerCount: 2
Fore
SplineSet
64 512 m 1,0,-1
 192 512 l 1,1,-1
 192 448 l 1,2,-1
 128 448 l 1,3,-1
 128 128 l 1,4,-1
 192 128 l 1,5,-1
 192 64 l 1,6,-1
 64 64 l 1,7,-1
 64 256 l 1,8,-1
 0 256 l 1,9,-1
 0 320 l 1,10,-1
 64 320 l 1,11,-1
 64 512 l 1,12,-1
 64 512 l 1,0,-1
192 448 m 1,13,-1
 256 448 l 1,14,-1
 256 128 l 1,15,-1
 192 128 l 1,16,-1
 192 448 l 1,17,-1
 192 448 l 1,13,-1
EndSplineSet
EndChar

StartChar: Ntilde
Encoding: 209 209 145
Width: 319
Flags: W
LayerCount: 2
Fore
SplineSet
64 703 m 1,0,-1
 128 703 l 1,1,-1
 128 639 l 1,2,-1
 64 639 l 1,3,-1
 64 703 l 1,4,-1
 64 703 l 1,0,-1
192 703 m 1,5,-1
 256 703 l 1,6,-1
 256 639 l 1,7,-1
 192 639 l 1,8,-1
 192 703 l 1,9,-1
 192 703 l 1,5,-1
0 639 m 1,10,-1
 64 639 l 1,11,-1
 64 575 l 1,12,-1
 0 575 l 1,13,-1
 0 639 l 1,14,-1
 0 639 l 1,10,-1
128 639 m 1,15,-1
 192 639 l 1,16,-1
 192 575 l 1,17,-1
 128 575 l 1,18,-1
 128 639 l 1,19,-1
 128 639 l 1,15,-1
0 512 m 1,20,-1
 64 512 l 1,21,-1
 64 448 l 1,22,-1
 128 448 l 1,23,-1
 128 320 l 1,24,-1
 64 320 l 1,25,-1
 64 64 l 1,26,-1
 0 64 l 1,27,-1
 0 512 l 1,28,-1
 0 512 l 1,20,-1
192 512 m 1,29,-1
 256 512 l 1,30,-1
 256 64 l 1,31,-1
 192 64 l 1,32,-1
 192 192 l 1,33,-1
 128 192 l 1,34,-1
 128 320 l 1,35,-1
 192 320 l 1,36,-1
 192 512 l 1,37,-1
 192 512 l 1,29,-1
EndSplineSet
EndChar

StartChar: Ograve
Encoding: 210 210 146
Width: 319
Flags: W
LayerCount: 2
Fore
SplineSet
0 703 m 1,0,-1
 64 703 l 1,1,-1
 64 639 l 1,2,-1
 0 639 l 1,3,-1
 0 703 l 1,4,-1
 0 703 l 1,0,-1
64 639 m 1,5,-1
 128 639 l 1,6,-1
 128 575 l 1,7,-1
 64 575 l 1,8,-1
 64 639 l 1,9,-1
 64 639 l 1,5,-1
64 512 m 1,10,-1
 192 512 l 1,11,-1
 192 448 l 1,12,-1
 64 448 l 1,13,-1
 64 512 l 1,14,-1
 64 512 l 1,10,-1
0 448 m 1,15,-1
 64 448 l 1,16,-1
 64 128 l 1,17,-1
 0 128 l 1,18,-1
 0 448 l 1,19,-1
 0 448 l 1,15,-1
192 448 m 1,20,-1
 256 448 l 1,21,-1
 256 128 l 1,22,-1
 192 128 l 1,23,-1
 192 448 l 1,24,-1
 192 448 l 1,20,-1
64 128 m 1,25,-1
 192 128 l 1,26,-1
 192 64 l 1,27,-1
 64 64 l 1,28,-1
 64 128 l 1,29,-1
 64 128 l 1,25,-1
EndSplineSet
EndChar

StartChar: Oacute
Encoding: 211 211 147
Width: 319
Flags: W
LayerCount: 2
Fore
SplineSet
192 703 m 1,0,-1
 256 703 l 1,1,-1
 256 639 l 1,2,-1
 192 639 l 1,3,-1
 192 703 l 1,4,-1
 192 703 l 1,0,-1
128 639 m 1,5,-1
 192 639 l 1,6,-1
 192 575 l 1,7,-1
 128 575 l 1,8,-1
 128 639 l 1,9,-1
 128 639 l 1,5,-1
64 512 m 1,10,-1
 192 512 l 1,11,-1
 192 448 l 1,12,-1
 64 448 l 1,13,-1
 64 512 l 1,14,-1
 64 512 l 1,10,-1
0 448 m 1,15,-1
 64 448 l 1,16,-1
 64 128 l 1,17,-1
 0 128 l 1,18,-1
 0 448 l 1,19,-1
 0 448 l 1,15,-1
192 448 m 1,20,-1
 256 448 l 1,21,-1
 256 128 l 1,22,-1
 192 128 l 1,23,-1
 192 448 l 1,24,-1
 192 448 l 1,20,-1
64 128 m 1,25,-1
 192 128 l 1,26,-1
 192 64 l 1,27,-1
 64 64 l 1,28,-1
 64 128 l 1,29,-1
 64 128 l 1,25,-1
EndSplineSet
EndChar

StartChar: Ocircumflex
Encoding: 212 212 148
Width: 319
Flags: W
LayerCount: 2
Fore
SplineSet
64 703 m 1,0,-1
 192 703 l 1,1,-1
 192 639 l 1,2,-1
 64 639 l 1,3,-1
 64 703 l 1,4,-1
 64 703 l 1,0,-1
0 639 m 1,5,-1
 64 639 l 1,6,-1
 64 575 l 1,7,-1
 0 575 l 1,8,-1
 0 639 l 1,9,-1
 0 639 l 1,5,-1
192 639 m 1,10,-1
 256 639 l 1,11,-1
 256 575 l 1,12,-1
 192 575 l 1,13,-1
 192 639 l 1,14,-1
 192 639 l 1,10,-1
64 512 m 1,15,-1
 192 512 l 1,16,-1
 192 448 l 1,17,-1
 64 448 l 1,18,-1
 64 512 l 1,19,-1
 64 512 l 1,15,-1
0 448 m 1,20,-1
 64 448 l 1,21,-1
 64 128 l 1,22,-1
 0 128 l 1,23,-1
 0 448 l 1,24,-1
 0 448 l 1,20,-1
192 448 m 1,25,-1
 256 448 l 1,26,-1
 256 128 l 1,27,-1
 192 128 l 1,28,-1
 192 448 l 1,29,-1
 192 448 l 1,25,-1
64 128 m 1,30,-1
 192 128 l 1,31,-1
 192 64 l 1,32,-1
 64 64 l 1,33,-1
 64 128 l 1,34,-1
 64 128 l 1,30,-1
EndSplineSet
EndChar

StartChar: Otilde
Encoding: 213 213 149
Width: 319
Flags: W
LayerCount: 2
Fore
SplineSet
64 703 m 1,0,-1
 128 703 l 1,1,-1
 128 639 l 1,2,-1
 64 639 l 1,3,-1
 64 703 l 1,4,-1
 64 703 l 1,0,-1
192 703 m 1,5,-1
 256 703 l 1,6,-1
 256 639 l 1,7,-1
 192 639 l 1,8,-1
 192 703 l 1,9,-1
 192 703 l 1,5,-1
0 639 m 1,10,-1
 64 639 l 1,11,-1
 64 575 l 1,12,-1
 0 575 l 1,13,-1
 0 639 l 1,14,-1
 0 639 l 1,10,-1
128 639 m 1,15,-1
 192 639 l 1,16,-1
 192 575 l 1,17,-1
 128 575 l 1,18,-1
 128 639 l 1,19,-1
 128 639 l 1,15,-1
64 512 m 1,20,-1
 192 512 l 1,21,-1
 192 448 l 1,22,-1
 64 448 l 1,23,-1
 64 512 l 1,24,-1
 64 512 l 1,20,-1
0 448 m 1,25,-1
 64 448 l 1,26,-1
 64 128 l 1,27,-1
 0 128 l 1,28,-1
 0 448 l 1,29,-1
 0 448 l 1,25,-1
192 448 m 1,30,-1
 256 448 l 1,31,-1
 256 128 l 1,32,-1
 192 128 l 1,33,-1
 192 448 l 1,34,-1
 192 448 l 1,30,-1
64 128 m 1,35,-1
 192 128 l 1,36,-1
 192 64 l 1,37,-1
 64 64 l 1,38,-1
 64 128 l 1,39,-1
 64 128 l 1,35,-1
EndSplineSet
EndChar

StartChar: Odieresis
Encoding: 214 214 150
Width: 319
Flags: W
LayerCount: 2
Fore
SplineSet
0 639 m 1,0,-1
 64 639 l 1,1,-1
 64 575 l 1,2,-1
 0 575 l 1,3,-1
 0 639 l 1,4,-1
 0 639 l 1,0,-1
192 639 m 1,5,-1
 256 639 l 1,6,-1
 256 575 l 1,7,-1
 192 575 l 1,8,-1
 192 639 l 1,9,-1
 192 639 l 1,5,-1
64 512 m 1,10,-1
 192 512 l 1,11,-1
 192 448 l 1,12,-1
 64 448 l 1,13,-1
 64 512 l 1,14,-1
 64 512 l 1,10,-1
0 448 m 1,15,-1
 64 448 l 1,16,-1
 64 128 l 1,17,-1
 0 128 l 1,18,-1
 0 448 l 1,19,-1
 0 448 l 1,15,-1
192 448 m 1,20,-1
 256 448 l 1,21,-1
 256 128 l 1,22,-1
 192 128 l 1,23,-1
 192 448 l 1,24,-1
 192 448 l 1,20,-1
64 128 m 1,25,-1
 192 128 l 1,26,-1
 192 64 l 1,27,-1
 64 64 l 1,28,-1
 64 128 l 1,29,-1
 64 128 l 1,25,-1
EndSplineSet
EndChar

StartChar: multiply
Encoding: 215 215 151
Width: 383
Flags: W
LayerCount: 2
Fore
SplineSet
0 448 m 1,0,-1
 64 448 l 1,1,-1
 64 384 l 1,2,-1
 0 384 l 1,3,-1
 0 448 l 1,4,-1
 0 448 l 1,0,-1
256 448 m 1,5,-1
 320 448 l 1,6,-1
 320 384 l 1,7,-1
 256 384 l 1,8,-1
 256 448 l 1,9,-1
 256 448 l 1,5,-1
64 384 m 1,10,-1
 128 384 l 1,11,-1
 128 320 l 1,12,-1
 64 320 l 1,13,-1
 64 384 l 1,14,-1
 64 384 l 1,10,-1
192 384 m 1,15,-1
 256 384 l 1,16,-1
 256 320 l 1,17,-1
 192 320 l 1,18,-1
 192 384 l 1,19,-1
 192 384 l 1,15,-1
128 320 m 1,20,-1
 192 320 l 1,21,-1
 192 256 l 1,22,-1
 128 256 l 1,23,-1
 128 320 l 1,24,-1
 128 320 l 1,20,-1
64 256 m 1,25,-1
 128 256 l 1,26,-1
 128 192 l 1,27,-1
 64 192 l 1,28,-1
 64 256 l 1,29,-1
 64 256 l 1,25,-1
192 256 m 1,30,-1
 256 256 l 1,31,-1
 256 192 l 1,32,-1
 192 192 l 1,33,-1
 192 256 l 1,34,-1
 192 256 l 1,30,-1
0 192 m 1,35,-1
 64 192 l 1,36,-1
 64 128 l 1,37,-1
 0 128 l 1,38,-1
 0 192 l 1,39,-1
 0 192 l 1,35,-1
256 192 m 1,40,-1
 320 192 l 1,41,-1
 320 128 l 1,42,-1
 256 128 l 1,43,-1
 256 192 l 1,44,-1
 256 192 l 1,40,-1
EndSplineSet
EndChar

StartChar: Oslash
Encoding: 216 216 152
Width: 319
Flags: W
LayerCount: 2
Fore
SplineSet
192 575 m 1,0,-1
 256 575 l 1,1,-1
 256 512 l 1,2,-1
 192 512 l 1,3,-1
 192 575 l 1,4,-1
 192 575 l 1,0,-1
64 512 m 1,5,-1
 192 512 l 1,6,-1
 192 448 l 1,7,-1
 256 448 l 1,8,-1
 256 128 l 1,9,-1
 192 128 l 1,10,-1
 192 320 l 1,11,-1
 128 320 l 1,12,-1
 128 448 l 1,13,-1
 64 448 l 1,14,-1
 64 512 l 1,15,-1
 64 512 l 1,5,-1
0 448 m 1,16,-1
 64 448 l 1,17,-1
 64 320 l 1,18,-1
 128 320 l 1,19,-1
 128 192 l 1,20,-1
 64 192 l 1,21,-1
 64 128 l 1,22,-1
 0 128 l 1,23,-1
 0 448 l 1,24,-1
 0 448 l 1,16,-1
64 128 m 1,25,-1
 192 128 l 1,26,-1
 192 64 l 1,27,-1
 64 64 l 1,28,-1
 64 128 l 1,29,-1
 64 128 l 1,25,-1
0 64 m 1,30,-1
 64 64 l 1,31,-1
 64 0 l 1,32,-1
 0 0 l 1,33,-1
 0 64 l 1,34,-1
 0 64 l 1,30,-1
EndSplineSet
EndChar

StartChar: Ugrave
Encoding: 217 217 153
Width: 319
Flags: W
LayerCount: 2
Fore
SplineSet
0 703 m 1,0,-1
 64 703 l 1,1,-1
 64 639 l 1,2,-1
 0 639 l 1,3,-1
 0 703 l 1,4,-1
 0 703 l 1,0,-1
64 639 m 1,5,-1
 128 639 l 1,6,-1
 128 575 l 1,7,-1
 64 575 l 1,8,-1
 64 639 l 1,9,-1
 64 639 l 1,5,-1
0 512 m 1,10,-1
 64 512 l 1,11,-1
 64 128 l 1,12,-1
 0 128 l 1,13,-1
 0 512 l 1,14,-1
 0 512 l 1,10,-1
192 512 m 1,15,-1
 256 512 l 1,16,-1
 256 128 l 1,17,-1
 192 128 l 1,18,-1
 192 512 l 1,19,-1
 192 512 l 1,15,-1
64 128 m 1,20,-1
 192 128 l 1,21,-1
 192 64 l 1,22,-1
 64 64 l 1,23,-1
 64 128 l 1,24,-1
 64 128 l 1,20,-1
EndSplineSet
EndChar

StartChar: Uacute
Encoding: 218 218 154
Width: 319
Flags: W
LayerCount: 2
Fore
SplineSet
192 703 m 1,0,-1
 256 703 l 1,1,-1
 256 639 l 1,2,-1
 192 639 l 1,3,-1
 192 703 l 1,4,-1
 192 703 l 1,0,-1
128 639 m 1,5,-1
 192 639 l 1,6,-1
 192 575 l 1,7,-1
 128 575 l 1,8,-1
 128 639 l 1,9,-1
 128 639 l 1,5,-1
0 512 m 1,10,-1
 64 512 l 1,11,-1
 64 128 l 1,12,-1
 0 128 l 1,13,-1
 0 512 l 1,14,-1
 0 512 l 1,10,-1
192 512 m 1,15,-1
 256 512 l 1,16,-1
 256 128 l 1,17,-1
 192 128 l 1,18,-1
 192 512 l 1,19,-1
 192 512 l 1,15,-1
64 128 m 1,20,-1
 192 128 l 1,21,-1
 192 64 l 1,22,-1
 64 64 l 1,23,-1
 64 128 l 1,24,-1
 64 128 l 1,20,-1
EndSplineSet
EndChar

StartChar: Ucircumflex
Encoding: 219 219 155
Width: 319
Flags: W
LayerCount: 2
Fore
SplineSet
64 703 m 1,0,-1
 192 703 l 1,1,-1
 192 639 l 1,2,-1
 64 639 l 1,3,-1
 64 703 l 1,4,-1
 64 703 l 1,0,-1
0 639 m 1,5,-1
 64 639 l 1,6,-1
 64 575 l 1,7,-1
 0 575 l 1,8,-1
 0 639 l 1,9,-1
 0 639 l 1,5,-1
192 639 m 1,10,-1
 256 639 l 1,11,-1
 256 575 l 1,12,-1
 192 575 l 1,13,-1
 192 639 l 1,14,-1
 192 639 l 1,10,-1
0 512 m 1,15,-1
 64 512 l 1,16,-1
 64 128 l 1,17,-1
 0 128 l 1,18,-1
 0 512 l 1,19,-1
 0 512 l 1,15,-1
192 512 m 1,20,-1
 256 512 l 1,21,-1
 256 128 l 1,22,-1
 192 128 l 1,23,-1
 192 512 l 1,24,-1
 192 512 l 1,20,-1
64 128 m 1,25,-1
 192 128 l 1,26,-1
 192 64 l 1,27,-1
 64 64 l 1,28,-1
 64 128 l 1,29,-1
 64 128 l 1,25,-1
EndSplineSet
EndChar

StartChar: Udieresis
Encoding: 220 220 156
Width: 319
Flags: W
LayerCount: 2
Fore
SplineSet
0 639 m 1,0,-1
 64 639 l 1,1,-1
 64 575 l 1,2,-1
 0 575 l 1,3,-1
 0 639 l 1,4,-1
 0 639 l 1,0,-1
192 639 m 1,5,-1
 256 639 l 1,6,-1
 256 575 l 1,7,-1
 192 575 l 1,8,-1
 192 639 l 1,9,-1
 192 639 l 1,5,-1
0 512 m 1,10,-1
 64 512 l 1,11,-1
 64 128 l 1,12,-1
 0 128 l 1,13,-1
 0 512 l 1,14,-1
 0 512 l 1,10,-1
192 512 m 1,15,-1
 256 512 l 1,16,-1
 256 128 l 1,17,-1
 192 128 l 1,18,-1
 192 512 l 1,19,-1
 192 512 l 1,15,-1
64 128 m 1,20,-1
 192 128 l 1,21,-1
 192 64 l 1,22,-1
 64 64 l 1,23,-1
 64 128 l 1,24,-1
 64 128 l 1,20,-1
EndSplineSet
EndChar

StartChar: Yacute
Encoding: 221 221 157
Width: 255
Flags: W
LayerCount: 2
Fore
SplineSet
128 703 m 1,0,-1
 192 703 l 1,1,-1
 192 639 l 1,2,-1
 128 639 l 1,3,-1
 128 703 l 1,4,-1
 128 703 l 1,0,-1
64 639 m 1,5,-1
 128 639 l 1,6,-1
 128 575 l 1,7,-1
 64 575 l 1,8,-1
 64 639 l 1,9,-1
 64 639 l 1,5,-1
0 512 m 1,10,-1
 64 512 l 1,11,-1
 64 256 l 1,12,-1
 0 256 l 1,13,-1
 0 512 l 1,14,-1
 0 512 l 1,10,-1
128 512 m 1,15,-1
 192 512 l 1,16,-1
 192 256 l 1,17,-1
 128 256 l 1,18,-1
 128 512 l 1,19,-1
 128 512 l 1,15,-1
64 256 m 1,20,-1
 128 256 l 1,21,-1
 128 64 l 1,22,-1
 64 64 l 1,23,-1
 64 256 l 1,24,-1
 64 256 l 1,20,-1
EndSplineSet
EndChar

StartChar: Thorn
Encoding: 222 222 158
Width: 319
Flags: W
LayerCount: 2
Fore
SplineSet
0 512 m 1,0,-1
 64 512 l 1,1,-1
 64 448 l 1,2,-1
 192 448 l 1,3,-1
 192 384 l 1,4,-1
 64 384 l 1,5,-1
 64 192 l 1,6,-1
 192 192 l 1,7,-1
 192 128 l 1,8,-1
 64 128 l 1,9,-1
 64 64 l 1,10,-1
 0 64 l 1,11,-1
 0 512 l 1,12,-1
 0 512 l 1,0,-1
192 384 m 1,13,-1
 256 384 l 1,14,-1
 256 192 l 1,15,-1
 192 192 l 1,16,-1
 192 384 l 1,17,-1
 192 384 l 1,13,-1
EndSplineSet
EndChar

StartChar: germandbls
Encoding: 223 223 159
Width: 319
Flags: W
LayerCount: 2
Fore
SplineSet
64 512 m 1,0,-1
 192 512 l 1,1,-1
 192 448 l 1,2,-1
 64 448 l 1,3,-1
 64 512 l 1,4,-1
 64 512 l 1,0,-1
0 448 m 1,5,-1
 64 448 l 1,6,-1
 64 320 l 1,7,-1
 192 320 l 1,8,-1
 192 256 l 1,9,-1
 64 256 l 1,10,-1
 64 128 l 1,11,-1
 192 128 l 1,12,-1
 192 64 l 1,13,-1
 64 64 l 1,14,-1
 64 0 l 1,15,-1
 0 0 l 1,16,-1
 0 448 l 1,17,-1
 0 448 l 1,5,-1
192 448 m 1,18,-1
 256 448 l 1,19,-1
 256 320 l 1,20,-1
 192 320 l 1,21,-1
 192 448 l 1,22,-1
 192 448 l 1,18,-1
192 256 m 1,23,-1
 256 256 l 1,24,-1
 256 128 l 1,25,-1
 192 128 l 1,26,-1
 192 256 l 1,27,-1
 192 256 l 1,23,-1
EndSplineSet
EndChar

StartChar: agrave
Encoding: 224 224 160
Width: 319
Flags: W
LayerCount: 2
Fore
SplineSet
64 575 m 1,0,-1
 128 575 l 1,1,-1
 128 512 l 1,2,-1
 64 512 l 1,3,-1
 64 575 l 1,4,-1
 64 575 l 1,0,-1
128 512 m 1,5,-1
 192 512 l 1,6,-1
 192 448 l 1,7,-1
 128 448 l 1,8,-1
 128 512 l 1,9,-1
 128 512 l 1,5,-1
64 384 m 1,10,-1
 256 384 l 1,11,-1
 256 64 l 1,12,-1
 192 64 l 1,13,-1
 192 128 l 1,14,-1
 128 128 l 1,15,-1
 128 192 l 1,16,-1
 192 192 l 1,17,-1
 192 320 l 1,18,-1
 64 320 l 1,19,-1
 64 384 l 1,20,-1
 64 384 l 1,10,-1
0 320 m 1,21,-1
 64 320 l 1,22,-1
 64 128 l 1,23,-1
 0 128 l 1,24,-1
 0 320 l 1,25,-1
 0 320 l 1,21,-1
64 128 m 1,26,-1
 128 128 l 1,27,-1
 128 64 l 1,28,-1
 64 64 l 1,29,-1
 64 128 l 1,30,-1
 64 128 l 1,26,-1
EndSplineSet
EndChar

StartChar: aacute
Encoding: 225 225 161
Width: 319
Flags: W
LayerCount: 2
Fore
SplineSet
128 575 m 1,0,-1
 192 575 l 1,1,-1
 192 512 l 1,2,-1
 128 512 l 1,3,-1
 128 575 l 1,4,-1
 128 575 l 1,0,-1
64 512 m 1,5,-1
 128 512 l 1,6,-1
 128 448 l 1,7,-1
 64 448 l 1,8,-1
 64 512 l 1,9,-1
 64 512 l 1,5,-1
64 384 m 1,10,-1
 256 384 l 1,11,-1
 256 64 l 1,12,-1
 192 64 l 1,13,-1
 192 128 l 1,14,-1
 128 128 l 1,15,-1
 128 192 l 1,16,-1
 192 192 l 1,17,-1
 192 320 l 1,18,-1
 64 320 l 1,19,-1
 64 384 l 1,20,-1
 64 384 l 1,10,-1
0 320 m 1,21,-1
 64 320 l 1,22,-1
 64 128 l 1,23,-1
 0 128 l 1,24,-1
 0 320 l 1,25,-1
 0 320 l 1,21,-1
64 128 m 1,26,-1
 128 128 l 1,27,-1
 128 64 l 1,28,-1
 64 64 l 1,29,-1
 64 128 l 1,30,-1
 64 128 l 1,26,-1
EndSplineSet
EndChar

StartChar: acircumflex
Encoding: 226 226 162
Width: 319
Flags: W
LayerCount: 2
Fore
SplineSet
64 575 m 1,0,-1
 192 575 l 1,1,-1
 192 512 l 1,2,-1
 64 512 l 1,3,-1
 64 575 l 1,4,-1
 64 575 l 1,0,-1
0 512 m 1,5,-1
 64 512 l 1,6,-1
 64 448 l 1,7,-1
 0 448 l 1,8,-1
 0 512 l 1,9,-1
 0 512 l 1,5,-1
192 512 m 1,10,-1
 256 512 l 1,11,-1
 256 448 l 1,12,-1
 192 448 l 1,13,-1
 192 512 l 1,14,-1
 192 512 l 1,10,-1
64 384 m 1,15,-1
 256 384 l 1,16,-1
 256 64 l 1,17,-1
 192 64 l 1,18,-1
 192 128 l 1,19,-1
 128 128 l 1,20,-1
 128 192 l 1,21,-1
 192 192 l 1,22,-1
 192 320 l 1,23,-1
 64 320 l 1,24,-1
 64 384 l 1,25,-1
 64 384 l 1,15,-1
0 320 m 1,26,-1
 64 320 l 1,27,-1
 64 128 l 1,28,-1
 0 128 l 1,29,-1
 0 320 l 1,30,-1
 0 320 l 1,26,-1
64 128 m 1,31,-1
 128 128 l 1,32,-1
 128 64 l 1,33,-1
 64 64 l 1,34,-1
 64 128 l 1,35,-1
 64 128 l 1,31,-1
EndSplineSet
EndChar

StartChar: atilde
Encoding: 227 227 163
Width: 319
Flags: W
LayerCount: 2
Fore
SplineSet
64 575 m 1,0,-1
 128 575 l 1,1,-1
 128 512 l 1,2,-1
 64 512 l 1,3,-1
 64 575 l 1,4,-1
 64 575 l 1,0,-1
192 575 m 1,5,-1
 256 575 l 1,6,-1
 256 512 l 1,7,-1
 192 512 l 1,8,-1
 192 575 l 1,9,-1
 192 575 l 1,5,-1
0 512 m 1,10,-1
 64 512 l 1,11,-1
 64 448 l 1,12,-1
 0 448 l 1,13,-1
 0 512 l 1,14,-1
 0 512 l 1,10,-1
128 512 m 1,15,-1
 192 512 l 1,16,-1
 192 448 l 1,17,-1
 128 448 l 1,18,-1
 128 512 l 1,19,-1
 128 512 l 1,15,-1
64 384 m 1,20,-1
 256 384 l 1,21,-1
 256 64 l 1,22,-1
 192 64 l 1,23,-1
 192 128 l 1,24,-1
 128 128 l 1,25,-1
 128 192 l 1,26,-1
 192 192 l 1,27,-1
 192 320 l 1,28,-1
 64 320 l 1,29,-1
 64 384 l 1,30,-1
 64 384 l 1,20,-1
0 320 m 1,31,-1
 64 320 l 1,32,-1
 64 128 l 1,33,-1
 0 128 l 1,34,-1
 0 320 l 1,35,-1
 0 320 l 1,31,-1
64 128 m 1,36,-1
 128 128 l 1,37,-1
 128 64 l 1,38,-1
 64 64 l 1,39,-1
 64 128 l 1,40,-1
 64 128 l 1,36,-1
EndSplineSet
EndChar

StartChar: adieresis
Encoding: 228 228 164
Width: 319
Flags: W
LayerCount: 2
Fore
SplineSet
0 512 m 1,0,-1
 64 512 l 1,1,-1
 64 448 l 1,2,-1
 0 448 l 1,3,-1
 0 512 l 1,4,-1
 0 512 l 1,0,-1
192 512 m 1,5,-1
 256 512 l 1,6,-1
 256 448 l 1,7,-1
 192 448 l 1,8,-1
 192 512 l 1,9,-1
 192 512 l 1,5,-1
64 384 m 1,10,-1
 256 384 l 1,11,-1
 256 64 l 1,12,-1
 192 64 l 1,13,-1
 192 128 l 1,14,-1
 128 128 l 1,15,-1
 128 192 l 1,16,-1
 192 192 l 1,17,-1
 192 320 l 1,18,-1
 64 320 l 1,19,-1
 64 384 l 1,20,-1
 64 384 l 1,10,-1
0 320 m 1,21,-1
 64 320 l 1,22,-1
 64 128 l 1,23,-1
 0 128 l 1,24,-1
 0 320 l 1,25,-1
 0 320 l 1,21,-1
64 128 m 1,26,-1
 128 128 l 1,27,-1
 128 64 l 1,28,-1
 64 64 l 1,29,-1
 64 128 l 1,30,-1
 64 128 l 1,26,-1
EndSplineSet
EndChar

StartChar: aring
Encoding: 229 229 165
Width: 319
Flags: W
LayerCount: 2
Fore
SplineSet
128 575 m 1,0,-1
 192 575 l 1,1,-1
 192 512 l 1,2,-1
 128 512 l 1,3,-1
 128 575 l 1,4,-1
 128 575 l 1,0,-1
64 512 m 1,5,-1
 128 512 l 1,6,-1
 128 448 l 1,7,-1
 64 448 l 1,8,-1
 64 512 l 1,9,-1
 64 512 l 1,5,-1
192 512 m 1,10,-1
 256 512 l 1,11,-1
 256 448 l 1,12,-1
 192 448 l 1,13,-1
 192 512 l 1,14,-1
 192 512 l 1,10,-1
128 448 m 1,15,-1
 192 448 l 1,16,-1
 192 384 l 1,17,-1
 256 384 l 1,18,-1
 256 64 l 1,19,-1
 192 64 l 1,20,-1
 192 128 l 1,21,-1
 128 128 l 1,22,-1
 128 192 l 1,23,-1
 192 192 l 1,24,-1
 192 320 l 1,25,-1
 64 320 l 1,26,-1
 64 384 l 1,27,-1
 128 384 l 1,28,-1
 128 448 l 1,29,-1
 128 448 l 1,15,-1
0 320 m 1,30,-1
 64 320 l 1,31,-1
 64 128 l 1,32,-1
 0 128 l 1,33,-1
 0 320 l 1,34,-1
 0 320 l 1,30,-1
64 128 m 1,35,-1
 128 128 l 1,36,-1
 128 64 l 1,37,-1
 64 64 l 1,38,-1
 64 128 l 1,39,-1
 64 128 l 1,35,-1
EndSplineSet
EndChar

StartChar: ae
Encoding: 230 230 166
Width: 447
Flags: W
LayerCount: 2
Fore
SplineSet
64 384 m 1,0,-1
 320 384 l 1,1,-1
 320 320 l 1,2,-1
 192 320 l 1,3,-1
 192 256 l 1,4,-1
 320 256 l 1,5,-1
 320 320 l 1,6,-1
 384 320 l 1,7,-1
 384 192 l 1,8,-1
 192 192 l 1,9,-1
 192 128 l 1,10,-1
 128 128 l 1,11,-1
 128 320 l 1,12,-1
 64 320 l 1,13,-1
 64 384 l 1,14,-1
 64 384 l 1,0,-1
0 320 m 1,15,-1
 64 320 l 1,16,-1
 64 128 l 1,17,-1
 0 128 l 1,18,-1
 0 320 l 1,19,-1
 0 320 l 1,15,-1
64 128 m 1,20,-1
 128 128 l 1,21,-1
 128 64 l 1,22,-1
 64 64 l 1,23,-1
 64 128 l 1,24,-1
 64 128 l 1,20,-1
192 128 m 1,25,-1
 384 128 l 1,26,-1
 384 64 l 1,27,-1
 192 64 l 1,28,-1
 192 128 l 1,29,-1
 192 128 l 1,25,-1
EndSplineSet
EndChar

StartChar: ccedilla
Encoding: 231 231 167
Width: 255
Flags: W
LayerCount: 2
Fore
SplineSet
64 384 m 1,0,-1
 192 384 l 1,1,-1
 192 320 l 1,2,-1
 64 320 l 1,3,-1
 64 384 l 1,4,-1
 64 384 l 1,0,-1
0 320 m 1,5,-1
 64 320 l 1,6,-1
 64 192 l 1,7,-1
 0 192 l 1,8,-1
 0 320 l 1,9,-1
 0 320 l 1,5,-1
64 192 m 1,10,-1
 192 192 l 1,11,-1
 192 64 l 1,12,-1
 128 64 l 1,13,-1
 128 128 l 1,14,-1
 64 128 l 1,15,-1
 64 192 l 1,16,-1
 64 192 l 1,10,-1
64 64 m 1,17,-1
 128 64 l 1,18,-1
 128 0 l 1,19,-1
 64 0 l 1,20,-1
 64 64 l 1,21,-1
 64 64 l 1,17,-1
EndSplineSet
EndChar

StartChar: egrave
Encoding: 232 232 168
Width: 319
Flags: W
LayerCount: 2
Fore
SplineSet
64 575 m 1,0,-1
 128 575 l 1,1,-1
 128 512 l 1,2,-1
 64 512 l 1,3,-1
 64 575 l 1,4,-1
 64 575 l 1,0,-1
128 512 m 1,5,-1
 192 512 l 1,6,-1
 192 448 l 1,7,-1
 128 448 l 1,8,-1
 128 512 l 1,9,-1
 128 512 l 1,5,-1
64 384 m 1,10,-1
 192 384 l 1,11,-1
 192 320 l 1,12,-1
 64 320 l 1,13,-1
 64 384 l 1,14,-1
 64 384 l 1,10,-1
0 320 m 1,15,-1
 64 320 l 1,16,-1
 64 256 l 1,17,-1
 192 256 l 1,18,-1
 192 320 l 1,19,-1
 256 320 l 1,20,-1
 256 192 l 1,21,-1
 64 192 l 1,22,-1
 64 128 l 1,23,-1
 0 128 l 1,24,-1
 0 320 l 1,25,-1
 0 320 l 1,15,-1
64 128 m 1,26,-1
 256 128 l 1,27,-1
 256 64 l 1,28,-1
 64 64 l 1,29,-1
 64 128 l 1,30,-1
 64 128 l 1,26,-1
EndSplineSet
EndChar

StartChar: eacute
Encoding: 233 233 169
Width: 319
Flags: W
LayerCount: 2
Fore
SplineSet
128 575 m 1,0,-1
 192 575 l 1,1,-1
 192 512 l 1,2,-1
 128 512 l 1,3,-1
 128 575 l 1,4,-1
 128 575 l 1,0,-1
64 512 m 1,5,-1
 128 512 l 1,6,-1
 128 448 l 1,7,-1
 64 448 l 1,8,-1
 64 512 l 1,9,-1
 64 512 l 1,5,-1
64 384 m 1,10,-1
 192 384 l 1,11,-1
 192 320 l 1,12,-1
 64 320 l 1,13,-1
 64 384 l 1,14,-1
 64 384 l 1,10,-1
0 320 m 1,15,-1
 64 320 l 1,16,-1
 64 256 l 1,17,-1
 192 256 l 1,18,-1
 192 320 l 1,19,-1
 256 320 l 1,20,-1
 256 192 l 1,21,-1
 64 192 l 1,22,-1
 64 128 l 1,23,-1
 0 128 l 1,24,-1
 0 320 l 1,25,-1
 0 320 l 1,15,-1
64 128 m 1,26,-1
 256 128 l 1,27,-1
 256 64 l 1,28,-1
 64 64 l 1,29,-1
 64 128 l 1,30,-1
 64 128 l 1,26,-1
EndSplineSet
EndChar

StartChar: ecircumflex
Encoding: 234 234 170
Width: 319
Flags: W
LayerCount: 2
Fore
SplineSet
64 575 m 1,0,-1
 192 575 l 1,1,-1
 192 512 l 1,2,-1
 64 512 l 1,3,-1
 64 575 l 1,4,-1
 64 575 l 1,0,-1
0 512 m 1,5,-1
 64 512 l 1,6,-1
 64 448 l 1,7,-1
 0 448 l 1,8,-1
 0 512 l 1,9,-1
 0 512 l 1,5,-1
192 512 m 1,10,-1
 256 512 l 1,11,-1
 256 448 l 1,12,-1
 192 448 l 1,13,-1
 192 512 l 1,14,-1
 192 512 l 1,10,-1
64 384 m 1,15,-1
 192 384 l 1,16,-1
 192 320 l 1,17,-1
 64 320 l 1,18,-1
 64 384 l 1,19,-1
 64 384 l 1,15,-1
0 320 m 1,20,-1
 64 320 l 1,21,-1
 64 256 l 1,22,-1
 192 256 l 1,23,-1
 192 320 l 1,24,-1
 256 320 l 1,25,-1
 256 192 l 1,26,-1
 64 192 l 1,27,-1
 64 128 l 1,28,-1
 0 128 l 1,29,-1
 0 320 l 1,30,-1
 0 320 l 1,20,-1
64 128 m 1,31,-1
 256 128 l 1,32,-1
 256 64 l 1,33,-1
 64 64 l 1,34,-1
 64 128 l 1,35,-1
 64 128 l 1,31,-1
EndSplineSet
EndChar

StartChar: edieresis
Encoding: 235 235 171
Width: 319
Flags: W
LayerCount: 2
Fore
SplineSet
0 512 m 1,0,-1
 64 512 l 1,1,-1
 64 448 l 1,2,-1
 0 448 l 1,3,-1
 0 512 l 1,4,-1
 0 512 l 1,0,-1
192 512 m 1,5,-1
 256 512 l 1,6,-1
 256 448 l 1,7,-1
 192 448 l 1,8,-1
 192 512 l 1,9,-1
 192 512 l 1,5,-1
64 384 m 1,10,-1
 192 384 l 1,11,-1
 192 320 l 1,12,-1
 64 320 l 1,13,-1
 64 384 l 1,14,-1
 64 384 l 1,10,-1
0 320 m 1,15,-1
 64 320 l 1,16,-1
 64 256 l 1,17,-1
 192 256 l 1,18,-1
 192 320 l 1,19,-1
 256 320 l 1,20,-1
 256 192 l 1,21,-1
 64 192 l 1,22,-1
 64 128 l 1,23,-1
 0 128 l 1,24,-1
 0 320 l 1,25,-1
 0 320 l 1,15,-1
64 128 m 1,26,-1
 256 128 l 1,27,-1
 256 64 l 1,28,-1
 64 64 l 1,29,-1
 64 128 l 1,30,-1
 64 128 l 1,26,-1
EndSplineSet
EndChar

StartChar: igrave
Encoding: 236 236 172
Width: 191
Flags: W
LayerCount: 2
Fore
SplineSet
0 575 m 1,0,-1
 64 575 l 1,1,-1
 64 512 l 1,2,-1
 0 512 l 1,3,-1
 0 575 l 1,4,-1
 0 575 l 1,0,-1
64 512 m 1,5,-1
 128 512 l 1,6,-1
 128 448 l 1,7,-1
 64 448 l 1,8,-1
 64 512 l 1,9,-1
 64 512 l 1,5,-1
64 384 m 1,10,-1
 128 384 l 1,11,-1
 128 64 l 1,12,-1
 64 64 l 1,13,-1
 64 384 l 1,14,-1
 64 384 l 1,10,-1
EndSplineSet
EndChar

StartChar: iacute
Encoding: 237 237 173
Width: 255
Flags: W
LayerCount: 2
Fore
SplineSet
128 575 m 1,0,-1
 192 575 l 1,1,-1
 192 512 l 1,2,-1
 128 512 l 1,3,-1
 128 575 l 1,4,-1
 128 575 l 1,0,-1
64 512 m 1,5,-1
 128 512 l 1,6,-1
 128 448 l 1,7,-1
 64 448 l 1,8,-1
 64 512 l 1,9,-1
 64 512 l 1,5,-1
64 384 m 1,10,-1
 128 384 l 1,11,-1
 128 64 l 1,12,-1
 64 64 l 1,13,-1
 64 384 l 1,14,-1
 64 384 l 1,10,-1
EndSplineSet
EndChar

StartChar: icircumflex
Encoding: 238 238 174
Width: 255
Flags: W
LayerCount: 2
Fore
SplineSet
64 575 m 1,0,-1
 128 575 l 1,1,-1
 128 512 l 1,2,-1
 64 512 l 1,3,-1
 64 575 l 1,4,-1
 64 575 l 1,0,-1
0 512 m 1,5,-1
 64 512 l 1,6,-1
 64 448 l 1,7,-1
 0 448 l 1,8,-1
 0 512 l 1,9,-1
 0 512 l 1,5,-1
128 512 m 1,10,-1
 192 512 l 1,11,-1
 192 448 l 1,12,-1
 128 448 l 1,13,-1
 128 512 l 1,14,-1
 128 512 l 1,10,-1
64 384 m 1,15,-1
 128 384 l 1,16,-1
 128 64 l 1,17,-1
 64 64 l 1,18,-1
 64 384 l 1,19,-1
 64 384 l 1,15,-1
EndSplineSet
EndChar

StartChar: idieresis
Encoding: 239 239 175
Width: 255
Flags: W
LayerCount: 2
Fore
SplineSet
0 512 m 1,0,-1
 64 512 l 1,1,-1
 64 448 l 1,2,-1
 0 448 l 1,3,-1
 0 512 l 1,4,-1
 0 512 l 1,0,-1
128 512 m 1,5,-1
 192 512 l 1,6,-1
 192 448 l 1,7,-1
 128 448 l 1,8,-1
 128 512 l 1,9,-1
 128 512 l 1,5,-1
64 384 m 1,10,-1
 128 384 l 1,11,-1
 128 64 l 1,12,-1
 64 64 l 1,13,-1
 64 384 l 1,14,-1
 64 384 l 1,10,-1
EndSplineSet
EndChar

StartChar: eth
Encoding: 240 240 176
Width: 319
Flags: W
LayerCount: 2
Fore
SplineSet
0 512 m 1,0,-1
 64 512 l 1,1,-1
 64 448 l 1,2,-1
 0 448 l 1,3,-1
 0 512 l 1,4,-1
 0 512 l 1,0,-1
128 512 m 1,5,-1
 192 512 l 1,6,-1
 192 448 l 1,7,-1
 128 448 l 1,8,-1
 128 512 l 1,9,-1
 128 512 l 1,5,-1
64 448 m 1,10,-1
 128 448 l 1,11,-1
 128 384 l 1,12,-1
 64 384 l 1,13,-1
 64 448 l 1,14,-1
 64 448 l 1,10,-1
0 384 m 1,15,-1
 64 384 l 1,16,-1
 64 320 l 1,17,-1
 0 320 l 1,18,-1
 0 384 l 1,19,-1
 0 384 l 1,15,-1
128 384 m 1,20,-1
 192 384 l 1,21,-1
 192 320 l 1,22,-1
 256 320 l 1,23,-1
 256 128 l 1,24,-1
 192 128 l 1,25,-1
 192 256 l 1,26,-1
 64 256 l 1,27,-1
 64 320 l 1,28,-1
 128 320 l 1,29,-1
 128 384 l 1,30,-1
 128 384 l 1,20,-1
0 256 m 1,31,-1
 64 256 l 1,32,-1
 64 128 l 1,33,-1
 0 128 l 1,34,-1
 0 256 l 1,35,-1
 0 256 l 1,31,-1
64 128 m 1,36,-1
 192 128 l 1,37,-1
 192 64 l 1,38,-1
 64 64 l 1,39,-1
 64 128 l 1,40,-1
 64 128 l 1,36,-1
EndSplineSet
EndChar

StartChar: ntilde
Encoding: 241 241 177
Width: 319
Flags: W
LayerCount: 2
Fore
SplineSet
64 575 m 1,0,-1
 128 575 l 1,1,-1
 128 512 l 1,2,-1
 64 512 l 1,3,-1
 64 575 l 1,4,-1
 64 575 l 1,0,-1
192 575 m 1,5,-1
 256 575 l 1,6,-1
 256 512 l 1,7,-1
 192 512 l 1,8,-1
 192 575 l 1,9,-1
 192 575 l 1,5,-1
0 512 m 1,10,-1
 64 512 l 1,11,-1
 64 448 l 1,12,-1
 0 448 l 1,13,-1
 0 512 l 1,14,-1
 0 512 l 1,10,-1
128 512 m 1,15,-1
 192 512 l 1,16,-1
 192 448 l 1,17,-1
 128 448 l 1,18,-1
 128 512 l 1,19,-1
 128 512 l 1,15,-1
0 384 m 1,20,-1
 192 384 l 1,21,-1
 192 320 l 1,22,-1
 64 320 l 1,23,-1
 64 64 l 1,24,-1
 0 64 l 1,25,-1
 0 384 l 1,26,-1
 0 384 l 1,20,-1
192 320 m 1,27,-1
 256 320 l 1,28,-1
 256 64 l 1,29,-1
 192 64 l 1,30,-1
 192 320 l 1,31,-1
 192 320 l 1,27,-1
EndSplineSet
EndChar

StartChar: ograve
Encoding: 242 242 178
Width: 319
Flags: W
LayerCount: 2
Fore
SplineSet
64 575 m 1,0,-1
 128 575 l 1,1,-1
 128 512 l 1,2,-1
 64 512 l 1,3,-1
 64 575 l 1,4,-1
 64 575 l 1,0,-1
128 512 m 1,5,-1
 192 512 l 1,6,-1
 192 448 l 1,7,-1
 128 448 l 1,8,-1
 128 512 l 1,9,-1
 128 512 l 1,5,-1
64 384 m 1,10,-1
 192 384 l 1,11,-1
 192 320 l 1,12,-1
 64 320 l 1,13,-1
 64 384 l 1,14,-1
 64 384 l 1,10,-1
0 320 m 1,15,-1
 64 320 l 1,16,-1
 64 128 l 1,17,-1
 0 128 l 1,18,-1
 0 320 l 1,19,-1
 0 320 l 1,15,-1
192 320 m 1,20,-1
 256 320 l 1,21,-1
 256 128 l 1,22,-1
 192 128 l 1,23,-1
 192 320 l 1,24,-1
 192 320 l 1,20,-1
64 128 m 1,25,-1
 192 128 l 1,26,-1
 192 64 l 1,27,-1
 64 64 l 1,28,-1
 64 128 l 1,29,-1
 64 128 l 1,25,-1
EndSplineSet
EndChar

StartChar: oacute
Encoding: 243 243 179
Width: 319
Flags: W
LayerCount: 2
Fore
SplineSet
128 575 m 1,0,-1
 192 575 l 1,1,-1
 192 512 l 1,2,-1
 128 512 l 1,3,-1
 128 575 l 1,4,-1
 128 575 l 1,0,-1
64 512 m 1,5,-1
 128 512 l 1,6,-1
 128 448 l 1,7,-1
 64 448 l 1,8,-1
 64 512 l 1,9,-1
 64 512 l 1,5,-1
64 384 m 1,10,-1
 192 384 l 1,11,-1
 192 320 l 1,12,-1
 64 320 l 1,13,-1
 64 384 l 1,14,-1
 64 384 l 1,10,-1
0 320 m 1,15,-1
 64 320 l 1,16,-1
 64 128 l 1,17,-1
 0 128 l 1,18,-1
 0 320 l 1,19,-1
 0 320 l 1,15,-1
192 320 m 1,20,-1
 256 320 l 1,21,-1
 256 128 l 1,22,-1
 192 128 l 1,23,-1
 192 320 l 1,24,-1
 192 320 l 1,20,-1
64 128 m 1,25,-1
 192 128 l 1,26,-1
 192 64 l 1,27,-1
 64 64 l 1,28,-1
 64 128 l 1,29,-1
 64 128 l 1,25,-1
EndSplineSet
EndChar

StartChar: ocircumflex
Encoding: 244 244 180
Width: 319
Flags: W
LayerCount: 2
Fore
SplineSet
64 575 m 1,0,-1
 192 575 l 1,1,-1
 192 512 l 1,2,-1
 64 512 l 1,3,-1
 64 575 l 1,4,-1
 64 575 l 1,0,-1
0 512 m 1,5,-1
 64 512 l 1,6,-1
 64 448 l 1,7,-1
 0 448 l 1,8,-1
 0 512 l 1,9,-1
 0 512 l 1,5,-1
192 512 m 1,10,-1
 256 512 l 1,11,-1
 256 448 l 1,12,-1
 192 448 l 1,13,-1
 192 512 l 1,14,-1
 192 512 l 1,10,-1
64 384 m 1,15,-1
 192 384 l 1,16,-1
 192 320 l 1,17,-1
 64 320 l 1,18,-1
 64 384 l 1,19,-1
 64 384 l 1,15,-1
0 320 m 1,20,-1
 64 320 l 1,21,-1
 64 128 l 1,22,-1
 0 128 l 1,23,-1
 0 320 l 1,24,-1
 0 320 l 1,20,-1
192 320 m 1,25,-1
 256 320 l 1,26,-1
 256 128 l 1,27,-1
 192 128 l 1,28,-1
 192 320 l 1,29,-1
 192 320 l 1,25,-1
64 128 m 1,30,-1
 192 128 l 1,31,-1
 192 64 l 1,32,-1
 64 64 l 1,33,-1
 64 128 l 1,34,-1
 64 128 l 1,30,-1
EndSplineSet
EndChar

StartChar: otilde
Encoding: 245 245 181
Width: 319
Flags: W
LayerCount: 2
Fore
SplineSet
64 575 m 1,0,-1
 128 575 l 1,1,-1
 128 512 l 1,2,-1
 64 512 l 1,3,-1
 64 575 l 1,4,-1
 64 575 l 1,0,-1
192 575 m 1,5,-1
 256 575 l 1,6,-1
 256 512 l 1,7,-1
 192 512 l 1,8,-1
 192 575 l 1,9,-1
 192 575 l 1,5,-1
0 512 m 1,10,-1
 64 512 l 1,11,-1
 64 448 l 1,12,-1
 0 448 l 1,13,-1
 0 512 l 1,14,-1
 0 512 l 1,10,-1
128 512 m 1,15,-1
 192 512 l 1,16,-1
 192 448 l 1,17,-1
 128 448 l 1,18,-1
 128 512 l 1,19,-1
 128 512 l 1,15,-1
64 384 m 1,20,-1
 192 384 l 1,21,-1
 192 320 l 1,22,-1
 64 320 l 1,23,-1
 64 384 l 1,24,-1
 64 384 l 1,20,-1
0 320 m 1,25,-1
 64 320 l 1,26,-1
 64 128 l 1,27,-1
 0 128 l 1,28,-1
 0 320 l 1,29,-1
 0 320 l 1,25,-1
192 320 m 1,30,-1
 256 320 l 1,31,-1
 256 128 l 1,32,-1
 192 128 l 1,33,-1
 192 320 l 1,34,-1
 192 320 l 1,30,-1
64 128 m 1,35,-1
 192 128 l 1,36,-1
 192 64 l 1,37,-1
 64 64 l 1,38,-1
 64 128 l 1,39,-1
 64 128 l 1,35,-1
EndSplineSet
EndChar

StartChar: odieresis
Encoding: 246 246 182
Width: 319
Flags: W
LayerCount: 2
Fore
SplineSet
0 512 m 1,0,-1
 64 512 l 1,1,-1
 64 448 l 1,2,-1
 0 448 l 1,3,-1
 0 512 l 1,4,-1
 0 512 l 1,0,-1
192 512 m 1,5,-1
 256 512 l 1,6,-1
 256 448 l 1,7,-1
 192 448 l 1,8,-1
 192 512 l 1,9,-1
 192 512 l 1,5,-1
64 384 m 1,10,-1
 192 384 l 1,11,-1
 192 320 l 1,12,-1
 64 320 l 1,13,-1
 64 384 l 1,14,-1
 64 384 l 1,10,-1
0 320 m 1,15,-1
 64 320 l 1,16,-1
 64 128 l 1,17,-1
 0 128 l 1,18,-1
 0 320 l 1,19,-1
 0 320 l 1,15,-1
192 320 m 1,20,-1
 256 320 l 1,21,-1
 256 128 l 1,22,-1
 192 128 l 1,23,-1
 192 320 l 1,24,-1
 192 320 l 1,20,-1
64 128 m 1,25,-1
 192 128 l 1,26,-1
 192 64 l 1,27,-1
 64 64 l 1,28,-1
 64 128 l 1,29,-1
 64 128 l 1,25,-1
EndSplineSet
EndChar

StartChar: divide
Encoding: 247 247 183
Width: 383
Flags: W
LayerCount: 2
Fore
SplineSet
128 448 m 1,0,-1
 192 448 l 1,1,-1
 192 384 l 1,2,-1
 128 384 l 1,3,-1
 128 448 l 1,4,-1
 128 448 l 1,0,-1
0 320 m 1,5,-1
 320 320 l 1,6,-1
 320 256 l 1,7,-1
 0 256 l 1,8,-1
 0 320 l 1,9,-1
 0 320 l 1,5,-1
128 192 m 1,10,-1
 192 192 l 1,11,-1
 192 128 l 1,12,-1
 128 128 l 1,13,-1
 128 192 l 1,14,-1
 128 192 l 1,10,-1
EndSplineSet
EndChar

StartChar: oslash
Encoding: 248 248 184
Width: 319
Flags: W
LayerCount: 2
Fore
SplineSet
192 448 m 1,0,-1
 256 448 l 1,1,-1
 256 384 l 1,2,-1
 192 384 l 1,3,-1
 192 448 l 1,4,-1
 192 448 l 1,0,-1
64 384 m 1,5,-1
 192 384 l 1,6,-1
 192 320 l 1,7,-1
 256 320 l 1,8,-1
 256 128 l 1,9,-1
 192 128 l 1,10,-1
 192 256 l 1,11,-1
 128 256 l 1,12,-1
 128 320 l 1,13,-1
 64 320 l 1,14,-1
 64 384 l 1,15,-1
 64 384 l 1,5,-1
0 320 m 1,16,-1
 64 320 l 1,17,-1
 64 256 l 1,18,-1
 128 256 l 1,19,-1
 128 128 l 1,20,-1
 192 128 l 1,21,-1
 192 64 l 1,22,-1
 64 64 l 1,23,-1
 64 128 l 1,24,-1
 0 128 l 1,25,-1
 0 320 l 1,26,-1
 0 320 l 1,16,-1
0 64 m 1,27,-1
 64 64 l 1,28,-1
 64 0 l 1,29,-1
 0 0 l 1,30,-1
 0 64 l 1,31,-1
 0 64 l 1,27,-1
EndSplineSet
EndChar

StartChar: ugrave
Encoding: 249 249 185
Width: 319
Flags: W
LayerCount: 2
Fore
SplineSet
64 575 m 1,0,-1
 128 575 l 1,1,-1
 128 512 l 1,2,-1
 64 512 l 1,3,-1
 64 575 l 1,4,-1
 64 575 l 1,0,-1
128 512 m 1,5,-1
 192 512 l 1,6,-1
 192 448 l 1,7,-1
 128 448 l 1,8,-1
 128 512 l 1,9,-1
 128 512 l 1,5,-1
0 384 m 1,10,-1
 64 384 l 1,11,-1
 64 128 l 1,12,-1
 0 128 l 1,13,-1
 0 384 l 1,14,-1
 0 384 l 1,10,-1
192 384 m 1,15,-1
 256 384 l 1,16,-1
 256 64 l 1,17,-1
 192 64 l 1,18,-1
 192 128 l 1,19,-1
 128 128 l 1,20,-1
 128 192 l 1,21,-1
 192 192 l 1,22,-1
 192 384 l 1,23,-1
 192 384 l 1,15,-1
64 128 m 1,24,-1
 128 128 l 1,25,-1
 128 64 l 1,26,-1
 64 64 l 1,27,-1
 64 128 l 1,28,-1
 64 128 l 1,24,-1
EndSplineSet
EndChar

StartChar: uacute
Encoding: 250 250 186
Width: 319
Flags: W
LayerCount: 2
Fore
SplineSet
128 575 m 1,0,-1
 192 575 l 1,1,-1
 192 512 l 1,2,-1
 128 512 l 1,3,-1
 128 575 l 1,4,-1
 128 575 l 1,0,-1
64 512 m 1,5,-1
 128 512 l 1,6,-1
 128 448 l 1,7,-1
 64 448 l 1,8,-1
 64 512 l 1,9,-1
 64 512 l 1,5,-1
0 384 m 1,10,-1
 64 384 l 1,11,-1
 64 128 l 1,12,-1
 0 128 l 1,13,-1
 0 384 l 1,14,-1
 0 384 l 1,10,-1
192 384 m 1,15,-1
 256 384 l 1,16,-1
 256 64 l 1,17,-1
 192 64 l 1,18,-1
 192 128 l 1,19,-1
 128 128 l 1,20,-1
 128 192 l 1,21,-1
 192 192 l 1,22,-1
 192 384 l 1,23,-1
 192 384 l 1,15,-1
64 128 m 1,24,-1
 128 128 l 1,25,-1
 128 64 l 1,26,-1
 64 64 l 1,27,-1
 64 128 l 1,28,-1
 64 128 l 1,24,-1
EndSplineSet
EndChar

StartChar: ucircumflex
Encoding: 251 251 187
Width: 319
Flags: W
LayerCount: 2
Fore
SplineSet
64 575 m 1,0,-1
 192 575 l 1,1,-1
 192 512 l 1,2,-1
 64 512 l 1,3,-1
 64 575 l 1,4,-1
 64 575 l 1,0,-1
0 512 m 1,5,-1
 64 512 l 1,6,-1
 64 448 l 1,7,-1
 0 448 l 1,8,-1
 0 512 l 1,9,-1
 0 512 l 1,5,-1
192 512 m 1,10,-1
 256 512 l 1,11,-1
 256 448 l 1,12,-1
 192 448 l 1,13,-1
 192 512 l 1,14,-1
 192 512 l 1,10,-1
0 384 m 1,15,-1
 64 384 l 1,16,-1
 64 128 l 1,17,-1
 0 128 l 1,18,-1
 0 384 l 1,19,-1
 0 384 l 1,15,-1
192 384 m 1,20,-1
 256 384 l 1,21,-1
 256 64 l 1,22,-1
 192 64 l 1,23,-1
 192 128 l 1,24,-1
 128 128 l 1,25,-1
 128 192 l 1,26,-1
 192 192 l 1,27,-1
 192 384 l 1,28,-1
 192 384 l 1,20,-1
64 128 m 1,29,-1
 128 128 l 1,30,-1
 128 64 l 1,31,-1
 64 64 l 1,32,-1
 64 128 l 1,33,-1
 64 128 l 1,29,-1
EndSplineSet
EndChar

StartChar: udieresis
Encoding: 252 252 188
Width: 319
Flags: W
LayerCount: 2
Fore
SplineSet
0 512 m 1,0,-1
 64 512 l 1,1,-1
 64 448 l 1,2,-1
 0 448 l 1,3,-1
 0 512 l 1,4,-1
 0 512 l 1,0,-1
192 512 m 1,5,-1
 256 512 l 1,6,-1
 256 448 l 1,7,-1
 192 448 l 1,8,-1
 192 512 l 1,9,-1
 192 512 l 1,5,-1
0 384 m 1,10,-1
 64 384 l 1,11,-1
 64 128 l 1,12,-1
 0 128 l 1,13,-1
 0 384 l 1,14,-1
 0 384 l 1,10,-1
192 384 m 1,15,-1
 256 384 l 1,16,-1
 256 64 l 1,17,-1
 192 64 l 1,18,-1
 192 128 l 1,19,-1
 128 128 l 1,20,-1
 128 192 l 1,21,-1
 192 192 l 1,22,-1
 192 384 l 1,23,-1
 192 384 l 1,15,-1
64 128 m 1,24,-1
 128 128 l 1,25,-1
 128 64 l 1,26,-1
 64 64 l 1,27,-1
 64 128 l 1,28,-1
 64 128 l 1,24,-1
EndSplineSet
EndChar

StartChar: yacute
Encoding: 253 253 189
Width: 319
Flags: W
LayerCount: 2
Fore
SplineSet
128 575 m 1,0,-1
 192 575 l 1,1,-1
 192 512 l 1,2,-1
 128 512 l 1,3,-1
 128 575 l 1,4,-1
 128 575 l 1,0,-1
64 512 m 1,5,-1
 128 512 l 1,6,-1
 128 448 l 1,7,-1
 64 448 l 1,8,-1
 64 512 l 1,9,-1
 64 512 l 1,5,-1
0 384 m 1,10,-1
 64 384 l 1,11,-1
 64 192 l 1,12,-1
 0 192 l 1,13,-1
 0 384 l 1,14,-1
 0 384 l 1,10,-1
192 384 m 1,15,-1
 256 384 l 1,16,-1
 256 64 l 1,17,-1
 192 64 l 1,18,-1
 192 128 l 1,19,-1
 64 128 l 1,20,-1
 64 192 l 1,21,-1
 192 192 l 1,22,-1
 192 384 l 1,23,-1
 192 384 l 1,15,-1
64 64 m 1,24,-1
 192 64 l 1,25,-1
 192 0 l 1,26,-1
 64 0 l 1,27,-1
 64 64 l 1,28,-1
 64 64 l 1,24,-1
EndSplineSet
EndChar

StartChar: thorn
Encoding: 254 254 190
Width: 319
Flags: W
LayerCount: 2
Fore
SplineSet
0 512 m 1,0,-1
 64 512 l 1,1,-1
 64 384 l 1,2,-1
 192 384 l 1,3,-1
 192 320 l 1,4,-1
 64 320 l 1,5,-1
 64 192 l 1,6,-1
 192 192 l 1,7,-1
 192 128 l 1,8,-1
 64 128 l 1,9,-1
 64 0 l 1,10,-1
 0 0 l 1,11,-1
 0 512 l 1,12,-1
 0 512 l 1,0,-1
192 320 m 1,13,-1
 256 320 l 1,14,-1
 256 192 l 1,15,-1
 192 192 l 1,16,-1
 192 320 l 1,17,-1
 192 320 l 1,13,-1
EndSplineSet
EndChar

StartChar: ydieresis
Encoding: 255 255 191
Width: 319
Flags: W
LayerCount: 2
Fore
SplineSet
0 512 m 1,0,-1
 64 512 l 1,1,-1
 64 448 l 1,2,-1
 0 448 l 1,3,-1
 0 512 l 1,4,-1
 0 512 l 1,0,-1
192 512 m 1,5,-1
 256 512 l 1,6,-1
 256 448 l 1,7,-1
 192 448 l 1,8,-1
 192 512 l 1,9,-1
 192 512 l 1,5,-1
0 384 m 1,10,-1
 64 384 l 1,11,-1
 64 192 l 1,12,-1
 0 192 l 1,13,-1
 0 384 l 1,14,-1
 0 384 l 1,10,-1
192 384 m 1,15,-1
 256 384 l 1,16,-1
 256 64 l 1,17,-1
 192 64 l 1,18,-1
 192 128 l 1,19,-1
 64 128 l 1,20,-1
 64 192 l 1,21,-1
 192 192 l 1,22,-1
 192 384 l 1,23,-1
 192 384 l 1,15,-1
64 64 m 1,24,-1
 192 64 l 1,25,-1
 192 0 l 1,26,-1
 64 0 l 1,27,-1
 64 64 l 1,28,-1
 64 64 l 1,24,-1
EndSplineSet
EndChar

StartChar: female
Encoding: 9792 9792 192
Width: 383
Flags: W
LayerCount: 2
Fore
SplineSet
64 512 m 1,0,-1
 192 512 l 1,1,-1
 192 448 l 1,2,-1
 64 448 l 1,3,-1
 64 512 l 1,4,-1
 64 512 l 1,0,-1
0 448 m 1,5,-1
 64 448 l 1,6,-1
 64 320 l 1,7,-1
 0 320 l 1,8,-1
 0 448 l 1,9,-1
 0 448 l 1,5,-1
192 448 m 1,10,-1
 256 448 l 1,11,-1
 256 320 l 1,12,-1
 192 320 l 1,13,-1
 192 448 l 1,14,-1
 192 448 l 1,10,-1
64 320 m 1,15,-1
 192 320 l 1,16,-1
 192 192 l 1,17,-1
 320 192 l 1,18,-1
 320 128 l 1,19,-1
 192 128 l 1,20,-1
 192 64 l 1,21,-1
 128 64 l 1,22,-1
 128 128 l 1,23,-1
 0 128 l 1,24,-1
 0 192 l 1,25,-1
 128 192 l 1,26,-1
 128 256 l 1,27,-1
 64 256 l 1,28,-1
 64 320 l 1,29,-1
 64 320 l 1,15,-1
EndSplineSet
EndChar

StartChar: male
Encoding: 9794 9794 193
Width: 383
Flags: W
LayerCount: 2
Fore
SplineSet
128 512 m 1,0,-1
 192 512 l 1,1,-1
 192 448 l 1,2,-1
 256 448 l 1,3,-1
 256 384 l 1,4,-1
 192 384 l 1,5,-1
 192 256 l 1,6,-1
 64 256 l 1,7,-1
 64 320 l 1,8,-1
 128 320 l 1,9,-1
 128 384 l 1,10,-1
 64 384 l 1,11,-1
 64 448 l 1,12,-1
 128 448 l 1,13,-1
 128 512 l 1,14,-1
 128 512 l 1,0,-1
0 384 m 1,15,-1
 64 384 l 1,16,-1
 64 320 l 1,17,-1
 0 320 l 1,18,-1
 0 384 l 1,19,-1
 0 384 l 1,15,-1
256 384 m 1,20,-1
 320 384 l 1,21,-1
 320 320 l 1,22,-1
 256 320 l 1,23,-1
 256 384 l 1,24,-1
 256 384 l 1,20,-1
0 256 m 1,25,-1
 64 256 l 1,26,-1
 64 128 l 1,27,-1
 0 128 l 1,28,-1
 0 256 l 1,29,-1
 0 256 l 1,25,-1
192 256 m 1,30,-1
 256 256 l 1,31,-1
 256 128 l 1,32,-1
 192 128 l 1,33,-1
 192 256 l 1,34,-1
 192 256 l 1,30,-1
64 128 m 1,35,-1
 192 128 l 1,36,-1
 192 64 l 1,37,-1
 64 64 l 1,38,-1
 64 128 l 1,39,-1
 64 128 l 1,35,-1
EndSplineSet
EndChar
